<svg xmlns="http://www.w3.org/2000/svg" width="980" height="420" viewBox="0 0 980 420" role="img">
<title>T02 price paths</title>
<rect width="100%" height="100%" fill="white"/>
<style>text{font-family:Arial,Helvetica,sans-serif;font-size:12px;fill:#222}.small{font-size:10px;fill:#555}.title{font-size:16px;font-weight:700}.axis{stroke:#999;stroke-width:1}.grid{stroke:#e6e6e6;stroke-width:1}.legend{font-size:11px}</style>
<text x="65" y="28" class="title">T02 selected-token price paths (mid/mark, 5min)</text>
<line class="grid" x1="65" y1="55.0" x2="955" y2="55.0"/>
<line class="grid" x1="65" y1="132.5" x2="955" y2="132.5"/>
<line class="grid" x1="65" y1="210.0" x2="955" y2="210.0"/>
<line class="grid" x1="65" y1="287.5" x2="955" y2="287.5"/>
<line class="grid" x1="65" y1="365.0" x2="955" y2="365.0"/>
<line class="axis" x1="65" y1="365" x2="955" y2="365"/>
<line class="axis" x1="65" y1="55" x2="65" y2="365"/>
<polyline fill="none" stroke="#1f77b4" stroke-width="2.4" points="65.0,69.1 287.5,69.1 510.0,69.1 732.5,69.1 955.0,69.1"/>
<text x="825" y="73" class="legend" fill="#1f77b4">YES</text>
<polyline fill="none" stroke="#ff7f0e" stroke-width="2.4" points="65.0,350.9 287.5,350.9 510.0,350.9 732.5,350.9 955.0,350.9"/>
<text x="825" y="91" class="legend" fill="#ff7f0e">NO</text>
<text x="8" y="67" class="small">0.670</text><text x="8" y="365" class="small">0.329</text>
</svg>
