<svg xmlns="http://www.w3.org/2000/svg" width="980" height="560" viewBox="0 0 980 560" role="img">
<title>MTM equity curves</title>
<rect width="100%" height="100%" fill="white"/>
<style>text{font-family:Arial,Helvetica,sans-serif;font-size:12px;fill:#222}.small{font-size:10px;fill:#555}.title{font-size:16px;font-weight:700}.axis{stroke:#999;stroke-width:1}.grid{stroke:#e6e6e6;stroke-width:1}.legend{font-size:11px}</style>
<text class="title" x="65" y="28">Mark-to-market equity curves</text>
<line class="grid" x1="65" y1="262.5" x2="955" y2="262.5"/>
<text class="small" x="8" y="266.5">-44</text>
<line class="grid" x1="65" y1="164.2" x2="955" y2="164.2"/>
<text class="small" x="8" y="168.2">0</text>
<line class="grid" x1="65" y1="55.0" x2="955" y2="55.0"/>
<text class="small" x="8" y="59.0">49</text>
<text x="65" y="47.0">Jun 9 / 25C YES</text>
<polyline fill="none" stroke="#2ca02c" stroke-width="1.8" points="65.0,164.8 66.3,164.9 67.7,165.0 69.0,164.6 70.4,165.9 71.7,165.9 73.1,165.6 74.4,165.5 75.8,165.4 77.1,165.4 78.5,165.5 79.8,164.0 81.2,163.8 82.5,163.8 83.9,163.5 85.2,163.2 86.6,163.0 87.9,163.0 89.3,162.9 90.6,162.8 92.0,162.7 93.3,162.9 94.7,162.5 96.0,162.8 97.4,162.9 98.7,163.0 100.1,162.5 101.4,162.3 102.8,162.3 104.1,162.3 105.5,162.2 106.8,162.2 108.2,162.2 109.5,162.2 110.8,162.2 112.2,162.2 113.5,162.2 114.9,162.2 116.2,162.2 117.6,162.2 118.9,162.2 120.3,162.2 121.6,162.2 123.0,162.2 124.3,162.2 125.7,162.2 127.0,162.2 128.4,162.2 129.7,162.2 131.1,162.2 132.4,162.2 133.8,162.2 135.1,162.2 136.5,162.2 137.8,162.2 139.2,162.2 140.5,162.2 141.9,162.2 143.2,162.2 144.6,162.2 145.9,162.2 147.3,162.2 148.6,162.2 150.0,162.2 151.3,162.2 152.7,162.2 154.0,162.2 155.3,162.2 156.7,162.2 158.0,162.2 159.4,162.2 160.7,162.2 162.1,162.2 163.4,162.2 164.8,162.2 166.1,162.2 167.5,162.2 168.8,162.2 170.2,162.2 171.5,162.2 172.9,162.2 174.2,162.2 175.6,162.2 176.9,162.2 178.3,162.2 179.6,162.2 181.0,162.2 182.3,162.2 183.7,162.2 185.0,162.2 186.4,162.2 187.7,162.2 189.1,162.2 190.4,162.2 191.8,162.2 193.1,162.2 194.5,162.2 195.8,162.2 197.2,162.2 198.5,162.2 199.8,162.2 201.2,162.2 202.5,162.2 203.9,162.2 205.2,162.2 206.6,162.2 207.9,162.2 209.3,162.2 210.6,162.3 212.0,162.2 213.3,162.2 214.7,162.2 216.0,162.2 217.4,162.2 218.7,162.2 220.1,162.2 221.4,162.2 222.8,162.2 224.1,162.2 225.5,162.2 226.8,162.2 228.2,162.2 229.5,162.2 230.9,162.2 232.2,162.2 233.6,162.2 234.9,162.2 236.3,162.2 237.6,162.2 239.0,162.2 240.3,162.2 241.7,162.2 243.0,162.2 244.3,162.3 245.7,162.1 247.0,161.9 248.4,162.0 249.7,162.0 251.1,161.9 252.4,161.9 253.8,161.8 255.1,161.8 256.5,161.8 257.8,161.8 259.2,161.8 260.5,162.0 261.9,161.9 263.2,161.9 264.6,161.9 265.9,161.7 267.3,161.7 268.6,161.9 270.0,161.9 271.3,161.9 272.7,161.7 274.0,161.7 275.4,161.7 276.7,161.7 278.1,161.7 279.4,161.7 280.8,161.8 282.1,161.9 283.5,161.9 284.8,161.9 286.2,161.9 287.5,161.9 288.8,161.9 290.2,161.9 291.5,161.9 292.9,162.5 294.2,162.5 295.6,162.4 296.9,162.4 298.3,162.0 299.6,162.0 301.0,162.4 302.3,162.4 303.7,162.2 305.0,162.0 306.4,161.9 307.7,161.9 309.1,162.1 310.4,162.1 311.8,162.1 313.1,162.2 314.5,162.0 315.8,162.0 317.2,162.3 318.5,162.1 319.9,162.1 321.2,162.2 322.6,162.2 323.9,162.2 325.3,162.2 326.6,162.2 328.0,161.9 329.3,162.2 330.7,162.1 332.0,161.9 333.3,161.9 334.7,162.2 336.0,162.1 337.4,162.0 338.7,162.2 340.1,162.0 341.4,162.3 342.8,162.2 344.1,162.1 345.5,162.0 346.8,162.1 348.2,162.2 349.5,162.1 350.9,162.1 352.2,162.3 353.6,162.3 354.9,162.1 356.3,162.4 357.6,161.9 359.0,161.9 360.3,161.8 361.7,161.8 363.0,161.8 364.4,161.5 365.7,161.8 367.1,162.1 368.4,161.9 369.8,161.7 371.1,161.7 372.5,161.5 373.8,161.8 375.2,161.8 376.5,161.8 377.8,161.8 379.2,161.8 380.5,161.9 381.9,161.9 383.2,161.9 384.6,161.9 385.9,161.9 387.3,161.9 388.6,161.9 390.0,161.9 391.3,161.9 392.7,161.9 394.0,161.9 395.4,161.9 396.7,161.8 398.1,162.1 399.4,162.1 400.8,162.1 402.1,162.1 403.5,162.0 404.8,162.0 406.2,161.9 407.5,161.9 408.9,161.9 410.2,161.9 411.6,161.9 412.9,161.9 414.3,161.7 415.6,161.5 417.0,161.5 418.3,161.5 419.7,161.5 421.0,161.5 422.3,161.5 423.7,161.5 425.0,161.5 426.4,161.5 427.7,161.5 429.1,161.5 430.4,161.5 431.8,161.3 433.1,161.1 434.5,161.1 435.8,161.1 437.2,161.0 438.5,161.0 439.9,161.0 441.2,161.0 442.6,161.0 443.9,161.0 445.3,161.1 446.6,161.0 448.0,161.1 449.3,161.1 450.7,161.1 452.0,161.1 453.4,161.1 454.7,161.1 456.1,161.1 457.4,161.0 458.8,161.0 460.1,161.0 461.5,161.0 462.8,161.0 464.2,161.0 465.5,161.5 466.8,162.1 468.2,161.9 469.5,161.5 470.9,161.1 472.2,160.8 473.6,160.9 474.9,161.0 476.3,160.9 477.6,160.9 479.0,160.7 480.3,160.7 481.7,160.7 483.0,160.7 484.4,160.8 485.7,160.8 487.1,160.6 488.4,160.6 489.8,160.7 491.1,160.7 492.5,160.7 493.8,160.7 495.2,160.7 496.5,160.7 497.9,160.7 499.2,160.7 500.6,160.7 501.9,160.7 503.3,160.7 504.6,160.4 506.0,160.4 507.3,160.7 508.7,160.7 510.0,160.6 511.3,160.6 512.7,160.7 514.0,161.7 515.4,161.9 516.7,161.9 518.1,161.9 519.4,161.9 520.8,161.9 522.1,161.9 523.5,161.9 524.8,161.9 526.2,161.8 527.5,161.9 528.9,161.9 530.2,161.9 531.6,161.9 532.9,161.9 534.3,161.9 535.6,161.9 537.0,161.9 538.3,161.9 539.7,161.9 541.0,161.9 542.4,162.1 543.7,162.1 545.1,161.9 546.4,162.1 547.8,162.1 549.1,162.1 550.5,162.1 551.8,161.8 553.2,161.8 554.5,161.8 555.8,161.8 557.2,161.8 558.5,161.8 559.9,161.8 561.2,161.8 562.6,161.8 563.9,161.8 565.3,161.8 566.6,161.8 568.0,161.8 569.3,161.8 570.7,161.8 572.0,160.7 573.4,160.3 574.7,160.2 576.1,160.7 577.4,160.4 578.8,160.6 580.1,160.0 581.5,160.0 582.8,160.2 584.2,160.2 585.5,160.2 586.9,160.0 588.2,160.3 589.6,160.2 590.9,159.9 592.3,159.7 593.6,159.7 595.0,158.6 596.3,158.8 597.7,159.0 599.0,159.0 600.3,159.4 601.7,159.4 603.0,159.4 604.4,159.3 605.7,159.3 607.1,159.3 608.4,159.3 609.8,159.2 611.1,159.2 612.5,158.9 613.8,158.7 615.2,158.8 616.5,158.7 617.9,158.3 619.2,158.2 620.6,158.1 621.9,158.1 623.3,157.9 624.6,159.0 626.0,158.7 627.3,158.6 628.7,159.1 630.0,159.2 631.4,159.1 632.7,159.3 634.1,159.2 635.4,159.2 636.8,160.2 638.1,160.3 639.5,160.3 640.8,160.3 642.2,160.4 643.5,160.4 644.8,160.4 646.2,160.4 647.5,160.3 648.9,160.3 650.2,160.3 651.6,160.3 652.9,160.2 654.3,160.1 655.6,160.0 657.0,160.1 658.3,160.1 659.7,160.1 661.0,160.1 662.4,160.1 663.7,160.1 665.1,160.1 666.4,160.1 667.8,160.1 669.1,160.1 670.5,160.1 671.8,160.1 673.2,160.1 674.5,160.1 675.9,160.1 677.2,160.1 678.6,160.3 679.9,160.3 681.3,160.3 682.6,160.3 684.0,160.3 685.3,160.6 686.7,160.6 688.0,160.6 689.3,160.6 690.7,160.6 692.0,160.6 693.4,160.6 694.7,160.6 696.1,160.1 697.4,160.1 698.8,160.1 700.1,160.1 701.5,160.1 702.8,160.1 704.2,160.1 705.5,160.1 706.9,160.1 708.2,160.1 709.6,160.1 710.9,160.1 712.3,160.1 713.6,160.1 715.0,160.1 716.3,160.1 717.7,160.1 719.0,160.1 720.4,160.1 721.7,160.4 723.1,160.8 724.4,160.8 725.8,160.8 727.1,160.8 728.5,160.8 729.8,160.8 731.2,160.8 732.5,160.8 733.8,160.8 735.2,160.8 736.5,160.8 737.9,160.8 739.2,160.8 740.6,160.8 741.9,160.8 743.3,160.8 744.6,160.8 746.0,160.8 747.3,160.8 748.7,160.8 750.0,160.8 751.4,160.8 752.7,160.8 754.1,160.8 755.4,160.9 756.8,160.8 758.1,160.8 759.5,160.9 760.8,161.0 762.2,161.2 763.5,161.2 764.9,161.2 766.2,161.4 767.6,161.5 768.9,161.5 770.3,161.7 771.6,161.7 773.0,161.7 774.3,161.7 775.7,162.1 777.0,162.3 778.3,163.4 779.7,163.4 781.0,163.9 782.4,165.0 783.7,165.0 785.1,165.4 786.4,165.0 787.8,164.8 789.1,164.8 790.5,164.8 791.8,164.8 793.2,164.8 794.5,165.2 795.9,165.4 797.2,165.4 798.6,165.3 799.9,165.4 801.3,165.2 802.6,165.2 804.0,165.7 805.3,165.3 806.7,165.6 808.0,166.0 809.4,165.9 810.7,165.9 812.1,166.1 813.4,165.2 814.8,165.2 816.1,165.2 817.5,165.5 818.8,166.0 820.2,165.6 821.5,165.2 822.8,165.4 824.2,165.3 825.5,164.5 826.9,165.3 828.2,165.5 829.6,163.6 830.9,164.4 832.3,166.2 833.6,166.7 835.0,166.5 836.3,166.7 837.7,165.1 839.0,164.2 840.4,164.2 841.7,163.1 843.1,162.7 844.4,162.3 845.8,162.0 847.1,159.0 848.5,163.0 849.8,163.5 851.2,163.4 852.5,164.8 853.9,162.8 855.2,163.4 856.6,159.1 857.9,151.2 859.3,148.4 860.6,149.2 862.0,148.6 863.3,148.2 864.7,148.4 866.0,148.4 867.3,147.7 868.7,147.5 870.0,147.3 871.4,147.3 872.7,147.3 874.1,147.3 875.4,147.3 876.8,147.3 878.1,147.3 879.5,147.4 880.8,147.4 882.2,147.4 883.5,147.4 884.9,147.4 886.2,147.4 887.6,147.4 888.9,147.4 890.3,147.4 891.6,149.9 893.0,149.4 894.3,147.8 895.7,147.9 897.0,147.6 898.4,147.8 899.7,147.8 901.1,147.5 902.4,147.4 903.8,147.5 905.1,147.2 906.5,147.4 907.8,147.1 909.2,147.1 910.5,147.1 911.8,147.1 913.2,147.1 914.5,147.1 915.9,147.1 917.2,147.1 918.6,147.1 919.9,147.1 921.3,147.1 922.6,147.1 924.0,147.0 925.3,147.0 926.7,169.1 928.0,169.1 929.4,169.1 930.7,169.1 932.1,169.1 933.4,169.1 934.8,169.1 936.1,169.1 937.5,169.1 938.8,169.1 940.2,169.1 941.5,169.1 942.9,169.1 944.2,169.1 945.6,169.1 946.9,169.1 948.3,169.1 949.6,169.1 951.0,169.1 952.3,169.1 953.7,169.1 955.0,169.1"/>
<polyline fill="none" stroke="#1f77b4" stroke-width="1.8" points="65.0,164.2 66.3,164.2 67.7,164.2 69.0,164.2 70.4,164.2 71.7,164.8 73.1,165.0 74.4,165.1 75.8,165.2 77.1,165.2 78.5,165.1 79.8,166.6 81.2,166.6 82.5,166.6 83.9,168.2 85.2,167.8 86.6,167.6 87.9,167.6 89.3,167.5 90.6,167.4 92.0,167.3 93.3,167.5 94.7,167.2 96.0,167.4 97.4,167.5 98.7,167.6 100.1,167.2 101.4,167.0 102.8,167.0 104.1,167.0 105.5,166.9 106.8,166.9 108.2,166.9 109.5,166.9 110.8,166.9 112.2,166.9 113.5,166.9 114.9,166.9 116.2,166.9 117.6,166.9 118.9,166.9 120.3,166.9 121.6,166.9 123.0,166.9 124.3,166.9 125.7,166.9 127.0,166.9 128.4,166.9 129.7,166.9 131.1,166.9 132.4,166.9 133.8,166.9 135.1,166.9 136.5,166.9 137.8,166.9 139.2,166.9 140.5,166.9 141.9,166.9 143.2,166.9 144.6,166.9 145.9,166.9 147.3,166.9 148.6,166.9 150.0,166.9 151.3,166.9 152.7,166.9 154.0,166.9 155.3,166.9 156.7,166.9 158.0,166.9 159.4,166.9 160.7,166.9 162.1,166.9 163.4,166.9 164.8,166.9 166.1,166.9 167.5,166.9 168.8,166.9 170.2,166.9 171.5,166.9 172.9,166.9 174.2,166.9 175.6,166.9 176.9,166.9 178.3,166.9 179.6,166.9 181.0,166.9 182.3,166.9 183.7,166.9 185.0,166.9 186.4,166.9 187.7,166.9 189.1,166.9 190.4,166.9 191.8,166.9 193.1,166.9 194.5,166.9 195.8,166.9 197.2,166.9 198.5,166.9 199.8,166.9 201.2,166.9 202.5,166.9 203.9,166.9 205.2,166.9 206.6,166.9 207.9,166.9 209.3,166.9 210.6,167.0 212.0,166.9 213.3,166.9 214.7,166.9 216.0,166.9 217.4,166.9 218.7,166.9 220.1,166.9 221.4,166.9 222.8,166.9 224.1,166.9 225.5,166.9 226.8,166.9 228.2,166.9 229.5,166.9 230.9,166.9 232.2,166.9 233.6,166.9 234.9,166.9 236.3,166.9 237.6,166.9 239.0,166.9 240.3,166.9 241.7,166.9 243.0,166.9 244.3,167.0 245.7,166.7 247.0,166.5 248.4,166.6 249.7,166.6 251.1,166.5 252.4,166.5 253.8,166.4 255.1,166.4 256.5,166.4 257.8,166.4 259.2,166.4 260.5,166.6 261.9,166.5 263.2,166.5 264.6,166.5 265.9,166.3 267.3,166.3 268.6,166.5 270.0,166.5 271.3,166.5 272.7,166.3 274.0,166.3 275.4,166.3 276.7,166.3 278.1,166.3 279.4,166.3 280.8,166.4 282.1,166.5 283.5,166.5 284.8,166.5 286.2,166.5 287.5,166.5 288.8,166.5 290.2,166.5 291.5,166.5 292.9,167.2 294.2,167.2 295.6,167.1 296.9,167.1 298.3,166.6 299.6,166.6 301.0,167.1 302.3,167.1 303.7,166.9 305.0,166.6 306.4,166.5 307.7,166.5 309.1,166.7 310.4,166.7 311.8,166.7 313.1,166.9 314.5,166.6 315.8,166.6 317.2,167.0 318.5,166.7 319.9,166.7 321.2,166.9 322.6,166.9 323.9,166.9 325.3,166.9 326.6,166.9 328.0,166.5 329.3,166.9 330.7,166.7 332.0,166.5 333.3,166.5 334.7,166.9 336.0,166.7 337.4,166.6 338.7,166.9 340.1,166.6 341.4,167.0 342.8,166.9 344.1,166.7 345.5,166.6 346.8,166.7 348.2,166.9 349.5,166.7 350.9,166.7 352.2,167.0 353.6,167.0 354.9,166.7 356.3,167.1 357.6,166.5 359.0,166.5 360.3,166.4 361.7,166.4 363.0,166.4 364.4,166.2 365.7,166.4 367.1,166.7 368.4,166.5 369.8,166.3 371.1,166.3 372.5,166.2 373.8,166.4 375.2,166.4 376.5,166.4 377.8,166.4 379.2,166.4 380.5,166.5 381.9,166.5 383.2,166.5 384.6,166.5 385.9,166.5 387.3,166.5 388.6,166.5 390.0,166.5 391.3,166.5 392.7,166.5 394.0,166.5 395.4,166.5 396.7,166.4 398.1,166.7 399.4,166.7 400.8,166.7 402.1,166.7 403.5,166.6 404.8,166.6 406.2,166.5 407.5,166.5 408.9,166.5 410.2,166.5 411.6,166.5 412.9,166.5 414.3,166.3 415.6,166.2 417.0,166.2 418.3,166.2 419.7,166.2 421.0,166.2 422.3,166.2 423.7,166.2 425.0,166.2 426.4,166.2 427.7,166.2 429.1,166.2 430.4,166.2 431.8,166.0 433.1,165.7 434.5,165.7 435.8,165.7 437.2,165.6 438.5,165.6 439.9,165.6 441.2,165.6 442.6,165.6 443.9,165.6 445.3,165.7 446.6,165.6 448.0,165.7 449.3,165.7 450.7,165.7 452.0,165.7 453.4,165.7 454.7,165.7 456.1,165.7 457.4,165.6 458.8,165.6 460.1,165.6 461.5,165.6 462.8,165.6 464.2,165.6 465.5,166.2 466.8,167.1 468.2,167.1 469.5,167.1 470.9,167.1 472.2,167.1 473.6,167.1 474.9,167.1 476.3,167.1 477.6,167.1 479.0,167.1 480.3,167.1 481.7,167.1 483.0,167.1 484.4,167.1 485.7,167.1 487.1,167.1 488.4,167.1 489.8,167.1 491.1,167.1 492.5,167.1 493.8,167.1 495.2,167.1 496.5,167.1 497.9,167.1 499.2,167.1 500.6,167.1 501.9,167.1 503.3,167.1 504.6,167.1 506.0,167.1 507.3,167.1 508.7,167.1 510.0,167.1 511.3,167.1 512.7,167.1 514.0,167.1 515.4,167.4 516.7,167.4 518.1,167.4 519.4,167.4 520.8,167.4 522.1,167.4 523.5,167.4 524.8,167.4 526.2,167.5 527.5,167.4 528.9,167.4 530.2,167.4 531.6,167.4 532.9,167.4 534.3,167.4 535.6,167.4 537.0,167.4 538.3,167.4 539.7,167.4 541.0,167.4 542.4,167.2 543.7,167.2 545.1,167.4 546.4,167.2 547.8,167.2 549.1,167.2 550.5,167.2 551.8,167.5 553.2,167.5 554.5,167.5 555.8,167.5 557.2,167.5 558.5,167.5 559.9,167.5 561.2,167.5 562.6,167.5 563.9,167.5 565.3,167.5 566.6,167.5 568.0,167.5 569.3,167.5 570.7,167.5 572.0,168.6 573.4,169.5 574.7,169.5 576.1,169.5 577.4,169.5 578.8,169.5 580.1,169.5 581.5,169.5 582.8,169.5 584.2,169.5 585.5,169.5 586.9,169.5 588.2,169.5 589.6,169.5 590.9,169.5 592.3,169.5 593.6,169.5 595.0,169.8 596.3,170.1 597.7,170.3 599.0,170.3 600.3,170.7 601.7,170.7 603.0,170.7 604.4,170.6 605.7,170.6 607.1,170.6 608.4,170.6 609.8,170.5 611.1,170.5 612.5,170.2 613.8,169.9 615.2,170.1 616.5,169.9 617.9,169.6 619.2,169.5 620.6,169.4 621.9,169.4 623.3,169.2 624.6,170.6 626.0,170.6 627.3,170.6 628.7,170.6 630.0,170.6 631.4,170.6 632.7,170.6 634.1,170.6 635.4,170.6 636.8,171.3 638.1,171.2 639.5,171.2 640.8,171.2 642.2,171.0 643.5,171.0 644.8,171.0 646.2,171.0 647.5,171.2 648.9,171.2 650.2,171.2 651.6,171.2 652.9,171.3 654.3,171.4 655.6,171.5 657.0,171.4 658.3,171.4 659.7,171.4 661.0,171.4 662.4,171.4 663.7,171.4 665.1,171.4 666.4,171.4 667.8,171.4 669.1,171.4 670.5,171.4 671.8,171.4 673.2,171.4 674.5,171.4 675.9,171.4 677.2,171.4 678.6,171.2 679.9,171.2 681.3,171.2 682.6,171.2 684.0,171.2 685.3,170.9 686.7,170.9 688.0,170.9 689.3,170.9 690.7,170.9 692.0,170.9 693.4,170.9 694.7,170.9 696.1,171.4 697.4,171.4 698.8,171.4 700.1,171.4 701.5,171.4 702.8,171.4 704.2,171.4 705.5,171.4 706.9,171.4 708.2,171.4 709.6,171.4 710.9,171.4 712.3,171.4 713.6,171.4 715.0,171.4 716.3,171.4 717.7,171.4 719.0,171.4 720.4,171.4 721.7,171.0 723.1,170.7 724.4,170.7 725.8,170.7 727.1,170.7 728.5,170.7 729.8,170.7 731.2,170.7 732.5,170.7 733.8,170.7 735.2,170.7 736.5,170.7 737.9,170.7 739.2,170.7 740.6,170.7 741.9,170.7 743.3,170.7 744.6,170.7 746.0,170.7 747.3,170.7 748.7,170.7 750.0,170.7 751.4,170.7 752.7,170.7 754.1,170.7 755.4,170.6 756.8,170.7 758.1,170.7 759.5,170.6 760.8,170.5 762.2,170.3 763.5,170.3 764.9,170.3 766.2,170.1 767.6,169.9 768.9,169.9 770.3,169.8 771.6,169.8 773.0,169.8 774.3,169.8 775.7,169.4 777.0,169.2 778.3,168.2 779.7,168.2 781.0,167.6 782.4,164.4 783.7,164.4 785.1,162.7 786.4,164.4 787.8,165.3 789.1,165.3 790.5,165.3 791.8,165.3 793.2,165.3 794.5,163.5 795.9,162.7 797.2,162.7 798.6,163.1 799.9,162.7 801.3,163.5 802.6,163.5 804.0,161.3 805.3,163.8 806.7,162.1 808.0,160.4 809.4,161.0 810.7,161.0 812.1,159.9 813.4,164.6 814.8,164.6 816.1,164.6 817.5,163.3 818.8,161.5 820.2,162.9 821.5,165.0 822.8,164.3 824.2,164.6 825.5,167.3 826.9,166.0 828.2,165.3 829.6,171.5 830.9,170.2 832.3,165.1 833.6,162.9 835.0,163.8 836.3,162.9 837.7,170.8 839.0,174.1 840.4,174.1 841.7,176.6 843.1,177.0 844.4,177.3 845.8,177.7 847.1,180.7 848.5,181.4 849.8,181.9 851.2,182.0 852.5,180.7 853.9,184.7 855.2,184.6 856.6,188.9 857.9,189.2 859.3,187.3 860.6,189.2 862.0,189.3 863.3,188.7 864.7,189.2 866.0,189.2 867.3,187.8 868.7,187.4 870.0,187.0 871.4,187.0 872.7,187.0 874.1,186.9 875.4,187.0 876.8,186.9 878.1,187.0 879.5,187.1 880.8,187.1 882.2,187.1 883.5,187.1 884.9,187.1 886.2,187.1 887.6,187.2 888.9,187.1 890.3,187.1 891.6,192.2 893.0,193.5 894.3,191.9 895.7,192.2 897.0,191.6 898.4,192.0 899.7,192.0 901.1,191.5 902.4,191.3 903.8,191.5 905.1,190.9 906.5,191.2 907.8,190.7 909.2,190.6 910.5,190.7 911.8,190.5 913.2,190.6 914.5,190.7 915.9,190.6 917.2,190.6 918.6,190.6 919.9,190.6 921.3,190.6 922.6,190.6 924.0,190.5 925.3,190.5 926.7,234.6 928.0,234.6 929.4,234.6 930.7,234.6 932.1,234.6 933.4,234.6 934.8,234.6 936.1,234.6 937.5,234.6 938.8,234.6 940.2,234.6 941.5,234.6 942.9,234.6 944.2,234.6 945.6,234.6 946.9,234.6 948.3,234.6 949.6,234.6 951.0,234.6 952.3,234.6 953.7,234.6 955.0,234.6"/>
<polyline fill="none" stroke="#ff7f0e" stroke-width="1.8" points="65.0,164.2 66.3,164.2 67.7,164.2 69.0,164.2 70.4,164.2 71.7,164.8 73.1,164.5 74.4,164.4 75.8,164.3 77.1,164.3 78.5,164.4 79.8,163.5 81.2,163.5 82.5,163.5 83.9,164.2 85.2,164.5 86.6,164.8 87.9,164.8 89.3,164.9 90.6,165.0 92.0,165.1 93.3,164.9 94.7,165.2 96.0,165.0 97.4,164.9 98.7,164.8 100.1,165.2 101.4,165.4 102.8,165.4 104.1,165.4 105.5,165.5 106.8,165.5 108.2,165.5 109.5,165.5 110.8,165.5 112.2,165.5 113.5,165.5 114.9,165.5 116.2,165.5 117.6,165.5 118.9,165.5 120.3,165.5 121.6,165.5 123.0,165.5 124.3,165.5 125.7,165.5 127.0,165.5 128.4,165.5 129.7,165.5 131.1,165.5 132.4,165.5 133.8,165.5 135.1,165.5 136.5,165.5 137.8,165.5 139.2,165.5 140.5,165.5 141.9,165.5 143.2,165.5 144.6,165.5 145.9,165.5 147.3,165.5 148.6,165.5 150.0,165.5 151.3,165.5 152.7,165.5 154.0,165.5 155.3,165.5 156.7,165.5 158.0,165.5 159.4,165.5 160.7,165.5 162.1,165.5 163.4,165.5 164.8,165.5 166.1,165.5 167.5,165.5 168.8,165.5 170.2,165.5 171.5,165.5 172.9,165.5 174.2,165.5 175.6,165.5 176.9,165.5 178.3,165.5 179.6,165.5 181.0,165.5 182.3,165.5 183.7,165.5 185.0,165.5 186.4,165.5 187.7,165.5 189.1,165.5 190.4,165.5 191.8,165.5 193.1,165.5 194.5,165.5 195.8,165.5 197.2,165.5 198.5,165.5 199.8,165.5 201.2,165.5 202.5,165.5 203.9,165.5 205.2,165.5 206.6,165.5 207.9,165.5 209.3,165.5 210.6,165.4 212.0,165.5 213.3,165.5 214.7,165.5 216.0,165.5 217.4,165.5 218.7,165.5 220.1,165.5 221.4,165.5 222.8,165.5 224.1,165.5 225.5,165.5 226.8,165.5 228.2,165.5 229.5,165.5 230.9,165.5 232.2,165.5 233.6,165.5 234.9,165.5 236.3,165.5 237.6,165.5 239.0,165.5 240.3,165.5 241.7,165.5 243.0,165.5 244.3,165.4 245.7,165.6 247.0,165.9 248.4,165.7 249.7,165.7 251.1,165.9 252.4,165.9 253.8,166.0 255.1,166.0 256.5,166.0 257.8,166.0 259.2,166.0 260.5,165.7 261.9,165.9 263.2,165.9 264.6,165.9 265.9,166.1 267.3,166.1 268.6,165.9 270.0,165.9 271.3,165.9 272.7,166.1 274.0,166.1 275.4,166.1 276.7,166.1 278.1,166.1 279.4,166.1 280.8,166.0 282.1,165.9 283.5,165.9 284.8,165.9 286.2,165.9 287.5,165.9 288.8,165.9 290.2,165.9 291.5,165.9 292.9,165.2 294.2,165.2 295.6,165.3 296.9,165.3 298.3,165.7 299.6,165.7 301.0,165.3 302.3,165.3 303.7,165.5 305.0,165.7 306.4,165.9 307.7,165.9 309.1,165.6 310.4,165.6 311.8,165.6 313.1,165.5 314.5,165.7 315.8,165.7 317.2,165.4 318.5,165.6 319.9,165.6 321.2,165.5 322.6,165.5 323.9,165.5 325.3,165.5 326.6,165.5 328.0,165.9 329.3,165.5 330.7,165.6 332.0,165.9 333.3,165.9 334.7,165.5 336.0,165.6 337.4,165.7 338.7,165.5 340.1,165.7 341.4,165.4 342.8,165.5 344.1,165.6 345.5,165.7 346.8,165.6 348.2,165.5 349.5,165.6 350.9,165.6 352.2,165.4 353.6,165.4 354.9,165.6 356.3,165.3 357.6,165.9 359.0,165.9 360.3,166.0 361.7,166.0 363.0,166.0 364.4,166.2 365.7,166.0 367.1,165.6 368.4,165.9 369.8,166.1 371.1,166.1 372.5,166.2 373.8,166.0 375.2,166.0 376.5,166.0 377.8,166.0 379.2,166.0 380.5,165.9 381.9,165.9 383.2,165.9 384.6,165.9 385.9,165.9 387.3,165.9 388.6,165.9 390.0,165.9 391.3,165.9 392.7,165.9 394.0,165.9 395.4,165.9 396.7,166.0 398.1,165.6 399.4,165.6 400.8,165.6 402.1,165.6 403.5,165.7 404.8,165.7 406.2,165.9 407.5,165.9 408.9,165.9 410.2,165.9 411.6,165.9 412.9,165.9 414.3,166.1 415.6,166.2 417.0,166.2 418.3,166.2 419.7,166.2 421.0,166.2 422.3,166.2 423.7,166.2 425.0,166.2 426.4,166.2 427.7,166.2 429.1,166.2 430.4,166.2 431.8,166.4 433.1,166.6 434.5,166.6 435.8,166.6 437.2,166.7 438.5,166.7 439.9,166.7 441.2,166.7 442.6,166.7 443.9,166.7 445.3,166.6 446.6,166.7 448.0,166.6 449.3,166.6 450.7,166.6 452.0,166.6 453.4,166.6 454.7,166.6 456.1,166.6 457.4,166.7 458.8,166.7 460.1,166.7 461.5,166.7 462.8,166.7 464.2,166.7 465.5,166.2 466.8,166.0 468.2,166.0 469.5,166.0 470.9,166.0 472.2,166.0 473.6,166.0 474.9,166.0 476.3,166.0 477.6,166.0 479.0,166.0 480.3,166.0 481.7,166.0 483.0,166.0 484.4,166.0 485.7,166.0 487.1,166.0 488.4,166.0 489.8,166.0 491.1,166.0 492.5,166.0 493.8,166.0 495.2,166.0 496.5,166.0 497.9,166.0 499.2,166.0 500.6,166.0 501.9,166.0 503.3,166.0 504.6,166.0 506.0,166.0 507.3,166.0 508.7,166.0 510.0,166.0 511.3,166.0 512.7,166.0 514.0,166.0 515.4,166.3 516.7,166.3 518.1,166.3 519.4,166.3 520.8,166.3 522.1,166.3 523.5,166.3 524.8,166.3 526.2,166.2 527.5,166.3 528.9,166.3 530.2,166.3 531.6,166.3 532.9,166.3 534.3,166.3 535.6,166.3 537.0,166.3 538.3,166.3 539.7,166.3 541.0,166.3 542.4,166.5 543.7,166.5 545.1,166.3 546.4,166.5 547.8,166.5 549.1,166.5 550.5,166.5 551.8,166.2 553.2,166.2 554.5,166.2 555.8,166.2 557.2,166.2 558.5,166.2 559.9,166.2 561.2,166.2 562.6,166.2 563.9,166.2 565.3,166.2 566.6,166.2 568.0,166.2 569.3,166.2 570.7,166.2 572.0,165.1 573.4,165.3 574.7,165.3 576.1,165.3 577.4,165.3 578.8,165.3 580.1,165.3 581.5,165.3 582.8,165.3 584.2,165.3 585.5,165.3 586.9,165.3 588.2,165.3 589.6,165.3 590.9,165.3 592.3,165.3 593.6,165.3 595.0,165.6 596.3,165.4 597.7,165.2 599.0,165.2 600.3,164.8 601.7,164.8 603.0,164.8 604.4,164.9 605.7,164.9 607.1,164.9 608.4,164.9 609.8,165.0 611.1,165.0 612.5,165.3 613.8,165.5 615.2,165.4 616.5,165.5 617.9,165.9 619.2,166.0 620.6,166.1 621.9,166.1 623.3,166.3 624.6,165.7 626.0,165.7 627.3,165.7 628.7,165.7 630.0,165.7 631.4,165.7 632.7,165.7 634.1,165.7 635.4,165.7 636.8,166.4 638.1,166.5 639.5,166.5 640.8,166.5 642.2,166.6 643.5,166.6 644.8,166.6 646.2,166.6 647.5,166.5 648.9,166.5 650.2,166.5 651.6,166.5 652.9,166.4 654.3,166.3 655.6,166.2 657.0,166.3 658.3,166.3 659.7,166.3 661.0,166.3 662.4,166.3 663.7,166.3 665.1,166.3 666.4,166.3 667.8,166.3 669.1,166.3 670.5,166.3 671.8,166.3 673.2,166.3 674.5,166.3 675.9,166.3 677.2,166.3 678.6,166.5 679.9,166.5 681.3,166.5 682.6,166.5 684.0,166.5 685.3,166.7 686.7,166.7 688.0,166.7 689.3,166.7 690.7,166.7 692.0,166.7 693.4,166.7 694.7,166.7 696.1,166.3 697.4,166.3 698.8,166.3 700.1,166.3 701.5,166.3 702.8,166.3 704.2,166.3 705.5,166.3 706.9,166.3 708.2,166.3 709.6,166.3 710.9,166.3 712.3,166.3 713.6,166.3 715.0,166.3 716.3,166.3 717.7,166.3 719.0,166.3 720.4,166.3 721.7,166.6 723.1,167.0 724.4,167.0 725.8,167.0 727.1,167.0 728.5,167.0 729.8,167.0 731.2,167.0 732.5,167.0 733.8,167.0 735.2,167.0 736.5,167.0 737.9,167.0 739.2,167.0 740.6,167.0 741.9,167.0 743.3,167.0 744.6,167.0 746.0,167.0 747.3,167.0 748.7,167.0 750.0,167.0 751.4,167.0 752.7,167.0 754.1,167.0 755.4,167.1 756.8,167.0 758.1,167.0 759.5,167.1 760.8,167.2 762.2,167.4 763.5,167.4 764.9,167.4 766.2,167.6 767.6,167.7 768.9,167.7 770.3,167.8 771.6,167.8 773.0,167.8 774.3,167.8 775.7,168.3 777.0,168.5 778.3,169.7 779.7,169.7 781.0,170.7 782.4,174.1 783.7,174.1 785.1,175.9 786.4,174.1 787.8,173.3 789.1,173.3 790.5,173.3 791.8,173.3 793.2,173.3 794.5,175.0 795.9,175.9 797.2,175.9 798.6,175.5 799.9,175.9 801.3,175.0 802.6,175.0 804.0,177.2 805.3,174.8 806.7,176.5 808.0,178.1 809.4,177.6 810.7,177.6 812.1,178.7 813.4,174.6 814.8,174.6 816.1,174.6 817.5,175.9 818.8,177.7 820.2,176.4 821.5,174.9 822.8,175.6 824.2,175.2 825.5,173.3 826.9,175.0 828.2,175.7 829.6,170.4 830.9,172.2 832.3,177.7 833.6,179.9 835.0,179.0 836.3,179.9 837.7,174.1 839.0,171.9 840.4,171.9 841.7,169.9 843.1,169.5 844.4,169.2 845.8,168.8 847.1,165.9 848.5,167.1 849.8,168.2 851.2,168.1 852.5,169.4 853.9,165.5 855.2,167.0 856.6,162.7 857.9,163.1 859.3,167.6 860.6,166.6 862.0,167.6 863.3,168.8 864.7,168.4 866.0,168.4 867.3,169.7 868.7,170.2 870.0,170.6 871.4,170.6 872.7,170.5 874.1,170.7 875.4,170.6 876.8,170.6 878.1,170.6 879.5,170.4 880.8,170.4 882.2,170.4 883.5,170.5 884.9,170.5 886.2,170.5 887.6,170.4 888.9,170.5 890.3,170.5 891.6,165.4 893.0,167.6 894.3,169.2 895.7,169.3 897.0,169.9 898.4,169.6 899.7,169.5 901.1,170.0 902.4,170.2 903.8,170.0 905.1,170.6 906.5,170.3 907.8,170.8 909.2,170.9 910.5,170.8 911.8,171.0 913.2,170.9 914.5,170.8 915.9,170.9 917.2,170.9 918.6,170.9 919.9,170.9 921.3,170.9 922.6,170.9 924.0,171.0 925.3,171.0 926.7,127.0 928.0,127.0 929.4,127.0 930.7,127.0 932.1,127.0 933.4,127.0 934.8,127.0 936.1,127.0 937.5,127.0 938.8,127.0 940.2,127.0 941.5,127.0 942.9,127.0 944.2,127.0 945.6,127.0 946.9,127.0 948.3,127.0 949.6,127.0 951.0,127.0 952.3,127.0 953.7,127.0 955.0,127.0"/>
<polyline fill="none" stroke="#d62728" stroke-width="1.8" points="65.0,164.2 66.3,164.2 67.7,164.2 69.0,164.2 70.4,164.3 71.7,164.3 73.1,164.3 74.4,164.4 75.8,164.6 77.1,164.6 78.5,164.4 79.8,166.6 81.2,166.9 82.5,166.9 83.9,167.2 85.2,167.6 86.6,167.9 87.9,167.9 89.3,168.1 90.6,168.2 92.0,168.4 93.3,168.1 94.7,168.5 96.0,168.2 97.4,167.4 98.7,166.8 100.1,167.1 101.4,167.6 102.8,167.6 104.1,167.6 105.5,167.6 106.8,167.6 108.2,167.6 109.5,167.6 110.8,167.6 112.2,167.6 113.5,167.6 114.9,167.6 116.2,167.6 117.6,167.6 118.9,167.6 120.3,167.6 121.6,167.6 123.0,167.6 124.3,167.6 125.7,167.6 127.0,167.6 128.4,167.6 129.7,167.6 131.1,167.6 132.4,167.6 133.8,167.6 135.1,167.4 136.5,167.4 137.8,167.4 139.2,167.4 140.5,167.4 141.9,167.4 143.2,167.4 144.6,167.4 145.9,167.4 147.3,167.4 148.6,167.4 150.0,167.4 151.3,167.4 152.7,167.4 154.0,167.4 155.3,167.4 156.7,167.4 158.0,167.4 159.4,167.4 160.7,167.4 162.1,167.4 163.4,167.4 164.8,167.4 166.1,167.4 167.5,167.4 168.8,167.4 170.2,167.4 171.5,167.4 172.9,167.4 174.2,167.4 175.6,167.4 176.9,167.4 178.3,167.4 179.6,167.4 181.0,167.4 182.3,167.4 183.7,167.4 185.0,167.4 186.4,167.4 187.7,167.4 189.1,167.4 190.4,167.4 191.8,167.4 193.1,167.4 194.5,167.4 195.8,167.4 197.2,167.4 198.5,167.4 199.8,167.4 201.2,167.4 202.5,167.4 203.9,167.4 205.2,167.4 206.6,167.4 207.9,167.4 209.3,167.4 210.6,167.3 212.0,167.4 213.3,167.4 214.7,167.4 216.0,167.4 217.4,167.4 218.7,167.4 220.1,167.4 221.4,167.4 222.8,167.4 224.1,167.4 225.5,167.4 226.8,167.4 228.2,167.4 229.5,167.4 230.9,167.4 232.2,167.4 233.6,167.4 234.9,167.4 236.3,167.4 237.6,167.4 239.0,167.4 240.3,167.4 241.7,167.4 243.0,167.4 244.3,167.3 245.7,167.5 247.0,167.6 248.4,167.5 249.7,167.5 251.1,167.6 252.4,167.6 253.8,167.7 255.1,167.7 256.5,167.7 257.8,167.7 259.2,167.7 260.5,167.5 261.9,167.6 263.2,167.6 264.6,167.6 265.9,167.8 267.3,167.8 268.6,167.6 270.0,167.6 271.3,167.6 272.7,167.8 274.0,167.8 275.4,167.8 276.7,167.8 278.1,167.8 279.4,167.8 280.8,167.7 282.1,167.6 283.5,167.6 284.8,167.6 286.2,167.6 287.5,167.6 288.8,167.6 290.2,167.6 291.5,167.6 292.9,167.1 294.2,167.1 295.6,167.2 296.9,167.2 298.3,167.5 299.6,167.5 301.0,167.2 302.3,167.2 303.7,167.4 305.0,167.5 306.4,167.6 307.7,167.6 309.1,167.5 310.4,167.5 311.8,167.5 313.1,167.4 314.5,167.5 315.8,167.5 317.2,167.3 318.5,167.5 319.9,167.5 321.2,167.4 322.6,167.4 323.9,167.4 325.3,167.4 326.6,167.4 328.0,167.6 329.3,167.4 330.7,167.5 332.0,167.6 333.3,167.6 334.7,167.4 336.0,167.5 337.4,167.5 338.7,167.4 340.1,167.5 341.4,167.3 342.8,167.4 344.1,167.5 345.5,167.5 346.8,167.5 348.2,167.4 349.5,167.5 350.9,167.5 352.2,167.3 353.6,167.3 354.9,167.5 356.3,167.2 357.6,167.6 359.0,167.6 360.3,167.7 361.7,167.7 363.0,167.7 364.4,167.9 365.7,167.7 367.1,167.5 368.4,167.6 369.8,167.8 371.1,167.8 372.5,167.9 373.8,167.7 375.2,167.7 376.5,167.7 377.8,167.7 379.2,167.7 380.5,167.6 381.9,167.6 383.2,167.6 384.6,167.6 385.9,167.6 387.3,167.6 388.6,167.6 390.0,167.6 391.3,167.6 392.7,167.6 394.0,167.6 395.4,167.6 396.7,167.7 398.1,167.5 399.4,167.5 400.8,167.5 402.1,167.5 403.5,167.5 404.8,167.5 406.2,167.6 407.5,167.6 408.9,167.6 410.2,167.6 411.6,167.6 412.9,167.6 414.3,167.8 415.6,167.7 417.0,167.7 418.3,167.7 419.7,167.7 421.0,167.7 422.3,167.7 423.7,167.7 425.0,167.7 426.4,167.7 427.7,167.7 429.1,167.6 430.4,167.6 431.8,168.0 433.1,168.4 434.5,168.4 435.8,168.4 437.2,168.7 438.5,168.5 439.9,168.5 441.2,168.1 442.6,168.0 443.9,168.0 445.3,167.6 446.6,168.0 448.0,167.6 449.3,167.6 450.7,167.5 452.0,167.4 453.4,167.3 454.7,167.3 456.1,167.3 457.4,167.8 458.8,167.8 460.1,167.6 461.5,167.6 462.8,167.6 464.2,167.6 465.5,164.0 466.8,160.6 468.2,162.0 469.5,164.0 470.9,166.7 472.2,168.7 473.6,168.1 474.9,167.4 476.3,168.1 477.6,168.1 479.0,169.4 480.3,169.4 481.7,169.4 483.0,169.4 484.4,168.7 485.7,168.7 487.1,170.0 488.4,170.0 489.8,169.1 491.1,169.1 492.5,169.1 493.8,169.1 495.2,169.1 496.5,169.1 497.9,169.1 499.2,169.1 500.6,169.1 501.9,169.1 503.3,169.1 504.6,170.7 506.0,170.7 507.3,168.9 508.7,168.9 510.0,169.5 511.3,169.5 512.7,168.8 514.0,162.1 515.4,160.6 516.7,160.6 518.1,160.6 519.4,160.6 520.8,160.6 522.1,160.6 523.5,160.6 524.8,160.6 526.2,161.4 527.5,160.6 528.9,160.6 530.2,160.6 531.6,160.6 532.9,160.6 534.3,159.9 535.6,160.5 537.0,160.5 538.3,160.5 539.7,160.5 541.0,160.5 542.4,159.0 543.7,159.0 545.1,160.5 546.4,159.0 547.8,159.0 549.1,159.0 550.5,159.0 551.8,161.3 553.2,161.3 554.5,161.3 555.8,161.3 557.2,161.3 558.5,161.3 559.9,161.3 561.2,161.3 562.6,161.3 563.9,161.2 565.3,161.2 566.6,161.2 568.0,161.2 569.3,161.2 570.7,161.2 572.0,169.5 573.4,172.1 574.7,172.9 576.1,169.5 577.4,170.8 578.8,169.8 580.1,174.6 581.5,174.6 582.8,172.7 584.2,172.7 585.5,172.7 586.9,174.6 588.2,171.7 589.6,172.7 590.9,175.4 592.3,177.4 593.6,177.4 595.0,187.4 596.3,185.4 597.7,183.4 599.0,183.4 600.3,179.4 601.7,179.4 603.0,179.4 604.4,180.4 605.7,180.4 607.1,180.4 608.4,180.4 609.8,181.4 611.1,181.4 612.5,184.4 613.8,186.4 615.2,185.4 616.5,186.4 617.9,189.3 619.2,190.4 620.6,191.5 621.9,191.5 623.3,193.7 624.6,182.7 626.0,186.0 627.3,187.1 628.7,181.6 630.0,180.5 631.4,181.6 632.7,179.4 634.1,180.5 635.4,180.5 636.8,170.5 638.1,169.4 639.5,169.4 640.8,169.4 642.2,168.3 643.5,168.3 644.8,168.3 646.2,168.3 647.5,169.4 648.9,169.4 650.2,169.4 651.6,169.4 652.9,170.5 654.3,171.6 655.6,172.8 657.0,171.6 658.3,171.6 659.7,171.6 661.0,171.6 662.4,171.6 663.7,171.6 665.1,171.6 666.4,171.6 667.8,171.6 669.1,171.6 670.5,171.6 671.8,171.6 673.2,171.6 674.5,171.6 675.9,171.6 677.2,171.6 678.6,169.4 679.9,169.4 681.3,169.4 682.6,169.4 684.0,169.4 685.3,167.2 686.7,167.2 688.0,167.2 689.3,167.2 690.7,167.2 692.0,167.2 693.4,167.2 694.7,167.2 696.1,171.6 697.4,171.6 698.8,171.6 700.1,171.6 701.5,171.6 702.8,171.6 704.2,171.6 705.5,171.6 706.9,171.6 708.2,171.6 709.6,171.6 710.9,171.6 712.3,171.6 713.6,171.6 715.0,171.6 716.3,171.6 717.7,171.6 719.0,171.6 720.4,171.6 721.7,168.3 723.1,165.1 724.4,165.1 725.8,165.1 727.1,165.1 728.5,165.1 729.8,165.0 731.2,165.0 732.5,165.0 733.8,165.0 735.2,165.0 736.5,165.0 737.9,165.0 739.2,165.0 740.6,165.0 741.9,165.0 743.3,164.9 744.6,164.9 746.0,164.9 747.3,164.9 748.7,164.9 750.0,164.8 751.4,164.8 752.7,164.8 754.1,164.8 755.4,163.8 756.8,164.8 758.1,164.8 759.5,163.8 760.8,162.7 762.2,160.7 763.5,160.7 764.9,160.7 766.2,158.6 767.6,157.5 768.9,157.5 770.3,156.5 771.6,156.4 773.0,156.4 774.3,156.4 775.7,152.0 777.0,149.8 778.3,139.5 779.7,139.4 781.0,135.1 782.4,124.8 783.7,124.7 785.1,120.4 786.4,124.7 787.8,126.2 789.1,125.9 790.5,125.7 791.8,125.7 793.2,125.3 794.5,121.3 795.9,119.3 797.2,119.2 798.6,120.1 799.9,119.2 801.3,120.7 802.6,120.7 804.0,116.6 805.3,118.3 806.7,116.6 808.0,115.1 809.4,115.6 810.7,115.6 812.1,114.0 813.4,115.0 814.8,115.0 816.1,113.1 817.5,111.5 818.8,109.4 820.2,111.1 821.5,113.6 822.8,112.2 824.2,112.2 825.5,118.7 826.9,111.0 828.2,108.7 829.6,126.8 830.9,118.8 832.3,105.2 833.6,101.4 835.0,100.2 836.3,99.9 837.7,105.9 839.0,110.4 840.4,109.8 841.7,116.4 843.1,116.2 844.4,119.5 845.8,122.8 847.1,150.0 848.5,111.0 849.8,104.9 851.2,105.1 852.5,93.8 853.9,108.7 855.2,103.9 856.6,141.1 857.9,216.3 859.3,242.4 860.6,228.5 862.0,231.5 863.3,234.3 864.7,232.7 866.0,232.6 867.3,238.6 868.7,240.8 870.0,241.0 871.4,240.6 872.7,240.5 874.1,240.9 875.4,240.6 876.8,240.6 878.1,240.4 879.5,240.2 880.8,240.0 882.2,240.0 883.5,239.3 884.9,239.1 886.2,238.9 887.6,238.6 888.9,238.9 890.3,238.9 891.6,216.2 893.0,218.4 894.3,229.3 895.7,229.0 897.0,230.3 898.4,229.3 899.7,229.0 901.1,230.0 902.4,231.1 903.8,230.2 905.1,232.9 906.5,231.2 907.8,233.3 909.2,233.4 910.5,233.1 911.8,233.6 913.2,233.3 914.5,232.9 915.9,233.2 917.2,233.1 918.6,233.0 919.9,233.0 921.3,233.0 922.6,233.0 924.0,233.3 925.3,233.3 926.7,75.1 928.0,75.1 929.4,75.1 930.7,75.1 932.1,75.1 933.4,75.1 934.8,75.1 936.1,75.1 937.5,75.1 938.8,75.1 940.2,75.1 941.5,75.1 942.9,75.1 944.2,75.1 945.6,75.1 946.9,75.1 948.3,75.1 949.6,75.1 951.0,75.1 952.3,75.1 953.7,75.1 955.0,75.1"/>
<line x1="735" y1="66.0" x2="760" y2="66.0" stroke="#2ca02c" stroke-width="2"/>
<text class="small" x="767" y="70.0">buy hold first ask</text>
<line x1="735" y1="82.0" x2="760" y2="82.0" stroke="#1f77b4" stroke-width="2"/>
<text class="small" x="767" y="86.0">momentum taker</text>
<line x1="735" y1="98.0" x2="760" y2="98.0" stroke="#ff7f0e" stroke-width="2"/>
<text class="small" x="767" y="102.0">contrarian taker</text>
<line x1="735" y1="114.0" x2="760" y2="114.0" stroke="#d62728" stroke-width="2"/>
<text class="small" x="767" y="118.0">maker bbo</text>
<line class="grid" x1="65" y1="505.0" x2="955" y2="505.0"/>
<text class="small" x="8" y="509.0">-78</text>
<line class="grid" x1="65" y1="393.9" x2="955" y2="393.9"/>
<text class="small" x="8" y="397.9">0</text>
<line class="grid" x1="65" y1="297.5" x2="955" y2="297.5"/>
<text class="small" x="8" y="301.5">67</text>
<text x="65" y="289.5">Jun 10 / 28C YES</text>
<polyline fill="none" stroke="#2ca02c" stroke-width="1.8" points="65.0,393.8 66.3,393.5 67.7,393.7 69.0,393.7 70.4,393.7 71.7,393.7 73.1,393.7 74.4,393.6 75.8,393.6 77.1,393.6 78.5,393.4 79.8,393.4 81.2,393.4 82.5,392.7 83.9,392.3 85.2,392.2 86.5,392.2 87.9,392.4 89.2,392.4 90.6,392.4 91.9,392.4 93.3,392.2 94.6,392.2 96.0,392.2 97.3,392.2 98.7,392.2 100.0,392.1 101.4,392.6 102.7,392.5 104.0,392.5 105.4,392.6 106.7,392.6 108.1,392.6 109.4,392.6 110.8,392.6 112.1,392.6 113.5,392.5 114.8,392.5 116.2,392.5 117.5,392.5 118.9,392.5 120.2,392.5 121.6,392.5 122.9,392.5 124.2,392.4 125.6,392.4 126.9,392.5 128.3,392.5 129.6,392.4 131.0,392.4 132.3,392.5 133.7,392.5 135.0,392.5 136.4,392.5 137.7,392.5 139.1,392.5 140.4,392.5 141.7,392.5 143.1,392.5 144.4,392.5 145.8,392.5 147.1,392.5 148.5,392.5 149.8,392.5 151.2,392.4 152.5,392.4 153.9,392.4 155.2,392.4 156.6,392.4 157.9,392.4 159.3,392.4 160.6,392.4 161.9,392.4 163.3,392.5 164.6,392.4 166.0,392.4 167.3,392.5 168.7,392.5 170.0,392.5 171.4,392.5 172.7,392.5 174.1,392.9 175.4,392.9 176.8,392.9 178.1,392.9 179.4,392.9 180.8,392.8 182.1,392.8 183.5,392.7 184.8,392.7 186.2,392.7 187.5,392.7 188.9,392.7 190.2,392.7 191.6,393.2 192.9,393.2 194.3,393.2 195.6,393.1 197.0,393.1 198.3,393.1 199.6,393.0 201.0,393.0 202.3,393.0 203.7,393.0 205.0,393.0 206.4,393.0 207.7,393.0 209.1,393.0 210.4,393.0 211.8,392.8 213.1,392.8 214.5,392.9 215.8,392.9 217.1,392.9 218.5,392.9 219.8,392.9 221.2,392.8 222.5,392.8 223.9,392.8 225.2,392.7 226.6,392.7 227.9,392.9 229.3,393.0 230.6,392.9 232.0,392.9 233.3,392.9 234.7,392.8 236.0,392.4 237.3,392.3 238.7,392.4 240.0,392.4 241.4,392.4 242.7,392.4 244.1,392.8 245.4,392.5 246.8,392.4 248.1,392.5 249.5,392.4 250.8,392.4 252.2,392.5 253.5,392.5 254.8,392.5 256.2,392.5 257.5,392.4 258.9,392.4 260.2,392.4 261.6,392.4 262.9,392.6 264.3,392.6 265.6,392.6 267.0,392.6 268.3,392.4 269.7,392.4 271.0,392.4 272.4,392.5 273.7,392.5 275.0,392.5 276.4,392.5 277.7,392.8 279.1,392.7 280.4,392.9 281.8,392.9 283.1,392.7 284.5,392.7 285.8,392.7 287.2,392.9 288.5,392.7 289.9,392.7 291.2,392.7 292.5,392.7 293.9,392.9 295.2,392.8 296.6,392.9 297.9,392.9 299.3,392.7 300.6,392.7 302.0,392.7 303.3,392.7 304.7,392.3 306.0,392.3 307.4,392.3 308.7,392.3 310.1,392.1 311.4,392.2 312.7,392.2 314.1,392.2 315.4,392.2 316.8,392.2 318.1,392.1 319.5,392.0 320.8,392.2 322.2,392.2 323.5,392.2 324.9,392.2 326.2,392.1 327.6,392.1 328.9,392.1 330.2,392.1 331.6,392.2 332.9,392.2 334.3,392.2 335.6,392.2 337.0,392.2 338.3,392.2 339.7,392.2 341.0,392.2 342.4,392.2 343.7,392.2 345.1,392.2 346.4,392.2 347.8,392.2 349.1,392.2 350.4,392.2 351.8,392.2 353.1,392.2 354.5,392.2 355.8,392.2 357.2,392.2 358.5,392.2 359.9,392.2 361.2,392.2 362.6,392.2 363.9,392.2 365.3,392.2 366.6,392.2 368.0,392.2 369.3,392.2 370.6,392.1 372.0,392.0 373.3,391.9 374.7,391.9 376.0,392.0 377.4,392.1 378.7,392.1 380.1,392.1 381.4,392.0 382.8,392.1 384.1,392.2 385.5,392.2 386.8,392.1 388.1,392.1 389.5,392.1 390.8,392.2 392.2,392.2 393.5,392.0 394.9,392.0 396.2,392.1 397.6,392.1 398.9,392.2 400.3,392.2 401.6,392.2 403.0,392.0 404.3,392.1 405.7,392.0 407.0,392.0 408.3,391.9 409.7,392.0 411.0,391.9 412.4,391.9 413.7,391.9 415.1,391.9 416.4,392.0 417.8,392.2 419.1,392.2 420.5,392.5 421.8,392.6 423.2,392.5 424.5,392.5 425.8,392.4 427.2,392.4 428.5,392.3 429.9,392.4 431.2,392.6 432.6,392.6 433.9,392.3 435.3,392.4 436.6,392.3 438.0,392.3 439.3,392.3 440.7,392.4 442.0,392.3 443.4,392.2 444.7,392.2 446.0,392.2 447.4,392.2 448.7,392.2 450.1,392.2 451.4,392.2 452.8,392.2 454.1,392.2 455.5,392.2 456.8,392.2 458.2,392.2 459.5,392.2 460.9,392.2 462.2,392.2 463.5,392.2 464.9,392.2 466.2,392.2 467.6,392.2 468.9,392.2 470.3,392.3 471.6,392.4 473.0,392.0 474.3,392.1 475.7,392.0 477.0,391.9 478.4,391.9 479.7,391.9 481.1,392.3 482.4,392.3 483.7,392.1 485.1,392.1 486.4,392.1 487.8,392.0 489.1,392.0 490.5,392.0 491.8,392.3 493.2,392.3 494.5,392.0 495.9,391.9 497.2,391.9 498.6,391.9 499.9,391.9 501.2,391.9 502.6,391.8 503.9,391.8 505.3,391.8 506.6,392.0 508.0,392.0 509.3,392.0 510.7,392.0 512.0,392.1 513.4,392.1 514.7,391.9 516.1,391.9 517.4,391.9 518.8,391.9 520.1,391.9 521.4,391.9 522.8,391.9 524.1,391.9 525.5,391.9 526.8,391.9 528.2,391.9 529.5,391.9 530.9,391.9 532.2,391.9 533.6,392.0 534.9,392.0 536.3,391.9 537.6,391.9 538.9,392.0 540.3,392.0 541.6,391.9 543.0,392.0 544.3,391.9 545.7,391.8 547.0,391.8 548.4,391.8 549.7,391.8 551.1,391.8 552.4,391.8 553.8,391.6 555.1,391.6 556.5,391.6 557.8,391.5 559.1,391.4 560.5,391.4 561.8,391.5 563.2,391.6 564.5,391.6 565.9,391.8 567.2,391.4 568.6,391.6 569.9,391.6 571.3,391.5 572.6,391.5 574.0,391.6 575.3,391.4 576.6,391.4 578.0,391.7 579.3,391.7 580.7,391.7 582.0,391.7 583.4,391.7 584.7,391.7 586.1,391.8 587.4,391.7 588.8,391.7 590.1,391.3 591.5,391.4 592.8,390.5 594.2,390.4 595.5,390.9 596.8,390.4 598.2,390.3 599.5,390.4 600.9,390.5 602.2,390.6 603.6,390.8 604.9,390.8 606.3,390.7 607.6,390.9 609.0,390.8 610.3,391.0 611.7,391.0 613.0,391.0 614.3,391.0 615.7,391.0 617.0,391.0 618.4,391.1 619.7,390.9 621.1,390.9 622.4,391.0 623.8,391.0 625.1,390.9 626.5,390.6 627.8,390.7 629.2,390.7 630.5,390.7 631.9,390.7 633.2,390.8 634.5,390.9 635.9,390.9 637.2,390.9 638.6,390.9 639.9,390.9 641.3,391.0 642.6,390.3 644.0,390.3 645.3,390.4 646.7,390.3 648.0,390.4 649.4,390.4 650.7,390.4 652.0,390.4 653.4,390.4 654.7,390.4 656.1,390.5 657.4,390.5 658.8,390.4 660.1,390.4 661.5,390.4 662.8,390.4 664.2,390.4 665.5,390.4 666.9,390.4 668.2,390.4 669.6,390.4 670.9,390.4 672.2,390.4 673.6,390.4 674.9,390.3 676.3,390.3 677.6,390.3 679.0,390.3 680.3,390.3 681.7,390.3 683.0,390.3 684.4,390.3 685.7,390.3 687.1,390.3 688.4,390.3 689.8,390.3 691.1,390.3 692.4,390.3 693.8,390.3 695.1,390.3 696.5,390.3 697.8,390.3 699.2,390.3 700.5,390.3 701.9,390.3 703.2,390.3 704.6,390.3 705.9,390.3 707.3,390.3 708.6,390.3 709.9,390.3 711.3,390.3 712.6,390.3 714.0,390.3 715.3,390.3 716.7,390.3 718.0,390.3 719.4,390.3 720.7,390.3 722.1,390.5 723.4,390.6 724.8,390.6 726.1,390.6 727.5,390.6 728.8,390.9 730.1,390.8 731.5,390.7 732.8,390.7 734.2,390.7 735.5,390.7 736.9,390.7 738.2,390.7 739.6,390.7 740.9,390.7 742.3,390.8 743.6,390.9 745.0,391.0 746.3,391.0 747.6,391.0 749.0,391.0 750.3,391.0 751.7,390.9 753.0,391.0 754.4,391.0 755.7,391.0 757.1,391.0 758.4,391.1 759.8,391.3 761.1,391.2 762.5,391.3 763.8,391.4 765.2,391.3 766.5,391.4 767.8,391.4 769.2,391.3 770.5,391.3 771.9,391.3 773.2,391.3 774.6,391.3 775.9,391.5 777.3,391.7 778.6,391.9 780.0,392.2 781.3,392.4 782.7,392.2 784.0,392.2 785.3,391.9 786.7,391.8 788.0,390.3 789.4,390.4 790.7,390.6 792.1,390.6 793.4,390.8 794.8,390.8 796.1,390.7 797.5,390.6 798.8,390.4 800.2,390.2 801.5,390.1 802.9,390.2 804.2,390.3 805.5,390.6 806.9,390.7 808.2,390.7 809.6,390.9 810.9,390.8 812.3,390.6 813.6,390.5 815.0,390.5 816.3,390.6 817.7,390.4 819.0,390.2 820.4,390.0 821.7,390.0 823.0,390.3 824.4,390.2 825.7,389.8 827.1,389.9 828.4,389.9 829.8,389.9 833.8,389.9 835.2,389.6 836.5,388.9 837.9,388.6 839.2,387.6 840.6,387.4 841.9,387.4 843.2,388.4 844.6,388.4 845.9,388.8 847.3,388.8 848.6,387.9 850.0,385.8 851.3,385.4 852.7,385.4 854.0,385.7 855.4,385.6 856.7,385.1 858.1,385.4 859.4,385.8 860.7,384.3 862.1,384.6 863.4,384.8 864.8,384.7 866.1,384.3 867.5,384.8 868.8,384.6 870.2,384.7 871.5,384.6 872.9,384.6 874.2,384.3 875.6,384.1 876.9,384.1 878.3,384.0 879.6,383.8 880.9,383.7 882.3,383.4 883.6,383.5 885.0,383.4 886.3,383.4 887.7,383.4 889.0,383.3 890.4,383.3 891.7,383.4 893.1,383.0 894.4,383.0 895.8,383.0 897.1,383.0 898.4,383.0 899.8,383.0 901.1,397.2 902.5,397.2 903.8,397.2 905.2,397.2 906.5,382.9 907.9,382.9 909.2,382.9 910.6,397.2 911.9,382.9 913.3,397.2 914.6,397.2 916.0,397.2 917.3,397.2 918.6,397.2 920.0,397.2 921.3,397.2 922.7,397.2 924.0,397.2 925.4,397.2 926.7,397.2 928.1,397.2 929.4,397.2 930.8,397.2 932.1,397.2 933.5,397.2 934.8,397.2 936.1,397.2 937.5,397.2 938.8,397.2 940.2,397.2 941.5,397.2 942.9,397.2 944.2,397.2 945.6,397.2 946.9,397.2 948.3,397.2 949.6,397.2 951.0,397.2 952.3,397.2 953.7,397.2 955.0,397.2"/>
<polyline fill="none" stroke="#1f77b4" stroke-width="1.8" points="65.0,393.9 66.3,394.5 67.7,394.7 69.0,394.7 70.4,394.7 71.7,394.7 73.1,394.7 74.4,394.6 75.8,394.6 77.1,394.6 78.5,394.4 79.8,394.4 81.2,394.4 82.5,393.7 83.9,393.7 85.2,393.5 86.5,393.5 87.9,393.8 89.2,393.8 90.6,393.8 91.9,393.9 93.3,393.5 94.6,393.5 96.0,393.4 97.3,393.4 98.7,393.4 100.0,393.2 101.4,394.6 102.7,394.5 104.0,394.5 105.4,394.6 106.7,394.6 108.1,394.6 109.4,394.6 110.8,394.6 112.1,394.6 113.5,394.5 114.8,394.5 116.2,394.5 117.5,394.5 118.9,394.5 120.2,394.5 121.6,394.5 122.9,394.5 124.2,394.4 125.6,394.4 126.9,394.5 128.3,394.5 129.6,394.4 131.0,394.4 132.3,394.5 133.7,394.5 135.0,394.5 136.4,394.5 137.7,394.5 139.1,394.5 140.4,394.5 141.7,394.5 143.1,394.5 144.4,394.5 145.8,394.5 147.1,394.5 148.5,394.5 149.8,394.5 151.2,394.4 152.5,394.4 153.9,394.4 155.2,394.4 156.6,394.4 157.9,394.4 159.3,394.4 160.6,394.4 161.9,394.4 163.3,394.5 164.6,394.4 166.0,394.4 167.3,394.5 168.7,394.5 170.0,394.5 171.4,394.5 172.7,394.5 174.1,394.9 175.4,395.5 176.8,395.5 178.1,395.5 179.4,395.5 180.8,395.5 182.1,395.5 183.5,395.5 184.8,395.5 186.2,395.5 187.5,395.5 188.9,395.5 190.2,395.5 191.6,395.5 192.9,395.5 194.3,395.5 195.6,395.5 197.0,395.5 198.3,395.5 199.6,395.5 201.0,395.5 202.3,395.5 203.7,395.5 205.0,395.5 206.4,395.5 207.7,395.5 209.1,395.5 210.4,395.5 211.8,395.5 213.1,395.5 214.5,395.5 215.8,395.5 217.1,395.5 218.5,395.5 219.8,395.5 221.2,395.5 222.5,395.5 223.9,395.5 225.2,395.5 226.6,395.5 227.9,395.5 229.3,395.5 230.6,395.5 232.0,395.5 233.3,395.5 234.7,395.5 236.0,395.8 237.3,395.7 238.7,395.8 240.0,395.8 241.4,395.8 242.7,395.9 244.1,396.2 245.4,395.9 246.8,395.9 248.1,395.9 249.5,395.9 250.8,395.9 252.2,395.9 253.5,395.9 254.8,395.9 256.2,395.9 257.5,395.9 258.9,395.9 260.2,395.9 261.6,395.9 262.9,396.0 264.3,396.0 265.6,396.0 267.0,396.0 268.3,395.9 269.7,395.9 271.0,395.9 272.4,395.9 273.7,395.9 275.0,395.9 276.4,395.9 277.7,396.2 279.1,396.1 280.4,396.3 281.8,396.3 283.1,396.2 284.5,396.2 285.8,396.2 287.2,396.3 288.5,396.2 289.9,396.2 291.2,396.2 292.5,396.2 293.9,396.3 295.2,396.2 296.6,396.3 297.9,396.3 299.3,396.2 300.6,396.2 302.0,396.2 303.3,396.2 304.7,395.7 306.0,395.7 307.4,395.7 308.7,395.7 310.1,395.5 311.4,395.6 312.7,395.7 314.1,395.7 315.4,395.7 316.8,395.7 318.1,395.5 319.5,395.4 320.8,395.6 322.2,395.7 323.5,395.7 324.9,395.7 326.2,395.5 327.6,395.5 328.9,395.5 330.2,395.5 331.6,395.6 332.9,395.6 334.3,395.6 335.6,395.6 337.0,395.6 338.3,395.7 339.7,395.7 341.0,395.7 342.4,395.6 343.7,395.6 345.1,395.6 346.4,395.7 347.8,395.7 349.1,395.7 350.4,395.7 351.8,395.7 353.1,395.7 354.5,395.7 355.8,395.7 357.2,395.7 358.5,395.6 359.9,395.6 361.2,395.6 362.6,395.6 363.9,395.6 365.3,395.6 366.6,395.6 368.0,395.6 369.3,395.6 370.6,395.5 372.0,395.4 373.3,395.4 374.7,395.4 376.0,395.4 377.4,395.5 378.7,395.5 380.1,395.5 381.4,395.4 382.8,395.5 384.1,395.6 385.5,395.6 386.8,395.5 388.1,395.5 389.5,395.5 390.8,395.6 392.2,395.6 393.5,395.4 394.9,395.4 396.2,395.5 397.6,395.5 398.9,395.6 400.3,395.6 401.6,395.6 403.0,395.4 404.3,395.5 405.7,395.4 407.0,395.4 408.3,395.4 409.7,395.4 411.0,395.3 412.4,395.3 413.7,395.4 415.1,395.4 416.4,395.4 417.8,395.6 419.1,395.6 420.5,396.4 421.8,396.4 423.2,396.4 424.5,396.4 425.8,396.4 427.2,396.4 428.5,396.4 429.9,396.4 431.2,396.4 432.6,396.4 433.9,396.4 435.3,396.4 436.6,396.4 438.0,396.4 439.3,396.4 440.7,396.4 442.0,396.4 443.4,396.4 444.7,396.4 446.0,396.4 447.4,396.4 448.7,396.4 450.1,396.4 451.4,396.4 452.8,396.4 454.1,396.4 455.5,396.4 456.8,396.4 458.2,396.4 459.5,396.4 460.9,396.4 462.2,396.4 463.5,396.4 464.9,396.4 466.2,396.4 467.6,396.4 468.9,396.4 470.3,396.4 471.6,396.4 473.0,396.4 474.3,396.4 475.7,396.4 477.0,396.4 478.4,396.4 479.7,396.4 481.1,396.7 482.4,396.7 483.7,397.0 485.1,397.0 486.4,397.0 487.8,397.0 489.1,397.0 490.5,397.0 491.8,396.7 493.2,396.7 494.5,397.0 495.9,397.4 497.2,397.4 498.6,397.4 499.9,397.4 501.2,397.4 502.6,397.4 503.9,397.4 505.3,397.4 506.6,397.4 508.0,397.4 509.3,397.4 510.7,397.4 512.0,397.4 513.4,397.4 514.7,397.4 516.1,397.4 517.4,397.4 518.8,397.4 520.1,397.4 521.4,397.4 522.8,397.4 524.1,397.4 525.5,397.4 526.8,397.4 528.2,397.4 529.5,397.4 530.9,397.4 532.2,397.4 533.6,397.4 534.9,397.4 536.3,397.4 537.6,397.4 538.9,397.4 540.3,397.4 541.6,397.4 543.0,397.4 544.3,397.4 545.7,397.4 547.0,397.4 548.4,397.4 549.7,397.4 551.1,397.4 552.4,397.4 553.8,397.4 555.1,397.4 556.5,397.4 557.8,397.4 559.1,397.4 560.5,397.4 561.8,397.4 563.2,397.4 564.5,397.4 565.9,397.4 567.2,397.4 568.6,397.4 569.9,397.4 571.3,397.4 572.6,397.4 574.0,397.4 575.3,397.4 576.6,397.4 578.0,397.4 579.3,397.4 580.7,397.4 582.0,397.4 583.4,397.4 584.7,397.4 586.1,397.4 587.4,397.4 588.8,397.4 590.1,397.4 591.5,397.4 592.8,397.8 594.2,397.7 595.5,398.5 596.8,398.5 598.2,398.9 599.5,399.0 600.9,399.1 602.2,399.2 603.6,399.4 604.9,399.4 606.3,399.3 607.6,399.5 609.0,399.4 610.3,399.6 611.7,399.6 613.0,399.6 614.3,399.6 615.7,399.6 617.0,399.6 618.4,399.7 619.7,399.5 621.1,399.5 622.4,399.6 623.8,399.6 625.1,399.5 626.5,399.2 627.8,399.3 629.2,399.3 630.5,399.3 631.9,399.3 633.2,399.4 634.5,399.5 635.9,399.5 637.2,399.5 638.6,399.5 639.9,399.5 641.3,399.6 642.6,399.1 644.0,399.1 645.3,399.4 646.7,399.1 648.0,399.4 649.4,399.4 650.7,399.4 652.0,399.4 653.4,399.4 654.7,399.4 656.1,399.5 657.4,399.5 658.8,399.4 660.1,399.4 661.5,399.4 662.8,399.4 664.2,399.4 665.5,399.4 666.9,399.4 668.2,399.4 669.6,399.4 670.9,399.4 672.2,399.4 673.6,399.4 674.9,399.1 676.3,399.1 677.6,399.1 679.0,399.1 680.3,399.1 681.7,399.1 683.0,399.1 684.4,399.1 685.7,399.1 687.1,399.1 688.4,399.1 689.8,399.1 691.1,399.1 692.4,399.1 693.8,399.1 695.1,399.1 696.5,399.1 697.8,399.1 699.2,399.1 700.5,399.1 701.9,399.1 703.2,399.1 704.6,399.1 705.9,399.1 707.3,399.1 708.6,399.1 709.9,399.1 711.3,399.1 712.6,399.1 714.0,399.1 715.3,399.1 716.7,399.1 718.0,399.1 719.4,399.1 720.7,399.1 722.1,399.5 723.4,399.7 724.8,399.7 726.1,399.7 727.5,399.7 728.8,400.2 730.1,400.1 731.5,400.0 732.8,400.0 734.2,400.0 735.5,400.0 736.9,400.0 738.2,400.0 739.6,400.0 740.9,400.0 742.3,400.1 743.6,400.2 745.0,400.5 746.3,400.5 747.6,400.5 749.0,400.5 750.3,400.5 751.7,400.4 753.0,400.5 754.4,400.5 755.7,400.5 757.1,400.5 758.4,400.8 759.8,401.1 761.1,401.0 762.5,401.1 763.8,401.2 765.2,401.1 766.5,401.4 767.8,401.4 769.2,401.1 770.5,401.1 771.9,401.1 773.2,401.1 774.6,401.1 775.9,401.5 777.3,402.0 778.6,402.3 780.0,403.0 781.3,403.3 782.7,403.0 784.0,402.8 785.3,402.3 786.7,402.1 788.0,399.1 789.4,399.7 790.7,400.4 792.1,400.4 793.4,400.8 794.8,400.8 796.1,400.6 797.5,400.2 798.8,399.5 800.2,399.1 801.5,398.9 802.9,399.1 804.2,399.3 805.5,400.2 806.9,400.6 808.2,400.6 809.6,401.0 810.9,400.8 812.3,400.4 813.6,400.0 815.0,400.0 816.3,400.4 817.7,399.7 819.0,399.1 820.4,398.5 821.7,398.5 823.0,399.3 824.4,399.1 825.7,398.0 827.1,398.2 828.4,398.2 829.8,398.2 833.8,398.2 835.2,397.1 836.5,394.0 837.9,392.5 839.2,386.3 840.6,385.3 841.9,385.5 843.2,393.2 844.6,393.7 845.9,396.1 847.3,396.1 848.6,391.9 850.0,379.0 851.3,376.2 852.7,376.2 854.0,378.5 855.4,378.7 856.7,375.6 858.1,377.9 859.4,381.3 860.7,368.9 862.1,371.4 863.4,373.4 864.8,372.1 866.1,368.2 867.5,372.7 868.8,370.8 870.2,372.1 871.5,370.8 872.9,370.8 874.2,368.9 875.6,366.9 876.9,366.3 878.3,365.6 879.6,363.7 880.9,363.1 882.3,360.5 883.6,361.1 885.0,360.5 886.3,360.5 887.7,360.5 889.0,359.2 890.4,359.2 891.7,360.5 893.1,357.0 894.4,356.7 895.8,356.7 897.1,356.8 898.4,356.8 899.8,356.8 901.1,484.9 902.5,484.9 903.8,484.9 905.2,484.9 906.5,356.2 907.9,356.2 909.2,356.2 910.6,484.9 911.9,356.2 913.3,484.9 914.6,484.9 916.0,484.9 917.3,484.9 918.6,484.9 920.0,484.9 921.3,484.9 922.7,484.9 924.0,484.9 925.4,484.9 926.7,484.9 928.1,484.9 929.4,484.9 930.8,484.9 932.1,484.9 933.5,484.9 934.8,484.9 936.1,484.9 937.5,484.9 938.8,484.9 940.2,484.9 941.5,484.9 942.9,484.9 944.2,484.9 945.6,484.9 946.9,484.9 948.3,484.9 949.6,484.9 951.0,484.9 952.3,484.9 953.7,484.9 955.0,484.9"/>
<polyline fill="none" stroke="#ff7f0e" stroke-width="1.8" points="65.0,393.9 66.3,394.7 67.7,394.5 69.0,394.5 70.4,394.5 71.7,394.5 73.1,394.5 74.4,394.6 75.8,394.6 77.1,394.6 78.5,394.7 79.8,394.7 81.2,394.7 82.5,395.4 83.9,396.5 85.2,396.7 86.5,396.7 87.9,396.4 89.2,396.4 90.6,396.4 91.9,396.2 93.3,396.7 94.6,396.7 96.0,396.8 97.3,396.8 98.7,396.8 100.0,397.0 101.4,396.3 102.7,396.4 104.0,396.4 105.4,396.3 106.7,396.3 108.1,396.3 109.4,396.3 110.8,396.3 112.1,396.3 113.5,396.4 114.8,396.4 116.2,396.4 117.5,396.4 118.9,396.4 120.2,396.4 121.6,396.4 122.9,396.4 124.2,396.5 125.6,396.5 126.9,396.4 128.3,396.4 129.6,396.5 131.0,396.5 132.3,396.4 133.7,396.4 135.0,396.4 136.4,396.4 137.7,396.4 139.1,396.4 140.4,396.4 141.7,396.4 143.1,396.4 144.4,396.4 145.8,396.4 147.1,396.4 148.5,396.4 149.8,396.4 151.2,396.5 152.5,396.5 153.9,396.5 155.2,396.5 156.6,396.5 157.9,396.5 159.3,396.5 160.6,396.5 161.9,396.5 163.3,396.4 164.6,396.5 166.0,396.5 167.3,396.4 168.7,396.4 170.0,396.4 171.4,396.4 172.7,396.4 174.1,396.0 175.4,396.4 176.8,396.4 178.1,396.4 179.4,396.4 180.8,396.4 182.1,396.4 183.5,396.4 184.8,396.4 186.2,396.4 187.5,396.4 188.9,396.4 190.2,396.4 191.6,396.4 192.9,396.4 194.3,396.4 195.6,396.4 197.0,396.4 198.3,396.4 199.6,396.4 201.0,396.4 202.3,396.4 203.7,396.4 205.0,396.4 206.4,396.4 207.7,396.4 209.1,396.4 210.4,396.4 211.8,396.4 213.1,396.4 214.5,396.4 215.8,396.4 217.1,396.4 218.5,396.4 219.8,396.4 221.2,396.4 222.5,396.4 223.9,396.4 225.2,396.4 226.6,396.4 227.9,396.4 229.3,396.4 230.6,396.4 232.0,396.4 233.3,396.4 234.7,396.4 236.0,396.7 237.3,396.7 238.7,396.7 240.0,396.7 241.4,396.7 242.7,396.6 244.1,396.2 245.4,396.5 246.8,396.6 248.1,396.5 249.5,396.6 250.8,396.6 252.2,396.5 253.5,396.5 254.8,396.5 256.2,396.5 257.5,396.6 258.9,396.6 260.2,396.6 261.6,396.6 262.9,396.5 264.3,396.5 265.6,396.5 267.0,396.5 268.3,396.6 269.7,396.6 271.0,396.6 272.4,396.5 273.7,396.5 275.0,396.5 276.4,396.5 277.7,396.2 279.1,396.4 280.4,396.2 281.8,396.2 283.1,396.3 284.5,396.3 285.8,396.3 287.2,396.2 288.5,396.3 289.9,396.3 291.2,396.3 292.5,396.3 293.9,396.2 295.2,396.2 296.6,396.2 297.9,396.2 299.3,396.3 300.6,396.3 302.0,396.3 303.3,396.3 304.7,396.7 306.0,396.7 307.4,396.7 308.7,396.7 310.1,397.0 311.4,396.9 312.7,396.8 314.1,396.8 315.4,396.8 316.8,396.8 318.1,397.0 319.5,397.0 320.8,396.9 322.2,396.8 323.5,396.8 324.9,396.8 326.2,397.0 327.6,397.0 328.9,397.0 330.2,397.0 331.6,396.9 332.9,396.9 334.3,396.9 335.6,396.9 337.0,396.9 338.3,396.8 339.7,396.8 341.0,396.8 342.4,396.9 343.7,396.9 345.1,396.9 346.4,396.8 347.8,396.8 349.1,396.8 350.4,396.8 351.8,396.8 353.1,396.8 354.5,396.8 355.8,396.8 357.2,396.8 358.5,396.9 359.9,396.9 361.2,396.9 362.6,396.9 363.9,396.9 365.3,396.9 366.6,396.9 368.0,396.9 369.3,396.9 370.6,397.0 372.0,397.0 373.3,397.1 374.7,397.1 376.0,397.0 377.4,397.0 378.7,397.0 380.1,397.0 381.4,397.0 382.8,397.0 384.1,396.9 385.5,396.9 386.8,397.0 388.1,397.0 389.5,397.0 390.8,396.9 392.2,396.9 393.5,397.0 394.9,397.0 396.2,397.0 397.6,397.0 398.9,396.9 400.3,396.9 401.6,396.9 403.0,397.0 404.3,397.0 405.7,397.0 407.0,397.0 408.3,397.1 409.7,397.0 411.0,397.2 412.4,397.2 413.7,397.1 415.1,397.1 416.4,397.0 417.8,396.9 419.1,396.9 420.5,396.8 421.8,396.8 423.2,396.8 424.5,396.8 425.8,396.8 427.2,396.8 428.5,396.8 429.9,396.8 431.2,396.8 432.6,396.8 433.9,396.8 435.3,396.8 436.6,396.8 438.0,396.8 439.3,396.8 440.7,396.8 442.0,396.8 443.4,396.8 444.7,396.8 446.0,396.8 447.4,396.8 448.7,396.8 450.1,396.8 451.4,396.8 452.8,396.8 454.1,396.8 455.5,396.8 456.8,396.8 458.2,396.8 459.5,396.8 460.9,396.8 462.2,396.8 463.5,396.8 464.9,396.8 466.2,396.8 467.6,396.8 468.9,396.8 470.3,396.8 471.6,396.8 473.0,396.8 474.3,396.8 475.7,396.8 477.0,396.8 478.4,396.8 479.7,396.8 481.1,397.0 482.4,397.0 483.7,396.8 485.1,396.8 486.4,396.8 487.8,396.7 489.1,396.7 490.5,396.7 491.8,397.0 493.2,397.0 494.5,396.7 495.9,396.8 497.2,396.8 498.6,396.8 499.9,396.8 501.2,396.8 502.6,396.8 503.9,396.8 505.3,396.8 506.6,396.8 508.0,396.8 509.3,396.8 510.7,396.8 512.0,396.8 513.4,396.8 514.7,396.8 516.1,396.8 517.4,396.8 518.8,396.8 520.1,396.8 521.4,396.8 522.8,396.8 524.1,396.8 525.5,396.8 526.8,396.8 528.2,396.8 529.5,396.8 530.9,396.8 532.2,396.8 533.6,396.8 534.9,396.8 536.3,396.8 537.6,396.8 538.9,396.8 540.3,396.8 541.6,396.8 543.0,396.8 544.3,396.8 545.7,396.8 547.0,396.8 548.4,396.8 549.7,396.8 551.1,396.8 552.4,396.8 553.8,396.8 555.1,396.8 556.5,396.8 557.8,396.8 559.1,396.8 560.5,396.8 561.8,396.8 563.2,396.8 564.5,396.8 565.9,396.8 567.2,396.8 568.6,396.8 569.9,396.8 571.3,396.8 572.6,396.8 574.0,396.8 575.3,396.8 576.6,396.8 578.0,396.8 579.3,396.8 580.7,396.8 582.0,396.8 583.4,396.8 584.7,396.8 586.1,396.8 587.4,396.8 588.8,396.8 590.1,396.8 591.5,396.8 592.8,397.0 594.2,397.0 595.5,396.8 596.8,396.8 598.2,396.7 599.5,396.6 600.9,396.5 602.2,396.5 603.6,396.2 604.9,396.2 606.3,396.3 607.6,396.2 609.0,396.2 610.3,396.0 611.7,396.0 613.0,396.0 614.3,396.0 615.7,396.0 617.0,396.0 618.4,395.9 619.7,396.1 621.1,396.1 622.4,396.0 623.8,396.0 625.1,396.1 626.5,396.4 627.8,396.3 629.2,396.3 630.5,396.3 631.9,396.3 633.2,396.2 634.5,396.1 635.9,396.2 637.2,396.2 638.6,396.1 639.9,396.1 641.3,396.0 642.6,397.0 644.0,397.0 645.3,396.7 646.7,397.0 648.0,396.7 649.4,396.7 650.7,396.7 652.0,396.7 653.4,396.7 654.7,396.7 656.1,396.5 657.4,396.5 658.8,396.7 660.1,396.7 661.5,396.7 662.8,396.7 664.2,396.7 665.5,396.7 666.9,396.7 668.2,396.7 669.6,396.7 670.9,396.7 672.2,396.7 673.6,396.7 674.9,397.0 676.3,397.0 677.6,397.0 679.0,397.0 680.3,397.0 681.7,397.0 683.0,397.0 684.4,397.0 685.7,397.0 687.1,397.0 688.4,397.0 689.8,397.0 691.1,397.0 692.4,397.0 693.8,397.0 695.1,397.0 696.5,397.0 697.8,397.0 699.2,397.0 700.5,397.0 701.9,397.0 703.2,397.0 704.6,397.0 705.9,397.0 707.3,397.0 708.6,397.0 709.9,397.0 711.3,397.0 712.6,397.0 714.0,397.0 715.3,397.0 716.7,397.0 718.0,397.0 719.4,397.0 720.7,397.0 722.1,396.5 723.4,396.4 724.8,396.4 726.1,396.4 727.5,396.4 728.8,395.8 730.1,395.9 731.5,396.1 732.8,396.1 734.2,396.1 735.5,396.1 736.9,396.1 738.2,396.1 739.6,396.1 740.9,396.1 742.3,395.9 743.6,395.8 745.0,395.5 746.3,395.5 747.6,395.5 749.0,395.5 750.3,395.5 751.7,395.7 753.0,395.5 754.4,395.5 755.7,395.5 757.1,395.5 758.4,395.2 759.8,394.9 761.1,395.1 762.5,394.9 763.8,394.8 765.2,394.9 766.5,394.7 767.8,394.7 769.2,394.9 770.5,394.9 771.9,394.9 773.2,394.9 774.6,394.9 775.9,394.5 777.3,394.1 778.6,393.8 780.0,393.1 781.3,392.8 782.7,393.1 784.0,393.2 785.3,393.8 786.7,393.9 788.0,397.0 789.4,396.7 790.7,396.1 792.1,396.1 793.4,395.7 794.8,395.7 796.1,395.9 797.5,396.3 798.8,397.0 800.2,397.4 801.5,397.6 802.9,397.4 804.2,397.2 805.5,396.3 806.9,395.9 808.2,395.9 809.6,395.4 810.9,395.7 812.3,396.1 813.6,396.5 815.0,396.5 816.3,396.1 817.7,396.7 819.0,397.4 820.4,398.0 821.7,398.0 823.0,397.2 824.4,397.4 825.7,398.7 827.1,398.4 828.4,398.4 829.8,398.4 833.8,398.4 835.2,399.5 836.5,402.8 837.9,404.4 839.2,410.9 840.6,411.9 841.9,412.1 843.2,404.9 844.6,405.4 845.9,403.1 847.3,403.1 848.6,407.6 850.0,421.5 851.3,424.7 852.7,424.7 854.0,422.5 855.4,423.1 856.7,426.8 858.1,424.5 859.4,421.0 860.7,433.6 862.1,431.1 863.4,429.1 864.8,430.4 866.1,434.3 867.5,429.8 868.8,431.7 870.2,430.4 871.5,431.7 872.9,431.7 874.2,433.6 875.6,435.6 876.9,436.2 878.3,436.9 879.6,438.8 880.9,439.4 882.3,442.0 883.6,441.4 885.0,442.0 886.3,442.0 887.7,442.0 889.0,443.3 890.4,443.3 891.7,442.0 893.1,445.5 894.4,445.8 895.8,445.8 897.1,445.7 898.4,445.7 899.8,445.7 901.1,317.6 902.5,317.6 903.8,317.6 905.2,317.6 906.5,446.3 907.9,446.3 909.2,446.3 910.6,317.6 911.9,446.3 913.3,317.6 914.6,317.6 916.0,317.6 917.3,317.6 918.6,317.6 920.0,317.6 921.3,317.6 922.7,317.6 924.0,317.6 925.4,317.6 926.7,317.6 928.1,317.6 929.4,317.6 930.8,317.6 932.1,317.6 933.5,317.6 934.8,317.6 936.1,317.6 937.5,317.6 938.8,317.6 940.2,317.6 941.5,317.6 942.9,317.6 944.2,317.6 945.6,317.6 946.9,317.6 948.3,317.6 949.6,317.6 951.0,317.6 952.3,317.6 953.7,317.6 955.0,317.6"/>
<polyline fill="none" stroke="#d62728" stroke-width="1.8" points="65.0,393.9 66.3,393.9 67.7,393.9 69.0,393.8 70.4,393.8 71.7,393.8 73.1,393.8 74.4,393.8 75.8,393.8 77.1,393.8 78.5,393.9 79.8,393.9 81.2,393.9 82.5,394.3 83.9,394.5 85.2,394.5 86.5,394.5 87.9,394.4 89.2,394.4 90.6,394.4 91.9,394.4 93.3,394.5 94.6,394.3 96.0,394.5 97.3,394.5 98.7,394.5 100.0,394.6 101.4,393.6 102.7,393.7 104.0,393.7 105.4,393.6 106.7,393.6 108.1,393.6 109.4,393.6 110.8,393.6 112.1,393.6 113.5,393.7 114.8,393.7 116.2,393.7 117.5,393.7 118.9,393.7 120.2,393.7 121.6,393.7 122.9,393.7 124.2,393.9 125.6,393.9 126.9,393.7 128.3,393.7 129.6,393.9 131.0,393.9 132.3,393.7 133.7,393.7 135.0,393.7 136.4,393.7 137.7,393.7 139.1,393.7 140.4,393.7 141.7,393.7 143.1,393.7 144.4,393.7 145.8,393.7 147.1,393.7 148.5,393.7 149.8,393.7 151.2,393.9 152.5,393.9 153.9,393.9 155.2,393.9 156.6,393.9 157.9,393.9 159.3,393.9 160.6,393.9 161.9,393.9 163.3,393.7 164.6,393.9 166.0,393.9 167.3,393.7 168.7,393.7 170.0,393.7 171.4,393.7 172.7,393.7 174.1,393.0 175.4,392.8 176.8,393.0 178.1,392.8 179.4,393.0 180.8,393.1 182.1,393.1 183.5,393.3 184.8,393.3 186.2,393.3 187.5,393.4 188.9,393.3 190.2,393.3 191.6,392.2 192.9,392.2 194.3,392.4 195.6,392.4 197.0,392.4 198.3,392.4 199.6,392.5 201.0,392.5 202.3,392.5 203.7,392.5 205.0,392.5 206.4,392.5 207.7,392.5 209.1,392.5 210.4,392.5 211.8,393.0 213.1,393.0 214.5,392.8 215.8,392.8 217.1,392.8 218.5,392.8 219.8,392.8 221.2,393.0 222.5,393.0 223.9,393.0 225.2,393.2 226.6,393.2 227.9,392.7 229.3,392.5 230.6,392.8 232.0,392.8 233.3,392.8 234.7,393.0 236.0,394.1 237.3,394.2 238.7,394.1 240.0,394.1 241.4,394.1 242.7,393.9 244.1,393.0 245.4,393.7 246.8,393.9 248.1,393.7 249.5,393.9 250.8,393.9 252.2,393.7 253.5,393.7 254.8,393.7 256.2,393.7 257.5,393.9 258.9,393.9 260.2,393.9 261.6,393.9 262.9,393.5 264.3,393.5 265.6,393.5 267.0,393.5 268.3,393.9 269.7,393.9 271.0,393.9 272.4,393.7 273.7,393.7 275.0,393.7 276.4,393.7 277.7,393.0 279.1,393.4 280.4,392.8 281.8,392.8 283.1,393.2 284.5,393.2 285.8,393.2 287.2,392.6 288.5,393.2 289.9,393.2 291.2,393.2 292.5,393.2 293.9,392.6 295.2,392.9 296.6,392.6 297.9,392.6 299.3,393.2 300.6,393.2 302.0,393.2 303.3,393.2 304.7,394.8 306.0,394.8 307.4,394.8 308.7,394.8 310.1,395.7 311.4,395.4 312.7,395.1 314.1,395.1 315.4,395.1 316.8,395.1 318.1,395.7 319.5,395.9 320.8,395.4 322.2,395.1 323.5,395.1 324.9,395.1 326.2,395.7 327.6,395.7 328.9,395.7 330.2,395.7 331.6,395.4 332.9,395.4 334.3,395.4 335.6,395.4 337.0,395.4 338.3,395.1 339.7,395.1 341.0,395.1 342.4,395.4 343.7,395.4 345.1,395.4 346.4,395.1 347.8,395.1 349.1,395.1 350.4,395.1 351.8,395.1 353.1,395.1 354.5,395.1 355.8,395.1 357.2,395.1 358.5,395.4 359.9,395.4 361.2,395.4 362.6,395.4 363.9,395.4 365.3,395.4 366.6,395.4 368.0,395.4 369.3,395.4 370.6,395.7 372.0,395.9 373.3,396.2 374.7,396.2 376.0,395.9 377.4,395.7 378.7,395.7 380.1,395.7 381.4,395.9 382.8,395.7 384.1,395.4 385.5,395.4 386.8,395.7 388.1,395.7 389.5,395.7 390.8,395.4 392.2,395.4 393.5,395.9 394.9,395.9 396.2,395.7 397.6,395.7 398.9,395.4 400.3,395.4 401.6,395.4 403.0,395.9 404.3,395.7 405.7,395.9 407.0,395.9 408.3,395.9 409.7,395.9 411.0,396.5 412.4,396.5 413.7,396.2 415.1,396.2 416.4,395.9 417.8,395.4 419.1,395.4 420.5,394.0 421.8,393.7 423.2,394.0 424.5,394.0 425.8,394.3 427.2,394.3 428.5,394.8 429.9,394.3 431.2,393.7 432.6,393.7 433.9,394.8 435.3,394.6 436.6,394.8 438.0,394.8 439.3,394.8 440.7,394.6 442.0,394.8 443.4,395.1 444.7,395.1 446.0,395.1 447.4,395.1 448.7,395.1 450.1,395.4 451.4,395.4 452.8,395.4 454.1,395.4 455.5,395.4 456.8,395.4 458.2,395.4 459.5,395.4 460.9,395.4 462.2,395.3 463.5,395.3 464.9,395.3 466.2,395.3 467.6,395.3 468.9,395.3 470.3,394.7 471.6,394.3 473.0,396.0 474.3,395.4 475.7,395.8 477.0,396.2 478.4,396.2 479.7,396.2 481.1,394.1 482.4,394.1 483.7,395.4 485.1,395.4 486.4,395.2 487.8,395.7 489.1,395.7 490.5,395.5 491.8,393.8 493.2,393.8 494.5,395.5 495.9,396.2 497.2,396.2 498.6,396.2 499.9,396.2 501.2,396.2 502.6,396.7 503.9,396.7 505.3,396.7 506.6,395.2 508.0,395.2 509.3,395.2 510.7,395.2 512.0,394.6 513.4,394.6 514.7,396.2 516.1,396.2 517.4,396.2 518.8,396.2 520.1,396.2 521.4,396.2 522.8,396.2 524.1,396.2 525.5,396.2 526.8,396.2 528.2,396.2 529.5,396.2 530.9,396.2 532.2,396.2 533.6,394.6 534.9,394.6 536.3,395.3 537.6,395.9 538.9,394.6 540.3,394.6 541.6,395.9 543.0,394.5 544.3,395.2 545.7,396.5 547.0,396.5 548.4,396.5 549.7,396.5 551.1,396.5 552.4,396.4 553.8,398.6 555.1,398.6 556.5,398.6 557.8,399.3 559.1,400.0 560.5,400.0 561.8,399.3 563.2,398.6 564.5,398.6 565.9,396.4 567.2,400.7 568.6,398.6 569.9,398.6 571.3,399.3 572.6,399.3 574.0,398.6 575.3,400.0 576.6,400.0 578.0,397.9 579.3,397.9 580.7,397.2 582.0,397.9 583.4,397.2 584.7,397.2 586.1,396.4 587.4,397.2 588.8,397.2 590.1,401.5 591.5,400.7 592.8,409.3 594.2,409.9 595.5,406.9 596.8,409.8 598.2,410.8 599.5,409.8 600.9,409.4 602.2,408.9 603.6,407.4 604.9,407.4 606.3,407.9 607.6,406.8 609.0,407.3 610.3,405.7 611.7,405.7 613.0,405.7 614.3,405.7 615.7,405.7 617.0,405.7 618.4,405.2 619.7,406.3 621.1,406.3 622.4,405.7 623.8,405.7 625.1,406.3 626.5,408.5 627.8,407.8 629.2,407.8 630.5,407.8 631.9,407.8 633.2,407.1 634.5,405.8 635.9,406.4 637.2,406.4 638.6,405.7 639.9,405.7 641.3,404.9 642.6,412.1 644.0,412.1 645.3,410.7 646.7,412.1 648.0,410.7 649.4,410.7 650.7,410.7 652.0,410.7 653.4,410.7 654.7,410.7 656.1,410.0 657.4,410.0 658.8,410.7 660.1,410.7 661.5,410.7 662.8,410.7 664.2,410.7 665.5,410.7 666.9,410.7 668.2,410.7 669.6,410.7 670.9,410.7 672.2,410.7 673.6,410.7 674.9,412.1 676.3,412.1 677.6,412.1 679.0,412.1 680.3,412.1 681.7,412.1 683.0,412.1 684.4,412.1 685.7,412.1 687.1,412.1 688.4,412.1 689.8,412.1 691.1,412.1 692.4,412.1 693.8,412.1 695.1,412.1 696.5,412.1 697.8,412.1 699.2,412.1 700.5,412.1 701.9,412.1 703.2,412.1 704.6,412.1 705.9,412.1 707.3,412.1 708.6,412.1 709.9,412.1 711.3,412.1 712.6,412.1 714.0,412.0 715.3,412.0 716.7,412.0 718.0,411.9 719.4,411.9 720.7,411.9 722.1,409.5 723.4,408.8 724.8,408.6 726.1,408.6 727.5,408.6 728.8,406.4 730.1,406.9 731.5,407.5 732.8,407.5 734.2,407.5 735.5,407.5 736.9,407.4 738.2,407.4 739.6,406.2 740.9,406.1 742.3,405.6 743.6,405.3 745.0,404.6 746.3,404.6 747.6,404.6 749.0,404.6 750.3,404.5 751.7,404.9 753.0,404.5 754.4,404.5 755.7,404.4 757.1,404.4 758.4,403.4 759.8,402.6 761.1,402.8 762.5,402.4 763.8,402.0 765.2,402.4 766.5,401.5 767.8,401.5 769.2,402.4 770.5,402.3 771.9,402.3 773.2,402.3 774.6,402.3 775.9,400.8 777.3,399.3 778.6,398.3 780.0,395.6 781.3,394.4 782.7,395.4 784.0,396.1 785.3,398.8 786.7,399.5 788.0,414.6 789.4,413.2 790.7,411.0 792.1,411.0 793.4,409.6 794.8,409.6 796.1,410.3 797.5,411.7 798.8,413.9 800.2,415.3 801.5,416.0 802.9,415.2 804.2,414.5 805.5,412.1 806.9,410.9 808.2,410.7 809.6,409.3 810.9,409.9 812.3,411.1 813.6,412.1 815.0,412.1 816.3,411.0 817.7,412.3 819.0,413.4 820.4,414.7 821.7,414.6 823.0,412.0 824.4,412.5 825.7,416.8 827.1,416.1 828.4,416.1 829.8,416.1 833.8,416.1 835.2,418.5 836.5,425.7 837.9,428.6 839.2,438.6 840.6,440.0 841.9,439.6 843.2,429.0 844.6,429.0 845.9,424.9 847.3,424.4 848.6,431.3 850.0,448.5 851.3,451.9 852.7,451.9 854.0,448.2 855.4,449.2 856.7,451.7 858.1,449.6 859.4,443.9 860.7,459.0 862.1,455.9 863.4,454.0 864.8,455.4 866.1,459.7 867.5,454.7 868.8,456.7 870.2,455.2 871.5,456.7 872.9,456.7 874.2,458.8 875.6,460.7 876.9,461.4 878.3,462.1 879.6,464.0 880.9,464.7 882.3,467.6 883.6,466.8 885.0,467.4 886.3,467.4 887.7,467.4 889.0,468.8 890.4,468.7 891.7,467.9 893.1,470.9 894.4,471.0 895.8,470.9 897.1,470.8 898.4,470.8 899.8,470.8 901.1,382.0 902.5,382.0 903.8,382.0 905.2,382.0 906.5,471.0 907.9,471.0 909.2,471.0 910.6,389.8 911.9,471.0 913.3,395.8 914.6,395.8 916.0,395.8 917.3,395.8 918.6,395.8 920.0,395.8 921.3,395.8 922.7,395.8 924.0,395.8 925.4,395.8 926.7,395.8 928.1,395.8 929.4,395.8 930.8,395.8 932.1,395.8 933.5,395.8 934.8,395.8 936.1,395.8 937.5,395.8 938.8,395.8 940.2,395.8 941.5,395.8 942.9,395.8 944.2,395.8 945.6,395.8 946.9,395.8 948.3,395.8 949.6,395.8 951.0,395.8 952.3,395.8 953.7,395.8 955.0,395.8"/>
<line x1="735" y1="308.5" x2="760" y2="308.5" stroke="#2ca02c" stroke-width="2"/>
<text class="small" x="767" y="312.5">buy hold first ask</text>
<line x1="735" y1="324.5" x2="760" y2="324.5" stroke="#1f77b4" stroke-width="2"/>
<text class="small" x="767" y="328.5">momentum taker</text>
<line x1="735" y1="340.5" x2="760" y2="340.5" stroke="#ff7f0e" stroke-width="2"/>
<text class="small" x="767" y="344.5">contrarian taker</text>
<line x1="735" y1="356.5" x2="760" y2="356.5" stroke="#d62728" stroke-width="2"/>
<text class="small" x="767" y="360.5">maker bbo</text>
</svg>
