<svg xmlns="http://www.w3.org/2000/svg" width="980" height="560" viewBox="0 0 980 560" role="img">
<title>MTM equity curves</title>
<rect width="100%" height="100%" fill="white"/>
<style>text{font-family:Arial,Helvetica,sans-serif;font-size:12px;fill:#222}.small{font-size:10px;fill:#555}.title{font-size:16px;font-weight:700}.axis{stroke:#999;stroke-width:1}.grid{stroke:#e6e6e6;stroke-width:1}.legend{font-size:11px}</style>
<text class="title" x="65" y="28">Mark-to-market equity curves</text>
<line class="grid" x1="65" y1="262.5" x2="955" y2="262.5"/>
<text class="small" x="8" y="266.5">-43</text>
<line class="grid" x1="65" y1="154.4" x2="955" y2="154.4"/>
<text class="small" x="8" y="158.4">0</text>
<line class="grid" x1="65" y1="55.0" x2="955" y2="55.0"/>
<text class="small" x="8" y="59.0">40</text>
<text x="65" y="47.0">Jun 9 / 25C YES</text>
<polyline fill="none" stroke="#2ca02c" stroke-width="1.8" points="65.0,155.0 66.3,155.1 67.7,155.2 69.0,154.9 70.4,156.2 71.7,156.2 73.1,156.0 74.4,155.8 75.8,155.7 77.1,155.7 78.5,155.8 79.8,154.1 81.2,153.9 82.5,153.9 83.9,153.6 85.2,153.2 86.6,153.0 87.9,153.0 89.3,152.9 90.6,152.7 92.0,152.6 93.3,152.9 94.7,152.5 96.0,152.7 97.4,152.9 98.7,153.0 100.1,152.5 101.4,152.2 102.8,152.2 104.1,152.2 105.5,152.1 106.8,152.1 108.2,152.1 109.5,152.1 110.8,152.1 112.2,152.1 113.5,152.1 114.9,152.1 116.2,152.1 117.6,152.1 118.9,152.1 120.3,152.1 121.6,152.1 123.0,152.1 124.3,152.1 125.7,152.1 127.0,152.1 128.4,152.1 129.7,152.1 131.1,152.1 132.4,152.1 133.8,152.1 135.1,152.1 136.5,152.1 137.8,152.1 139.2,152.1 140.5,152.1 141.9,152.1 143.2,152.1 144.6,152.1 145.9,152.1 147.3,152.1 148.6,152.1 150.0,152.1 151.3,152.1 152.7,152.1 154.0,152.1 155.3,152.1 156.7,152.1 158.0,152.1 159.4,152.1 160.7,152.1 162.1,152.1 163.4,152.1 164.8,152.1 166.1,152.1 167.5,152.1 168.8,152.1 170.2,152.1 171.5,152.1 172.9,152.1 174.2,152.1 175.6,152.1 176.9,152.1 178.3,152.1 179.6,152.1 181.0,152.1 182.3,152.1 183.7,152.1 185.0,152.1 186.4,152.1 187.7,152.1 189.1,152.1 190.4,152.1 191.8,152.1 193.1,152.1 194.5,152.1 195.8,152.1 197.2,152.1 198.5,152.1 199.8,152.1 201.2,152.1 202.5,152.1 203.9,152.1 205.2,152.1 206.6,152.1 207.9,152.1 209.3,152.1 210.6,152.2 212.0,152.1 213.3,152.1 214.7,152.1 216.0,152.1 217.4,152.1 218.7,152.1 220.1,152.1 221.4,152.1 222.8,152.1 224.1,152.1 225.5,152.1 226.8,152.1 228.2,152.1 229.5,152.1 230.9,152.1 232.2,152.1 233.6,152.1 234.9,152.1 236.3,152.1 237.6,152.1 239.0,152.1 240.3,152.1 241.7,152.1 243.0,152.1 244.3,152.2 245.7,152.0 247.0,151.7 248.4,151.9 249.7,151.9 251.1,151.7 252.4,151.7 253.8,151.6 255.1,151.6 256.5,151.6 257.8,151.6 259.2,151.6 260.5,151.9 261.9,151.7 263.2,151.7 264.6,151.7 265.9,151.5 267.3,151.5 268.6,151.7 270.0,151.7 271.3,151.7 272.7,151.5 274.0,151.5 275.4,151.5 276.7,151.5 278.1,151.5 279.4,151.5 280.8,151.6 282.1,151.7 283.5,151.7 284.8,151.7 286.2,151.7 287.5,151.7 288.8,151.7 290.2,151.7 291.5,151.7 292.9,152.5 294.2,152.5 295.6,152.4 296.9,152.4 298.3,151.9 299.6,151.9 301.0,152.4 302.3,152.4 303.7,152.1 305.0,151.9 306.4,151.7 307.7,151.7 309.1,152.0 310.4,152.0 311.8,152.0 313.1,152.1 314.5,151.9 315.8,151.9 317.2,152.2 318.5,152.0 319.9,152.0 321.2,152.1 322.6,152.1 323.9,152.1 325.3,152.1 326.6,152.1 328.0,151.7 329.3,152.1 330.7,152.0 332.0,151.7 333.3,151.7 334.7,152.1 336.0,152.0 337.4,151.9 338.7,152.1 340.1,151.9 341.4,152.2 342.8,152.1 344.1,152.0 345.5,151.9 346.8,152.0 348.2,152.1 349.5,152.0 350.9,152.0 352.2,152.2 353.6,152.2 354.9,152.0 356.3,152.4 357.6,151.7 359.0,151.7 360.3,151.6 361.7,151.6 363.0,151.6 364.4,151.4 365.7,151.6 367.1,152.0 368.4,151.7 369.8,151.5 371.1,151.5 372.5,151.4 373.8,151.6 375.2,151.6 376.5,151.6 377.8,151.6 379.2,151.6 380.5,151.7 381.9,151.7 383.2,151.7 384.6,151.7 385.9,151.7 387.3,151.7 388.6,151.7 390.0,151.7 391.3,151.7 392.7,151.7 394.0,151.7 395.4,151.7 396.7,151.6 398.1,152.0 399.4,152.0 400.8,152.0 402.1,152.0 403.5,151.9 404.8,151.9 406.2,151.7 407.5,151.7 408.9,151.7 410.2,151.7 411.6,151.7 412.9,151.7 414.3,151.5 415.6,151.4 417.0,151.4 418.3,151.4 419.7,151.4 421.0,151.4 422.3,151.4 423.7,151.4 425.0,151.4 426.4,151.4 427.7,151.4 429.1,151.4 430.4,151.4 431.8,151.1 433.1,150.9 434.5,150.9 435.8,150.9 437.2,150.7 438.5,150.7 439.9,150.7 441.2,150.7 442.6,150.7 443.9,150.7 445.3,150.9 446.6,150.7 448.0,150.9 449.3,150.9 450.7,150.9 452.0,150.9 453.4,150.9 454.7,150.9 456.1,150.9 457.4,150.7 458.8,150.7 460.1,150.7 461.5,150.7 462.8,150.7 464.2,150.7 465.5,151.4 466.8,152.0 468.2,151.7 469.5,151.4 470.9,150.9 472.2,150.5 473.6,150.6 474.9,150.7 476.3,150.6 477.6,150.6 479.0,150.4 480.3,150.4 481.7,150.4 483.0,150.4 484.4,150.5 485.7,150.5 487.1,150.3 488.4,150.3 489.8,150.4 491.1,150.4 492.5,150.4 493.8,150.4 495.2,150.4 496.5,150.4 497.9,150.4 499.2,150.4 500.6,150.4 501.9,150.4 503.3,150.4 504.6,150.1 506.0,150.1 507.3,150.4 508.7,150.4 510.0,150.3 511.3,150.3 512.7,150.4 514.0,151.5 515.4,151.7 516.7,151.7 518.1,151.7 519.4,151.7 520.8,151.7 522.1,151.7 523.5,151.7 524.8,151.7 526.2,151.6 527.5,151.7 528.9,151.7 530.2,151.7 531.6,151.7 532.9,151.7 534.3,151.7 535.6,151.7 537.0,151.7 538.3,151.7 539.7,151.7 541.0,151.7 542.4,152.0 543.7,152.0 545.1,151.7 546.4,152.0 547.8,152.0 549.1,152.0 550.5,152.0 551.8,151.6 553.2,151.6 554.5,151.6 555.8,151.6 557.2,151.6 558.5,151.6 559.9,151.6 561.2,151.6 562.6,151.6 563.9,151.6 565.3,151.6 566.6,151.6 568.0,151.6 569.3,151.6 570.7,151.6 572.0,150.4 573.4,150.0 574.7,149.9 576.1,150.4 577.4,150.1 578.8,150.3 580.1,149.6 581.5,149.6 582.8,149.9 584.2,149.9 585.5,149.9 586.9,149.6 588.2,150.0 589.6,149.9 590.9,149.5 592.3,149.3 593.6,149.3 595.0,148.0 596.3,148.3 597.7,148.5 599.0,148.5 600.3,149.0 601.7,149.0 603.0,149.0 604.4,148.9 605.7,148.9 607.1,148.9 608.4,148.9 609.8,148.8 611.1,148.8 612.5,148.4 613.8,148.1 615.2,148.3 616.5,148.1 617.9,147.8 619.2,147.6 620.6,147.5 621.9,147.5 623.3,147.3 624.6,148.5 626.0,148.1 627.3,148.0 628.7,148.6 630.0,148.8 631.4,148.6 632.7,148.9 634.1,148.8 635.4,148.8 636.8,149.9 638.1,150.0 639.5,150.0 640.8,150.0 642.2,150.1 643.5,150.1 644.8,150.1 646.2,150.1 647.5,150.0 648.9,150.0 650.2,150.0 651.6,150.0 652.9,149.9 654.3,149.8 655.6,149.6 657.0,149.8 658.3,149.8 659.7,149.8 661.0,149.8 662.4,149.8 663.7,149.8 665.1,149.8 666.4,149.8 667.8,149.8 669.1,149.8 670.5,149.8 671.8,149.8 673.2,149.8 674.5,149.8 675.9,149.8 677.2,149.8 678.6,150.0 679.9,150.0 681.3,150.0 682.6,150.0 684.0,150.0 685.3,150.3 686.7,150.3 688.0,150.3 689.3,150.3 690.7,150.3 692.0,150.3 693.4,150.3 694.7,150.3 696.1,149.8 697.4,149.8 698.8,149.8 700.1,149.8 701.5,149.8 702.8,149.8 704.2,149.8 705.5,149.8 706.9,149.8 708.2,149.8 709.6,149.8 710.9,149.8 712.3,149.8 713.6,149.8 715.0,149.8 716.3,149.8 717.7,149.8 719.0,149.8 720.4,149.8 721.7,150.1 723.1,150.5 724.4,150.5 725.8,150.5 727.1,150.5 728.5,150.5 729.8,150.5 731.2,150.5 732.5,150.5 733.8,150.5 735.2,150.5 736.5,150.5 737.9,150.5 739.2,150.5 740.6,150.5 741.9,150.5 743.3,150.5 744.6,150.5 746.0,150.5 747.3,150.5 748.7,150.5 750.0,150.5 751.4,150.5 752.7,150.5 754.1,150.5 755.4,150.6 756.8,150.5 758.1,150.5 759.5,150.6 760.8,150.7 762.2,151.0 763.5,151.0 764.9,151.0 766.2,151.2 767.6,151.4 768.9,151.4 770.3,151.5 771.6,151.5 773.0,151.5 774.3,151.5 775.7,152.0 777.0,152.2 778.3,153.5 779.7,153.5 781.0,154.0 782.4,155.2 783.7,155.2 785.1,155.7 786.4,155.2 787.8,155.0 789.1,155.0 790.5,155.0 791.8,155.0 793.2,155.0 794.5,155.5 795.9,155.7 797.2,155.7 798.6,155.6 799.9,155.7 801.3,155.5 802.6,155.5 804.0,156.1 805.3,155.6 806.7,156.0 808.0,156.3 809.4,156.2 810.7,156.2 812.1,156.5 813.4,155.5 814.8,155.5 816.1,155.5 817.5,155.8 818.8,156.3 820.2,156.0 821.5,155.5 822.8,155.7 824.2,155.6 825.5,154.7 826.9,155.6 828.2,155.8 829.6,153.7 830.9,154.6 832.3,156.6 833.6,157.2 835.0,157.0 836.3,157.2 837.7,155.4 839.0,154.4 840.4,154.4 841.7,153.1 843.1,152.6 844.4,152.2 845.8,151.9 847.1,148.5 848.5,153.0 849.8,153.6 851.2,153.5 852.5,155.0 853.9,152.7 855.2,153.5 856.6,148.6 857.9,139.7 859.3,136.6 860.6,137.4 862.0,136.8 863.3,136.3 864.7,136.6 866.0,136.6 867.3,135.8 868.7,135.6 870.0,135.3 871.4,135.3 872.7,135.4 874.1,135.3 875.4,135.4 876.8,135.3 878.1,135.4 879.5,135.4 880.8,135.4 882.2,135.4 883.5,135.4 884.9,135.4 886.2,135.4 887.6,135.4 888.9,135.4 890.3,135.4 891.6,138.3 893.0,137.7 894.3,135.9 895.7,136.0 897.0,135.7 898.4,135.8 899.7,135.9 901.1,135.6 902.4,135.5 903.8,135.6 905.1,135.3 906.5,135.5 907.8,135.1 909.2,135.1 910.5,135.1 911.8,135.1 913.2,135.1 914.5,135.1 915.9,135.1 917.2,135.1 918.6,135.1 919.9,135.1 921.3,135.1 922.6,135.1 924.0,135.0 925.3,135.0 926.7,135.0 928.0,135.0 929.4,135.0 930.7,135.0 932.1,135.0 933.4,135.0 934.8,135.0 936.1,135.0 937.5,135.0 938.8,135.0 940.2,135.0 941.5,135.0 942.9,135.0 944.2,135.0 945.6,135.0 946.9,135.0 948.3,135.0 949.6,135.0 951.0,135.0 952.3,135.0 953.7,135.0 955.0,135.0"/>
<polyline fill="none" stroke="#1f77b4" stroke-width="1.8" points="65.0,154.4 66.3,154.4 67.7,154.4 69.0,154.4 70.4,154.4 71.7,155.0 73.1,155.2 74.4,155.4 75.8,155.5 77.1,155.5 78.5,155.4 79.8,157.1 81.2,157.1 82.5,157.1 83.9,158.8 85.2,158.5 86.6,158.2 87.9,158.2 89.3,158.1 90.6,158.0 92.0,157.8 93.3,158.1 94.7,157.7 96.0,158.0 97.4,158.1 98.7,158.2 100.1,157.7 101.4,157.5 102.8,157.5 104.1,157.5 105.5,157.3 106.8,157.3 108.2,157.3 109.5,157.3 110.8,157.3 112.2,157.3 113.5,157.3 114.9,157.3 116.2,157.3 117.6,157.3 118.9,157.3 120.3,157.3 121.6,157.3 123.0,157.3 124.3,157.3 125.7,157.3 127.0,157.3 128.4,157.3 129.7,157.3 131.1,157.3 132.4,157.3 133.8,157.3 135.1,157.3 136.5,157.3 137.8,157.3 139.2,157.3 140.5,157.3 141.9,157.3 143.2,157.3 144.6,157.3 145.9,157.3 147.3,157.3 148.6,157.3 150.0,157.3 151.3,157.3 152.7,157.3 154.0,157.3 155.3,157.3 156.7,157.3 158.0,157.3 159.4,157.3 160.7,157.3 162.1,157.3 163.4,157.3 164.8,157.3 166.1,157.3 167.5,157.3 168.8,157.3 170.2,157.3 171.5,157.3 172.9,157.3 174.2,157.3 175.6,157.3 176.9,157.3 178.3,157.3 179.6,157.3 181.0,157.3 182.3,157.3 183.7,157.3 185.0,157.3 186.4,157.3 187.7,157.3 189.1,157.3 190.4,157.3 191.8,157.3 193.1,157.3 194.5,157.3 195.8,157.3 197.2,157.3 198.5,157.3 199.8,157.3 201.2,157.3 202.5,157.3 203.9,157.3 205.2,157.3 206.6,157.3 207.9,157.3 209.3,157.3 210.6,157.5 212.0,157.3 213.3,157.3 214.7,157.3 216.0,157.3 217.4,157.3 218.7,157.3 220.1,157.3 221.4,157.3 222.8,157.3 224.1,157.3 225.5,157.3 226.8,157.3 228.2,157.3 229.5,157.3 230.9,157.3 232.2,157.3 233.6,157.3 234.9,157.3 236.3,157.3 237.6,157.3 239.0,157.3 240.3,157.3 241.7,157.3 243.0,157.3 244.3,157.5 245.7,157.2 247.0,157.0 248.4,157.1 249.7,157.1 251.1,157.0 252.4,157.0 253.8,156.8 255.1,156.8 256.5,156.8 257.8,156.8 259.2,156.8 260.5,157.1 261.9,157.0 263.2,157.0 264.6,157.0 265.9,156.7 267.3,156.7 268.6,157.0 270.0,157.0 271.3,157.0 272.7,156.7 274.0,156.7 275.4,156.7 276.7,156.7 278.1,156.7 279.4,156.7 280.8,156.8 282.1,157.0 283.5,157.0 284.8,157.0 286.2,157.0 287.5,157.0 288.8,157.0 290.2,157.0 291.5,157.0 292.9,157.7 294.2,157.7 295.6,157.6 296.9,157.6 298.3,157.1 299.6,157.1 301.0,157.6 302.3,157.6 303.7,157.3 305.0,157.1 306.4,157.0 307.7,157.0 309.1,157.2 310.4,157.2 311.8,157.2 313.1,157.3 314.5,157.1 315.8,157.1 317.2,157.5 318.5,157.2 319.9,157.2 321.2,157.3 322.6,157.3 323.9,157.3 325.3,157.3 326.6,157.3 328.0,157.0 329.3,157.3 330.7,157.2 332.0,157.0 333.3,157.0 334.7,157.3 336.0,157.2 337.4,157.1 338.7,157.3 340.1,157.1 341.4,157.5 342.8,157.3 344.1,157.2 345.5,157.1 346.8,157.2 348.2,157.3 349.5,157.2 350.9,157.2 352.2,157.5 353.6,157.5 354.9,157.2 356.3,157.6 357.6,157.0 359.0,157.0 360.3,156.8 361.7,156.8 363.0,156.8 364.4,156.6 365.7,156.8 367.1,157.2 368.4,157.0 369.8,156.7 371.1,156.7 372.5,156.6 373.8,156.8 375.2,156.8 376.5,156.8 377.8,156.8 379.2,156.8 380.5,157.0 381.9,157.0 383.2,157.0 384.6,157.0 385.9,157.0 387.3,157.0 388.6,157.0 390.0,157.0 391.3,157.0 392.7,157.0 394.0,157.0 395.4,157.0 396.7,156.8 398.1,157.2 399.4,157.2 400.8,157.2 402.1,157.2 403.5,157.1 404.8,157.1 406.2,157.0 407.5,157.0 408.9,157.0 410.2,157.0 411.6,157.0 412.9,157.0 414.3,156.7 415.6,156.6 417.0,156.6 418.3,156.6 419.7,156.6 421.0,156.6 422.3,156.6 423.7,156.6 425.0,156.6 426.4,156.6 427.7,156.6 429.1,156.6 430.4,156.6 431.8,156.3 433.1,156.1 434.5,156.1 435.8,156.1 437.2,156.0 438.5,156.0 439.9,156.0 441.2,156.0 442.6,156.0 443.9,156.0 445.3,156.1 446.6,156.0 448.0,156.1 449.3,156.1 450.7,156.1 452.0,156.1 453.4,156.1 454.7,156.1 456.1,156.1 457.4,156.0 458.8,156.0 460.1,156.0 461.5,156.0 462.8,156.0 464.2,156.0 465.5,156.6 466.8,157.6 468.2,157.6 469.5,157.6 470.9,157.6 472.2,157.6 473.6,157.6 474.9,157.6 476.3,157.6 477.6,157.6 479.0,157.6 480.3,157.6 481.7,157.6 483.0,157.6 484.4,157.6 485.7,157.6 487.1,157.6 488.4,157.6 489.8,157.6 491.1,157.6 492.5,157.6 493.8,157.6 495.2,157.6 496.5,157.6 497.9,157.6 499.2,157.6 500.6,157.6 501.9,157.6 503.3,157.6 504.6,157.6 506.0,157.6 507.3,157.6 508.7,157.6 510.0,157.6 511.3,157.6 512.7,157.6 514.0,157.6 515.4,158.0 516.7,158.0 518.1,158.0 519.4,158.0 520.8,158.0 522.1,158.0 523.5,158.0 524.8,158.0 526.2,158.1 527.5,158.0 528.9,158.0 530.2,158.0 531.6,158.0 532.9,158.0 534.3,158.0 535.6,158.0 537.0,158.0 538.3,158.0 539.7,158.0 541.0,158.0 542.4,157.7 543.7,157.7 545.1,158.0 546.4,157.7 547.8,157.7 549.1,157.7 550.5,157.7 551.8,158.1 553.2,158.1 554.5,158.1 555.8,158.1 557.2,158.1 558.5,158.1 559.9,158.1 561.2,158.1 562.6,158.1 563.9,158.1 565.3,158.1 566.6,158.1 568.0,158.1 569.3,158.1 570.7,158.1 572.0,159.3 573.4,160.3 574.7,160.3 576.1,160.3 577.4,160.3 578.8,160.3 580.1,160.3 581.5,160.3 582.8,160.3 584.2,160.3 585.5,160.3 586.9,160.3 588.2,160.3 589.6,160.3 590.9,160.3 592.3,160.3 593.6,160.3 595.0,160.7 596.3,160.9 597.7,161.2 599.0,161.2 600.3,161.7 601.7,161.7 603.0,161.7 604.4,161.6 605.7,161.6 607.1,161.6 608.4,161.6 609.8,161.4 611.1,161.4 612.5,161.1 613.8,160.8 615.2,160.9 616.5,160.8 617.9,160.5 619.2,160.3 620.6,160.2 621.9,160.2 623.3,160.0 624.6,161.6 626.0,161.6 627.3,161.6 628.7,161.6 630.0,161.6 631.4,161.6 632.7,161.6 634.1,161.6 635.4,161.6 636.8,162.3 638.1,162.2 639.5,162.2 640.8,162.2 642.2,162.1 643.5,162.1 644.8,162.1 646.2,162.1 647.5,162.2 648.9,162.2 650.2,162.2 651.6,162.2 652.9,162.3 654.3,162.4 655.6,162.6 657.0,162.4 658.3,162.4 659.7,162.4 661.0,162.4 662.4,162.4 663.7,162.4 665.1,162.4 666.4,162.4 667.8,162.4 669.1,162.4 670.5,162.4 671.8,162.4 673.2,162.4 674.5,162.4 675.9,162.4 677.2,162.4 678.6,162.2 679.9,162.2 681.3,162.2 682.6,162.2 684.0,162.2 685.3,161.9 686.7,161.9 688.0,161.9 689.3,161.9 690.7,161.9 692.0,161.9 693.4,161.9 694.7,161.9 696.1,162.4 697.4,162.4 698.8,162.4 700.1,162.4 701.5,162.4 702.8,162.4 704.2,162.4 705.5,162.4 706.9,162.4 708.2,162.4 709.6,162.4 710.9,162.4 712.3,162.4 713.6,162.4 715.0,162.4 716.3,162.4 717.7,162.4 719.0,162.4 720.4,162.4 721.7,162.1 723.1,161.7 724.4,161.7 725.8,161.7 727.1,161.7 728.5,161.7 729.8,161.7 731.2,161.7 732.5,161.7 733.8,161.7 735.2,161.7 736.5,161.7 737.9,161.7 739.2,161.7 740.6,161.7 741.9,161.7 743.3,161.7 744.6,161.7 746.0,161.7 747.3,161.7 748.7,161.7 750.0,161.7 751.4,161.7 752.7,161.7 754.1,161.7 755.4,161.6 756.8,161.7 758.1,161.7 759.5,161.6 760.8,161.4 762.2,161.2 763.5,161.2 764.9,161.2 766.2,160.9 767.6,160.8 768.9,160.8 770.3,160.7 771.6,160.7 773.0,160.7 774.3,160.7 775.7,160.2 777.0,160.0 778.3,158.8 779.7,158.8 781.0,158.2 782.4,154.6 783.7,154.6 785.1,152.6 786.4,154.6 787.8,155.6 789.1,155.6 790.5,155.6 791.8,155.6 793.2,155.6 794.5,153.6 795.9,152.6 797.2,152.6 798.6,153.1 799.9,152.6 801.3,153.6 802.6,153.6 804.0,151.1 805.3,153.9 806.7,152.0 808.0,150.1 809.4,150.7 810.7,150.7 812.1,149.5 813.4,154.9 814.8,154.9 816.1,154.9 817.5,153.4 818.8,151.4 820.2,152.9 821.5,155.2 822.8,154.5 824.2,154.9 825.5,157.8 826.9,156.3 828.2,155.6 829.6,162.6 830.9,161.1 832.3,155.4 833.6,152.9 835.0,153.9 836.3,152.9 837.7,161.8 839.0,165.6 840.4,165.6 841.7,168.3 843.1,168.8 844.4,169.2 845.8,169.5 847.1,172.9 848.5,173.8 849.8,174.3 851.2,174.4 852.5,172.9 853.9,177.5 855.2,177.4 856.6,182.2 857.9,182.5 859.3,180.4 860.6,182.5 862.0,182.6 863.3,182.0 864.7,182.5 866.0,182.5 867.3,181.0 868.7,180.5 870.0,180.0 871.4,180.0 872.7,180.1 874.1,179.9 875.4,180.0 876.8,180.0 878.1,180.0 879.5,180.2 880.8,180.2 882.2,180.2 883.5,180.1 884.9,180.1 886.2,180.2 887.6,180.2 888.9,180.1 890.3,180.1 891.6,185.9 893.0,187.3 894.3,185.5 895.7,185.8 897.0,185.2 898.4,185.6 899.7,185.6 901.1,185.1 902.4,184.9 903.8,185.1 905.1,184.4 906.5,184.8 907.8,184.2 909.2,184.1 910.5,184.2 911.8,184.0 913.2,184.1 914.5,184.2 915.9,184.1 917.2,184.1 918.6,184.1 919.9,184.1 921.3,184.1 922.6,184.1 924.0,183.9 925.3,183.9 926.7,183.9 928.0,183.9 929.4,183.9 930.7,183.9 932.1,183.9 933.4,183.9 934.8,183.9 936.1,183.9 937.5,183.9 938.8,183.9 940.2,183.9 941.5,183.9 942.9,183.9 944.2,183.9 945.6,183.9 946.9,183.9 948.3,183.9 949.6,183.9 951.0,183.9 952.3,183.9 953.7,183.9 955.0,183.9"/>
<polyline fill="none" stroke="#ff7f0e" stroke-width="1.8" points="65.0,154.4 66.3,154.4 67.7,154.4 69.0,154.4 70.4,154.4 71.7,155.0 73.1,154.7 74.4,154.6 75.8,154.5 77.1,154.5 78.5,154.6 79.8,153.6 81.2,153.6 82.5,153.6 83.9,154.4 85.2,154.7 86.6,155.0 87.9,155.0 89.3,155.1 90.6,155.2 92.0,155.4 93.3,155.1 94.7,155.5 96.0,155.2 97.4,155.1 98.7,155.0 100.1,155.5 101.4,155.7 102.8,155.7 104.1,155.7 105.5,155.8 106.8,155.8 108.2,155.8 109.5,155.8 110.8,155.8 112.2,155.8 113.5,155.8 114.9,155.8 116.2,155.8 117.6,155.8 118.9,155.8 120.3,155.8 121.6,155.8 123.0,155.8 124.3,155.8 125.7,155.8 127.0,155.8 128.4,155.8 129.7,155.8 131.1,155.8 132.4,155.8 133.8,155.8 135.1,155.8 136.5,155.8 137.8,155.8 139.2,155.8 140.5,155.8 141.9,155.8 143.2,155.8 144.6,155.8 145.9,155.8 147.3,155.8 148.6,155.8 150.0,155.8 151.3,155.8 152.7,155.8 154.0,155.8 155.3,155.8 156.7,155.8 158.0,155.8 159.4,155.8 160.7,155.8 162.1,155.8 163.4,155.8 164.8,155.8 166.1,155.8 167.5,155.8 168.8,155.8 170.2,155.8 171.5,155.8 172.9,155.8 174.2,155.8 175.6,155.8 176.9,155.8 178.3,155.8 179.6,155.8 181.0,155.8 182.3,155.8 183.7,155.8 185.0,155.8 186.4,155.8 187.7,155.8 189.1,155.8 190.4,155.8 191.8,155.8 193.1,155.8 194.5,155.8 195.8,155.8 197.2,155.8 198.5,155.8 199.8,155.8 201.2,155.8 202.5,155.8 203.9,155.8 205.2,155.8 206.6,155.8 207.9,155.8 209.3,155.8 210.6,155.7 212.0,155.8 213.3,155.8 214.7,155.8 216.0,155.8 217.4,155.8 218.7,155.8 220.1,155.8 221.4,155.8 222.8,155.8 224.1,155.8 225.5,155.8 226.8,155.8 228.2,155.8 229.5,155.8 230.9,155.8 232.2,155.8 233.6,155.8 234.9,155.8 236.3,155.8 237.6,155.8 239.0,155.8 240.3,155.8 241.7,155.8 243.0,155.8 244.3,155.7 245.7,156.0 247.0,156.2 248.4,156.1 249.7,156.1 251.1,156.2 252.4,156.2 253.8,156.3 255.1,156.3 256.5,156.3 257.8,156.3 259.2,156.3 260.5,156.1 261.9,156.2 263.2,156.2 264.6,156.2 265.9,156.5 267.3,156.5 268.6,156.2 270.0,156.2 271.3,156.2 272.7,156.5 274.0,156.5 275.4,156.5 276.7,156.5 278.1,156.5 279.4,156.5 280.8,156.3 282.1,156.2 283.5,156.2 284.8,156.2 286.2,156.2 287.5,156.2 288.8,156.2 290.2,156.2 291.5,156.2 292.9,155.5 294.2,155.5 295.6,155.6 296.9,155.6 298.3,156.1 299.6,156.1 301.0,155.6 302.3,155.6 303.7,155.8 305.0,156.1 306.4,156.2 307.7,156.2 309.1,156.0 310.4,156.0 311.8,156.0 313.1,155.8 314.5,156.1 315.8,156.1 317.2,155.7 318.5,156.0 319.9,156.0 321.2,155.8 322.6,155.8 323.9,155.8 325.3,155.8 326.6,155.8 328.0,156.2 329.3,155.8 330.7,156.0 332.0,156.2 333.3,156.2 334.7,155.8 336.0,156.0 337.4,156.1 338.7,155.8 340.1,156.1 341.4,155.7 342.8,155.8 344.1,156.0 345.5,156.1 346.8,156.0 348.2,155.8 349.5,156.0 350.9,156.0 352.2,155.7 353.6,155.7 354.9,156.0 356.3,155.6 357.6,156.2 359.0,156.2 360.3,156.3 361.7,156.3 363.0,156.3 364.4,156.6 365.7,156.3 367.1,156.0 368.4,156.2 369.8,156.5 371.1,156.5 372.5,156.6 373.8,156.3 375.2,156.3 376.5,156.3 377.8,156.3 379.2,156.3 380.5,156.2 381.9,156.2 383.2,156.2 384.6,156.2 385.9,156.2 387.3,156.2 388.6,156.2 390.0,156.2 391.3,156.2 392.7,156.2 394.0,156.2 395.4,156.2 396.7,156.3 398.1,156.0 399.4,156.0 400.8,156.0 402.1,156.0 403.5,156.1 404.8,156.1 406.2,156.2 407.5,156.2 408.9,156.2 410.2,156.2 411.6,156.2 412.9,156.2 414.3,156.5 415.6,156.6 417.0,156.6 418.3,156.6 419.7,156.6 421.0,156.6 422.3,156.6 423.7,156.6 425.0,156.6 426.4,156.6 427.7,156.6 429.1,156.6 430.4,156.6 431.8,156.8 433.1,157.1 434.5,157.1 435.8,157.1 437.2,157.2 438.5,157.2 439.9,157.2 441.2,157.2 442.6,157.2 443.9,157.2 445.3,157.1 446.6,157.2 448.0,157.1 449.3,157.1 450.7,157.1 452.0,157.1 453.4,157.1 454.7,157.1 456.1,157.1 457.4,157.2 458.8,157.2 460.1,157.2 461.5,157.2 462.8,157.2 464.2,157.2 465.5,156.6 466.8,156.3 468.2,156.3 469.5,156.3 470.9,156.3 472.2,156.3 473.6,156.3 474.9,156.3 476.3,156.3 477.6,156.3 479.0,156.3 480.3,156.3 481.7,156.3 483.0,156.3 484.4,156.3 485.7,156.3 487.1,156.3 488.4,156.3 489.8,156.3 491.1,156.3 492.5,156.3 493.8,156.3 495.2,156.3 496.5,156.3 497.9,156.3 499.2,156.3 500.6,156.3 501.9,156.3 503.3,156.3 504.6,156.3 506.0,156.3 507.3,156.3 508.7,156.3 510.0,156.3 511.3,156.3 512.7,156.3 514.0,156.3 515.4,156.7 516.7,156.7 518.1,156.7 519.4,156.7 520.8,156.7 522.1,156.7 523.5,156.7 524.8,156.7 526.2,156.6 527.5,156.7 528.9,156.7 530.2,156.7 531.6,156.7 532.9,156.7 534.3,156.7 535.6,156.7 537.0,156.7 538.3,156.7 539.7,156.7 541.0,156.7 542.4,157.0 543.7,157.0 545.1,156.7 546.4,157.0 547.8,157.0 549.1,157.0 550.5,157.0 551.8,156.6 553.2,156.6 554.5,156.6 555.8,156.6 557.2,156.6 558.5,156.6 559.9,156.6 561.2,156.6 562.6,156.6 563.9,156.6 565.3,156.6 566.6,156.6 568.0,156.6 569.3,156.6 570.7,156.6 572.0,155.4 573.4,155.6 574.7,155.6 576.1,155.6 577.4,155.6 578.8,155.6 580.1,155.6 581.5,155.6 582.8,155.6 584.2,155.6 585.5,155.6 586.9,155.6 588.2,155.6 589.6,155.6 590.9,155.6 592.3,155.6 593.6,155.6 595.0,156.0 596.3,155.7 597.7,155.5 599.0,155.5 600.3,155.0 601.7,155.0 603.0,155.0 604.4,155.1 605.7,155.1 607.1,155.1 608.4,155.1 609.8,155.2 611.1,155.2 612.5,155.6 613.8,155.8 615.2,155.7 616.5,155.8 617.9,156.2 619.2,156.3 620.6,156.5 621.9,156.5 623.3,156.7 624.6,156.1 626.0,156.1 627.3,156.1 628.7,156.1 630.0,156.1 631.4,156.1 632.7,156.1 634.1,156.1 635.4,156.1 636.8,156.8 638.1,157.0 639.5,157.0 640.8,157.0 642.2,157.1 643.5,157.1 644.8,157.1 646.2,157.1 647.5,157.0 648.9,157.0 650.2,157.0 651.6,157.0 652.9,156.8 654.3,156.7 655.6,156.6 657.0,156.7 658.3,156.7 659.7,156.7 661.0,156.7 662.4,156.7 663.7,156.7 665.1,156.7 666.4,156.7 667.8,156.7 669.1,156.7 670.5,156.7 671.8,156.7 673.2,156.7 674.5,156.7 675.9,156.7 677.2,156.7 678.6,157.0 679.9,157.0 681.3,157.0 682.6,157.0 684.0,157.0 685.3,157.2 686.7,157.2 688.0,157.2 689.3,157.2 690.7,157.2 692.0,157.2 693.4,157.2 694.7,157.2 696.1,156.7 697.4,156.7 698.8,156.7 700.1,156.7 701.5,156.7 702.8,156.7 704.2,156.7 705.5,156.7 706.9,156.7 708.2,156.7 709.6,156.7 710.9,156.7 712.3,156.7 713.6,156.7 715.0,156.7 716.3,156.7 717.7,156.7 719.0,156.7 720.4,156.7 721.7,157.1 723.1,157.5 724.4,157.5 725.8,157.5 727.1,157.5 728.5,157.5 729.8,157.5 731.2,157.5 732.5,157.5 733.8,157.5 735.2,157.5 736.5,157.5 737.9,157.5 739.2,157.5 740.6,157.5 741.9,157.5 743.3,157.5 744.6,157.5 746.0,157.5 747.3,157.5 748.7,157.5 750.0,157.5 751.4,157.5 752.7,157.5 754.1,157.5 755.4,157.6 756.8,157.5 758.1,157.5 759.5,157.6 760.8,157.7 762.2,158.0 763.5,158.0 764.9,158.0 766.2,158.2 767.6,158.3 768.9,158.3 770.3,158.5 771.6,158.5 773.0,158.5 774.3,158.5 775.7,159.0 777.0,159.2 778.3,160.6 779.7,160.6 781.0,161.7 782.4,165.6 783.7,165.6 785.1,167.5 786.4,165.6 787.8,164.6 789.1,164.6 790.5,164.6 791.8,164.6 793.2,164.6 794.5,166.5 795.9,167.5 797.2,167.5 798.6,167.0 799.9,167.5 801.3,166.5 802.6,166.5 804.0,169.0 805.3,166.3 806.7,168.2 808.0,170.0 809.4,169.4 810.7,169.4 812.1,170.6 813.4,166.0 814.8,166.0 816.1,166.0 817.5,167.5 818.8,169.5 820.2,168.0 821.5,166.4 822.8,167.2 824.2,166.8 825.5,164.6 826.9,166.5 828.2,167.3 829.6,161.3 830.9,163.3 832.3,169.5 833.6,172.0 835.0,171.0 836.3,172.0 837.7,165.6 839.0,163.1 840.4,163.1 841.7,160.8 843.1,160.3 844.4,160.0 845.8,159.6 847.1,156.2 848.5,157.6 849.8,158.8 851.2,158.7 852.5,160.2 853.9,155.8 855.2,157.5 856.6,152.6 857.9,153.1 859.3,158.2 860.6,157.1 862.0,158.2 863.3,159.6 864.7,159.1 866.0,159.1 867.3,160.6 868.7,161.1 870.0,161.6 871.4,161.5 872.7,161.5 874.1,161.7 875.4,161.5 876.8,161.6 878.1,161.5 879.5,161.4 880.8,161.4 882.2,161.4 883.5,161.4 884.9,161.4 886.2,161.4 887.6,161.3 888.9,161.4 890.3,161.4 891.6,155.7 893.0,158.2 894.3,160.0 895.7,160.2 897.0,160.8 898.4,160.4 899.7,160.4 901.1,160.9 902.4,161.1 903.8,160.9 905.1,161.6 906.5,161.2 907.8,161.8 909.2,161.9 910.5,161.8 911.8,162.0 913.2,161.9 914.5,161.8 915.9,161.9 917.2,161.9 918.6,161.9 919.9,161.9 921.3,161.9 922.6,161.9 924.0,162.1 925.3,162.1 926.7,162.1 928.0,162.1 929.4,162.1 930.7,162.1 932.1,162.1 933.4,162.1 934.8,162.1 936.1,162.1 937.5,162.1 938.8,162.1 940.2,162.1 941.5,162.1 942.9,162.1 944.2,162.1 945.6,162.1 946.9,162.1 948.3,162.1 949.6,162.1 951.0,162.1 952.3,162.1 953.7,162.1 955.0,162.1"/>
<polyline fill="none" stroke="#d62728" stroke-width="1.8" points="65.0,154.4 66.3,154.4 67.7,154.4 69.0,154.4 70.4,154.5 71.7,154.5 73.1,154.4 74.4,154.6 75.8,154.8 77.1,154.8 78.5,154.6 79.8,157.0 81.2,157.4 82.5,157.4 83.9,157.7 85.2,158.2 86.6,158.6 87.9,158.6 89.3,158.7 90.6,158.9 92.0,159.1 93.3,158.7 94.7,159.3 96.0,158.9 97.4,158.0 98.7,157.3 100.1,157.7 101.4,158.2 102.8,158.2 104.1,158.2 105.5,158.2 106.8,158.2 108.2,158.2 109.5,158.2 110.8,158.2 112.2,158.2 113.5,158.2 114.9,158.2 116.2,158.2 117.6,158.2 118.9,158.2 120.3,158.2 121.6,158.2 123.0,158.2 124.3,158.2 125.7,158.2 127.0,158.2 128.4,158.2 129.7,158.2 131.1,158.2 132.4,158.2 133.8,158.2 135.1,157.9 136.5,157.9 137.8,157.9 139.2,157.9 140.5,157.9 141.9,157.9 143.2,157.9 144.6,157.9 145.9,157.9 147.3,157.9 148.6,157.9 150.0,157.9 151.3,157.9 152.7,157.9 154.0,157.9 155.3,157.9 156.7,157.9 158.0,157.9 159.4,157.9 160.7,157.9 162.1,157.9 163.4,157.9 164.8,157.9 166.1,157.9 167.5,157.9 168.8,157.9 170.2,157.9 171.5,157.9 172.9,157.9 174.2,157.9 175.6,157.9 176.9,157.9 178.3,157.9 179.6,157.9 181.0,157.9 182.3,157.9 183.7,157.9 185.0,157.9 186.4,157.9 187.7,157.9 189.1,157.9 190.4,157.9 191.8,157.9 193.1,157.9 194.5,157.9 195.8,157.9 197.2,157.9 198.5,157.9 199.8,157.9 201.2,157.9 202.5,157.9 203.9,157.9 205.2,157.9 206.6,157.9 207.9,157.9 209.3,157.9 210.6,157.8 212.0,157.9 213.3,157.9 214.7,157.9 216.0,157.9 217.4,157.9 218.7,157.9 220.1,157.9 221.4,157.9 222.8,157.9 224.1,157.9 225.5,157.9 226.8,157.9 228.2,157.9 229.5,157.9 230.9,157.9 232.2,157.9 233.6,157.9 234.9,157.9 236.3,157.9 237.6,157.9 239.0,157.9 240.3,157.9 241.7,157.9 243.0,157.9 244.3,157.8 245.7,158.0 247.0,158.2 248.4,158.1 249.7,158.1 251.1,158.2 252.4,158.2 253.8,158.3 255.1,158.3 256.5,158.3 257.8,158.3 259.2,158.3 260.5,158.1 261.9,158.2 263.2,158.2 264.6,158.2 265.9,158.4 267.3,158.4 268.6,158.2 270.0,158.2 271.3,158.2 272.7,158.4 274.0,158.4 275.4,158.4 276.7,158.4 278.1,158.4 279.4,158.4 280.8,158.3 282.1,158.2 283.5,158.2 284.8,158.2 286.2,158.2 287.5,158.2 288.8,158.2 290.2,158.2 291.5,158.2 292.9,157.6 294.2,157.6 295.6,157.7 296.9,157.7 298.3,158.1 299.6,158.1 301.0,157.7 302.3,157.7 303.7,157.9 305.0,158.1 306.4,158.2 307.7,158.2 309.1,158.0 310.4,158.0 311.8,158.0 313.1,157.9 314.5,158.1 315.8,158.1 317.2,157.8 318.5,158.0 319.9,158.0 321.2,157.9 322.6,157.9 323.9,157.9 325.3,157.9 326.6,157.9 328.0,158.2 329.3,157.9 330.7,158.0 332.0,158.2 333.3,158.2 334.7,157.9 336.0,158.0 337.4,158.1 338.7,157.9 340.1,158.1 341.4,157.8 342.8,157.9 344.1,158.0 345.5,158.1 346.8,158.0 348.2,157.9 349.5,158.0 350.9,158.0 352.2,157.8 353.6,157.8 354.9,158.0 356.3,157.7 357.6,158.2 359.0,158.2 360.3,158.3 361.7,158.3 363.0,158.3 364.4,158.5 365.7,158.3 367.1,158.0 368.4,158.2 369.8,158.4 371.1,158.4 372.5,158.5 373.8,158.3 375.2,158.3 376.5,158.3 377.8,158.3 379.2,158.3 380.5,158.2 381.9,158.2 383.2,158.2 384.6,158.2 385.9,158.2 387.3,158.2 388.6,158.2 390.0,158.2 391.3,158.2 392.7,158.2 394.0,158.2 395.4,158.2 396.7,158.3 398.1,158.0 399.4,158.0 400.8,158.0 402.1,158.0 403.5,158.1 404.8,158.1 406.2,158.2 407.5,158.2 408.9,158.2 410.2,158.2 411.6,158.2 412.9,158.2 414.3,158.4 415.6,158.3 417.0,158.3 418.3,158.3 419.7,158.3 421.0,158.3 422.3,158.3 423.7,158.3 425.0,158.3 426.4,158.3 427.7,158.3 429.1,158.2 430.4,158.2 431.8,158.6 433.1,159.1 434.5,159.1 435.8,159.1 437.2,159.4 438.5,159.2 439.9,159.2 441.2,158.8 442.6,158.6 443.9,158.6 445.3,158.2 446.6,158.6 448.0,158.2 449.3,158.2 450.7,158.1 452.0,158.0 453.4,157.9 454.7,157.9 456.1,157.9 457.4,158.4 458.8,158.4 460.1,158.2 461.5,158.2 462.8,158.2 464.2,158.2 465.5,154.1 466.8,150.3 468.2,151.8 469.5,154.1 470.9,157.2 472.2,159.5 473.6,158.7 474.9,157.9 476.3,158.7 477.6,158.7 479.0,160.2 480.3,160.2 481.7,160.2 483.0,160.2 484.4,159.4 485.7,159.4 487.1,160.8 488.4,160.8 489.8,159.9 491.1,159.9 492.5,159.9 493.8,159.9 495.2,159.9 496.5,159.9 497.9,159.9 499.2,159.9 500.6,159.9 501.9,159.9 503.3,159.9 504.6,161.7 506.0,161.7 507.3,159.6 508.7,159.6 510.0,160.3 511.3,160.3 512.7,159.5 514.0,152.0 515.4,150.3 516.7,150.3 518.1,150.3 519.4,150.3 520.8,150.3 522.1,150.3 523.5,150.3 524.8,150.3 526.2,151.2 527.5,150.3 528.9,150.3 530.2,150.3 531.6,150.3 532.9,150.3 534.3,149.5 535.6,150.2 537.0,150.2 538.3,150.2 539.7,150.2 541.0,150.2 542.4,148.5 543.7,148.5 545.1,150.2 546.4,148.5 547.8,148.5 549.1,148.5 550.5,148.5 551.8,151.1 553.2,151.1 554.5,151.1 555.8,151.1 557.2,151.1 558.5,151.1 559.9,151.1 561.2,151.1 562.6,151.1 563.9,150.9 565.3,150.9 566.6,150.9 568.0,150.9 569.3,150.9 570.7,150.9 572.0,160.4 573.4,163.2 574.7,164.2 576.1,160.4 577.4,161.8 578.8,160.7 580.1,166.0 581.5,166.0 582.8,163.9 584.2,163.9 585.5,163.9 586.9,166.0 588.2,162.8 589.6,163.9 590.9,166.9 592.3,169.2 593.6,169.2 595.0,180.5 596.3,178.2 597.7,176.0 599.0,176.0 600.3,171.4 601.7,171.4 603.0,171.4 604.4,172.6 605.7,172.6 607.1,172.6 608.4,172.6 609.8,173.7 611.1,173.7 612.5,177.1 613.8,179.4 615.2,178.2 616.5,179.4 617.9,182.6 619.2,183.9 620.6,185.1 621.9,185.1 623.3,187.6 624.6,175.2 626.0,178.9 627.3,180.2 628.7,173.9 630.0,172.7 631.4,173.9 632.7,171.5 634.1,172.7 635.4,172.7 636.8,161.5 638.1,160.3 639.5,160.3 640.8,160.3 642.2,159.0 643.5,159.0 644.8,159.0 646.2,159.0 647.5,160.3 648.9,160.3 650.2,160.3 651.6,160.3 652.9,161.5 654.3,162.7 655.6,164.0 657.0,162.7 658.3,162.7 659.7,162.7 661.0,162.7 662.4,162.7 663.7,162.7 665.1,162.7 666.4,162.7 667.8,162.7 669.1,162.7 670.5,162.7 671.8,162.7 673.2,162.7 674.5,162.7 675.9,162.7 677.2,162.7 678.6,160.3 679.9,160.3 681.3,160.3 682.6,160.3 684.0,160.3 685.3,157.8 686.7,157.8 688.0,157.8 689.3,157.8 690.7,157.8 692.0,157.8 693.4,157.8 694.7,157.8 696.1,162.7 697.4,162.7 698.8,162.7 700.1,162.7 701.5,162.7 702.8,162.7 704.2,162.7 705.5,162.7 706.9,162.7 708.2,162.7 709.6,162.7 710.9,162.7 712.3,162.7 713.6,162.7 715.0,162.7 716.3,162.7 717.7,162.7 719.0,162.7 720.4,162.7 721.7,159.0 723.1,155.3 724.4,155.3 725.8,155.3 727.1,155.3 728.5,155.3 729.8,155.3 731.2,155.3 732.5,155.3 733.8,155.3 735.2,155.3 736.5,155.3 737.9,155.3 739.2,155.3 740.6,155.3 741.9,155.3 743.3,155.1 744.6,155.1 746.0,155.1 747.3,155.1 748.7,155.1 750.0,155.1 751.4,155.1 752.7,155.1 754.1,155.1 755.4,153.9 756.8,155.1 758.1,155.1 759.5,153.9 760.8,152.7 762.2,150.4 763.5,150.4 764.9,150.4 766.2,148.0 767.6,146.8 768.9,146.8 770.3,145.7 771.6,145.6 773.0,145.6 774.3,145.6 775.7,140.6 777.0,138.1 778.3,126.6 779.7,126.5 781.0,121.6 782.4,110.0 783.7,109.9 785.1,105.0 786.4,109.9 787.8,111.6 789.1,111.3 790.5,111.0 791.8,111.0 793.2,110.6 794.5,106.1 795.9,103.8 797.2,103.7 798.6,104.7 799.9,103.7 801.3,105.3 802.6,105.3 804.0,100.7 805.3,102.7 806.7,100.8 808.0,99.0 809.4,99.6 810.7,99.6 812.1,97.9 813.4,99.0 814.8,99.0 816.1,96.8 817.5,95.0 818.8,92.6 820.2,94.5 821.5,97.4 822.8,95.8 824.2,95.8 825.5,103.2 826.9,94.4 828.2,91.8 829.6,112.2 830.9,103.3 832.3,87.9 833.6,83.7 835.0,82.3 836.3,81.9 837.7,88.7 839.0,93.8 840.4,93.2 841.7,100.5 843.1,100.3 844.4,104.0 845.8,107.7 847.1,138.3 848.5,94.4 849.8,87.6 851.2,87.8 852.5,75.1 853.9,91.8 855.2,86.4 856.6,128.3 857.9,213.1 859.3,242.4 860.6,226.8 862.0,230.1 863.3,233.3 864.7,231.5 866.0,231.4 867.3,238.1 868.7,240.6 870.0,240.8 871.4,240.4 872.7,240.3 874.1,240.7 875.4,240.4 876.8,240.4 878.1,240.2 879.5,239.9 880.8,239.7 882.2,239.7 883.5,239.0 884.9,238.7 886.2,238.4 887.6,238.1 888.9,238.5 890.3,238.5 891.6,212.9 893.0,215.3 894.3,227.6 895.7,227.4 897.0,228.8 898.4,227.6 899.7,227.3 901.1,228.5 902.4,229.7 903.8,228.6 905.1,231.7 906.5,229.8 907.8,232.2 909.2,232.3 910.5,231.9 911.8,232.5 913.2,232.1 914.5,231.7 915.9,232.0 917.2,231.9 918.6,231.8 919.9,231.8 921.3,231.8 922.6,231.8 924.0,232.2 925.3,232.2 926.7,232.4 928.0,232.4 929.4,232.4 930.7,232.4 932.1,232.4 933.4,232.4 934.8,232.4 936.1,232.4 937.5,232.4 938.8,232.4 940.2,232.4 941.5,232.4 942.9,232.4 944.2,232.4 945.6,232.4 946.9,232.4 948.3,232.4 949.6,232.4 951.0,232.4 952.3,232.4 953.7,232.4 955.0,232.4"/>
<line x1="735" y1="66.0" x2="760" y2="66.0" stroke="#2ca02c" stroke-width="2"/>
<text class="small" x="767" y="70.0">buy hold first ask</text>
<line x1="735" y1="82.0" x2="760" y2="82.0" stroke="#1f77b4" stroke-width="2"/>
<text class="small" x="767" y="86.0">momentum taker</text>
<line x1="735" y1="98.0" x2="760" y2="98.0" stroke="#ff7f0e" stroke-width="2"/>
<text class="small" x="767" y="102.0">contrarian taker</text>
<line x1="735" y1="114.0" x2="760" y2="114.0" stroke="#d62728" stroke-width="2"/>
<text class="small" x="767" y="118.0">maker bbo</text>
<line class="grid" x1="65" y1="505.0" x2="955" y2="505.0"/>
<text class="small" x="8" y="509.0">-63</text>
<line class="grid" x1="65" y1="372.6" x2="955" y2="372.6"/>
<text class="small" x="8" y="376.6">0</text>
<line class="grid" x1="65" y1="297.5" x2="955" y2="297.5"/>
<text class="small" x="8" y="301.5">36</text>
<text x="65" y="289.5">Jun 10 / 28C YES</text>
<polyline fill="none" stroke="#2ca02c" stroke-width="1.8" points="65.0,372.4 66.3,372.0 67.7,372.2 69.0,372.2 70.4,372.2 71.7,372.2 73.1,372.2 74.4,372.1 75.8,372.1 77.1,372.1 78.5,371.9 79.8,371.9 81.2,371.9 82.5,370.9 83.9,370.2 85.2,370.1 86.5,370.1 87.9,370.4 89.2,370.4 90.6,370.4 91.9,370.5 93.3,370.1 94.6,370.1 96.0,370.0 97.3,370.0 98.7,370.0 100.0,369.9 101.4,370.7 102.7,370.6 104.0,370.6 105.4,370.7 106.7,370.7 108.1,370.7 109.4,370.7 110.8,370.7 112.1,370.7 113.5,370.6 114.8,370.6 116.2,370.6 117.5,370.6 118.9,370.6 120.2,370.6 121.6,370.6 122.9,370.6 124.2,370.5 125.6,370.5 126.9,370.6 128.3,370.6 129.6,370.5 131.0,370.5 132.3,370.6 133.7,370.6 135.0,370.6 136.4,370.6 137.7,370.6 139.1,370.6 140.4,370.6 141.7,370.6 143.1,370.6 144.4,370.6 145.8,370.6 147.1,370.6 148.5,370.6 149.8,370.6 151.2,370.5 152.5,370.5 153.9,370.5 155.2,370.5 156.6,370.5 157.9,370.5 159.3,370.5 160.6,370.5 161.9,370.5 163.3,370.6 164.6,370.5 166.0,370.5 167.3,370.6 168.7,370.6 170.0,370.6 171.4,370.6 172.7,370.6 174.1,371.1 175.4,371.2 176.8,371.1 178.1,371.2 179.4,371.1 180.8,371.0 182.1,371.0 183.5,370.9 184.8,370.9 186.2,370.9 187.5,370.8 188.9,370.9 190.2,370.9 191.6,371.6 192.9,371.6 194.3,371.5 195.6,371.4 197.0,371.4 198.3,371.4 199.6,371.3 201.0,371.3 202.3,371.3 203.7,371.3 205.0,371.3 206.4,371.3 207.7,371.3 209.1,371.3 210.4,371.3 211.8,371.0 213.1,371.0 214.5,371.1 215.8,371.1 217.1,371.1 218.5,371.1 219.8,371.1 221.2,371.0 222.5,371.0 223.9,371.0 225.2,370.9 226.6,370.9 227.9,371.2 229.3,371.3 230.6,371.1 232.0,371.1 233.3,371.1 234.7,371.0 236.0,370.4 237.3,370.2 238.7,370.4 240.0,370.4 241.4,370.4 242.7,370.5 244.1,371.0 245.4,370.6 246.8,370.5 248.1,370.6 249.5,370.5 250.8,370.5 252.2,370.6 253.5,370.6 254.8,370.6 256.2,370.6 257.5,370.5 258.9,370.5 260.2,370.5 261.6,370.5 262.9,370.7 264.3,370.7 265.6,370.7 267.0,370.7 268.3,370.5 269.7,370.5 271.0,370.5 272.4,370.6 273.7,370.6 275.0,370.6 276.4,370.6 277.7,371.0 279.1,370.8 280.4,371.1 281.8,371.1 283.1,370.9 284.5,370.9 285.8,370.9 287.2,371.1 288.5,370.9 289.9,370.9 291.2,370.9 292.5,370.9 293.9,371.1 295.2,371.0 296.6,371.1 297.9,371.1 299.3,370.9 300.6,370.9 302.0,370.9 303.3,370.9 304.7,370.2 306.0,370.2 307.4,370.2 308.7,370.2 310.1,369.9 311.4,370.0 312.7,370.1 314.1,370.1 315.4,370.1 316.8,370.1 318.1,369.9 319.5,369.8 320.8,370.0 322.2,370.1 323.5,370.1 324.9,370.1 326.2,369.9 327.6,369.9 328.9,369.9 330.2,369.9 331.6,370.0 332.9,370.0 334.3,370.0 335.6,370.0 337.0,370.0 338.3,370.1 339.7,370.1 341.0,370.1 342.4,370.0 343.7,370.0 345.1,370.0 346.4,370.1 347.8,370.1 349.1,370.1 350.4,370.1 351.8,370.1 353.1,370.1 354.5,370.1 355.8,370.1 357.2,370.1 358.5,370.0 359.9,370.0 361.2,370.0 362.6,370.0 363.9,370.0 365.3,370.0 366.6,370.0 368.0,370.0 369.3,370.0 370.6,369.9 372.0,369.8 373.3,369.7 374.7,369.7 376.0,369.8 377.4,369.9 378.7,369.9 380.1,369.9 381.4,369.8 382.8,369.9 384.1,370.0 385.5,370.0 386.8,369.9 388.1,369.9 389.5,369.9 390.8,370.0 392.2,370.0 393.5,369.8 394.9,369.8 396.2,369.9 397.6,369.9 398.9,370.0 400.3,370.0 401.6,370.0 403.0,369.8 404.3,369.9 405.7,369.8 407.0,369.8 408.3,369.7 409.7,369.8 411.0,369.6 412.4,369.6 413.7,369.7 415.1,369.7 416.4,369.8 417.8,370.0 419.1,370.0 420.5,370.6 421.8,370.7 423.2,370.6 424.5,370.6 425.8,370.5 427.2,370.5 428.5,370.2 429.9,370.5 431.2,370.7 432.6,370.7 433.9,370.2 435.3,370.4 436.6,370.2 438.0,370.2 439.3,370.2 440.7,370.4 442.0,370.2 443.4,370.1 444.7,370.1 446.0,370.1 447.4,370.1 448.7,370.1 450.1,370.0 451.4,370.0 452.8,370.0 454.1,370.0 455.5,370.0 456.8,370.0 458.2,370.0 459.5,370.0 460.9,370.0 462.2,370.0 463.5,370.0 464.9,370.0 466.2,370.0 467.6,370.0 468.9,370.0 470.3,370.2 471.6,370.4 473.0,369.8 474.3,369.9 475.7,369.8 477.0,369.7 478.4,369.7 479.7,369.7 481.1,370.2 482.4,370.2 483.7,369.9 485.1,369.9 486.4,369.9 487.8,369.8 489.1,369.8 490.5,369.8 491.8,370.2 493.2,370.2 494.5,369.8 495.9,369.6 497.2,369.6 498.6,369.6 499.9,369.6 501.2,369.6 502.6,369.5 503.9,369.5 505.3,369.5 506.6,369.8 508.0,369.8 509.3,369.8 510.7,369.8 512.0,369.9 513.4,369.9 514.7,369.6 516.1,369.6 517.4,369.6 518.8,369.6 520.1,369.6 521.4,369.6 522.8,369.6 524.1,369.6 525.5,369.6 526.8,369.6 528.2,369.6 529.5,369.6 530.9,369.6 532.2,369.6 533.6,369.8 534.9,369.8 536.3,369.7 537.6,369.6 538.9,369.8 540.3,369.8 541.6,369.6 543.0,369.8 544.3,369.7 545.7,369.5 547.0,369.5 548.4,369.5 549.7,369.5 551.1,369.5 552.4,369.5 553.8,369.2 555.1,369.2 556.5,369.2 557.8,369.1 559.1,369.0 560.5,369.0 561.8,369.1 563.2,369.2 564.5,369.2 565.9,369.5 567.2,368.9 568.6,369.2 569.9,369.2 571.3,369.1 572.6,369.1 574.0,369.2 575.3,369.0 576.6,369.0 578.0,369.3 579.3,369.3 580.7,369.4 582.0,369.3 583.4,369.4 584.7,369.4 586.1,369.5 587.4,369.4 588.8,369.4 590.1,368.8 591.5,368.9 592.8,367.6 594.2,367.5 595.5,368.2 596.8,367.5 598.2,367.3 599.5,367.5 600.9,367.6 602.2,367.7 603.6,368.1 604.9,368.1 606.3,368.0 607.6,368.2 609.0,368.1 610.3,368.4 611.7,368.4 613.0,368.4 614.3,368.4 615.7,368.4 617.0,368.4 618.4,368.5 619.7,368.3 621.1,368.3 622.4,368.4 623.8,368.4 625.1,368.3 626.5,367.9 627.8,368.0 629.2,368.0 630.5,368.0 631.9,368.0 633.2,368.1 634.5,368.3 635.9,368.2 637.2,368.2 638.6,368.3 639.9,368.3 641.3,368.4 642.6,367.3 644.0,367.3 645.3,367.5 646.7,367.3 648.0,367.5 649.4,367.5 650.7,367.5 652.0,367.5 653.4,367.5 654.7,367.5 656.1,367.6 657.4,367.6 658.8,367.5 660.1,367.5 661.5,367.5 662.8,367.5 664.2,367.5 665.5,367.5 666.9,367.5 668.2,367.5 669.6,367.5 670.9,367.5 672.2,367.5 673.6,367.5 674.9,367.3 676.3,367.3 677.6,367.3 679.0,367.3 680.3,367.3 681.7,367.3 683.0,367.3 684.4,367.3 685.7,367.3 687.1,367.3 688.4,367.3 689.8,367.3 691.1,367.3 692.4,367.3 693.8,367.3 695.1,367.3 696.5,367.3 697.8,367.3 699.2,367.3 700.5,367.3 701.9,367.3 703.2,367.3 704.6,367.3 705.9,367.3 707.3,367.3 708.6,367.3 709.9,367.3 711.3,367.3 712.6,367.3 714.0,367.3 715.3,367.3 716.7,367.3 718.0,367.3 719.4,367.3 720.7,367.3 722.1,367.6 723.4,367.7 724.8,367.7 726.1,367.7 727.5,367.7 728.8,368.2 730.1,368.1 731.5,368.0 732.8,368.0 734.2,368.0 735.5,368.0 736.9,368.0 738.2,368.0 739.6,368.0 740.9,368.0 742.3,368.1 743.6,368.2 745.0,368.4 746.3,368.4 747.6,368.4 749.0,368.4 750.3,368.4 751.7,368.3 753.0,368.4 754.4,368.4 755.7,368.4 757.1,368.4 758.4,368.6 759.8,368.8 761.1,368.7 762.5,368.8 763.8,368.9 765.2,368.8 766.5,369.0 767.8,369.0 769.2,368.8 770.5,368.8 771.9,368.8 773.2,368.8 774.6,368.8 775.9,369.1 777.3,369.4 778.6,369.6 780.0,370.1 781.3,370.4 782.7,370.1 784.0,370.0 785.3,369.6 786.7,369.5 788.0,367.3 789.4,367.5 790.7,367.9 792.1,367.9 793.4,368.1 794.8,368.1 796.1,368.0 797.5,367.7 798.8,367.4 800.2,367.2 801.5,367.1 802.9,367.2 804.2,367.3 805.5,367.7 806.9,368.0 808.2,368.0 809.6,368.2 810.9,368.1 812.3,367.9 813.6,367.6 815.0,367.6 816.3,367.9 817.7,367.5 819.0,367.2 820.4,366.9 821.7,366.9 823.0,367.3 824.4,367.2 825.7,366.6 827.1,366.7 828.4,366.7 829.8,366.7 833.8,366.7 835.2,366.3 836.5,365.2 837.9,364.8 839.2,363.4 840.6,363.2 841.9,363.2 843.2,364.6 844.6,364.6 845.9,365.1 847.3,365.1 848.6,363.9 850.0,360.9 851.3,360.2 852.7,360.2 854.0,360.7 855.4,360.4 856.7,359.8 858.1,360.2 859.4,360.9 860.7,358.7 862.1,359.1 863.4,359.4 864.8,359.2 866.1,358.6 867.5,359.3 868.8,359.0 870.2,359.2 871.5,359.0 872.9,359.0 874.2,358.7 875.6,358.4 876.9,358.3 878.3,358.2 879.6,357.8 880.9,357.7 882.3,357.3 883.6,357.4 885.0,357.3 886.3,357.3 887.7,357.3 889.0,357.1 890.4,357.1 891.7,357.3 893.1,356.8 894.4,356.7 895.8,356.7 897.1,356.7 898.4,356.7 899.8,356.7 901.1,356.7 902.5,356.6 903.8,356.6 905.2,356.6 906.5,356.6 907.9,356.6 909.2,356.6 910.6,356.6 911.9,356.6 913.3,356.6 914.6,356.6 916.0,356.6 917.3,356.6 918.6,356.6 920.0,356.6 921.3,356.6 922.7,356.6 924.0,356.6 925.4,356.6 926.7,356.6 928.1,356.6 929.4,356.6 930.8,356.6 932.1,356.6 933.5,356.6 934.8,356.6 936.1,356.6 937.5,356.6 938.8,356.6 940.2,356.6 941.5,356.6 942.9,356.6 944.2,356.6 945.6,356.6 946.9,356.6 948.3,356.6 949.6,356.6 951.0,356.6 952.3,356.6 953.7,356.6 955.0,356.6"/>
<polyline fill="none" stroke="#1f77b4" stroke-width="1.8" points="65.0,372.6 66.3,373.5 67.7,373.7 69.0,373.7 70.4,373.7 71.7,373.7 73.1,373.7 74.4,373.6 75.8,373.6 77.1,373.6 78.5,373.4 79.8,373.4 81.2,373.4 82.5,372.3 83.9,372.2 85.2,372.0 86.5,372.0 87.9,372.4 89.2,372.4 90.6,372.4 91.9,372.6 93.3,372.0 94.6,372.0 96.0,371.8 97.3,371.8 98.7,371.8 100.0,371.6 101.4,373.6 102.7,373.5 104.0,373.5 105.4,373.6 106.7,373.6 108.1,373.6 109.4,373.6 110.8,373.6 112.1,373.6 113.5,373.5 114.8,373.5 116.2,373.5 117.5,373.5 118.9,373.5 120.2,373.5 121.6,373.5 122.9,373.5 124.2,373.4 125.6,373.4 126.9,373.5 128.3,373.5 129.6,373.4 131.0,373.4 132.3,373.5 133.7,373.5 135.0,373.5 136.4,373.5 137.7,373.5 139.1,373.5 140.4,373.5 141.7,373.5 143.1,373.5 144.4,373.5 145.8,373.5 147.1,373.5 148.5,373.5 149.8,373.5 151.2,373.4 152.5,373.4 153.9,373.4 155.2,373.4 156.6,373.4 157.9,373.4 159.3,373.4 160.6,373.4 161.9,373.4 163.3,373.5 164.6,373.4 166.0,373.4 167.3,373.5 168.7,373.5 170.0,373.5 171.4,373.5 172.7,373.5 174.1,374.0 175.4,374.9 176.8,374.9 178.1,374.9 179.4,374.9 180.8,374.9 182.1,374.9 183.5,374.9 184.8,374.9 186.2,374.9 187.5,374.9 188.9,374.9 190.2,374.9 191.6,374.9 192.9,374.9 194.3,374.9 195.6,374.9 197.0,374.9 198.3,374.9 199.6,374.9 201.0,374.9 202.3,374.9 203.7,374.9 205.0,374.9 206.4,374.9 207.7,374.9 209.1,374.9 210.4,374.9 211.8,374.9 213.1,374.9 214.5,374.9 215.8,374.9 217.1,374.9 218.5,374.9 219.8,374.9 221.2,374.9 222.5,374.9 223.9,374.9 225.2,374.9 226.6,374.9 227.9,374.9 229.3,374.9 230.6,374.9 232.0,374.9 233.3,374.9 234.7,374.9 236.0,375.4 237.3,375.3 238.7,375.4 240.0,375.4 241.4,375.4 242.7,375.5 244.1,376.0 245.4,375.6 246.8,375.5 248.1,375.6 249.5,375.5 250.8,375.5 252.2,375.6 253.5,375.6 254.8,375.6 256.2,375.6 257.5,375.5 258.9,375.5 260.2,375.5 261.6,375.5 262.9,375.7 264.3,375.7 265.6,375.7 267.0,375.7 268.3,375.5 269.7,375.5 271.0,375.5 272.4,375.6 273.7,375.6 275.0,375.6 276.4,375.6 277.7,376.0 279.1,375.8 280.4,376.1 281.8,376.1 283.1,375.9 284.5,375.9 285.8,375.9 287.2,376.1 288.5,375.9 289.9,375.9 291.2,375.9 292.5,375.9 293.9,376.1 295.2,376.0 296.6,376.1 297.9,376.1 299.3,375.9 300.6,375.9 302.0,375.9 303.3,375.9 304.7,375.3 306.0,375.3 307.4,375.3 308.7,375.3 310.1,374.9 311.4,375.0 312.7,375.1 314.1,375.1 315.4,375.1 316.8,375.1 318.1,374.9 319.5,374.8 320.8,375.0 322.2,375.1 323.5,375.1 324.9,375.1 326.2,374.9 327.6,374.9 328.9,374.9 330.2,374.9 331.6,375.0 332.9,375.0 334.3,375.0 335.6,375.0 337.0,375.0 338.3,375.1 339.7,375.1 341.0,375.1 342.4,375.0 343.7,375.0 345.1,375.0 346.4,375.1 347.8,375.1 349.1,375.1 350.4,375.1 351.8,375.1 353.1,375.1 354.5,375.1 355.8,375.1 357.2,375.1 358.5,375.0 359.9,375.0 361.2,375.0 362.6,375.0 363.9,375.0 365.3,375.0 366.6,375.0 368.0,375.0 369.3,375.0 370.6,374.9 372.0,374.8 373.3,374.7 374.7,374.7 376.0,374.8 377.4,374.9 378.7,374.9 380.1,374.9 381.4,374.8 382.8,374.9 384.1,375.0 385.5,375.0 386.8,374.9 388.1,374.9 389.5,374.9 390.8,375.0 392.2,375.0 393.5,374.8 394.9,374.8 396.2,374.9 397.6,374.9 398.9,375.0 400.3,375.0 401.6,375.0 403.0,374.8 404.3,374.9 405.7,374.8 407.0,374.8 408.3,374.7 409.7,374.8 411.0,374.6 412.4,374.6 413.7,374.7 415.1,374.7 416.4,374.8 417.8,375.0 419.1,375.0 420.5,376.2 421.8,376.2 423.2,376.2 424.5,376.2 425.8,376.2 427.2,376.2 428.5,376.2 429.9,376.2 431.2,376.2 432.6,376.2 433.9,376.2 435.3,376.2 436.6,376.2 438.0,376.2 439.3,376.2 440.7,376.2 442.0,376.2 443.4,376.2 444.7,376.2 446.0,376.2 447.4,376.2 448.7,376.2 450.1,376.2 451.4,376.2 452.8,376.2 454.1,376.2 455.5,376.2 456.8,376.2 458.2,376.2 459.5,376.2 460.9,376.2 462.2,376.2 463.5,376.2 464.9,376.2 466.2,376.2 467.6,376.2 468.9,376.2 470.3,376.2 471.6,376.2 473.0,376.2 474.3,376.2 475.7,376.2 477.0,376.2 478.4,376.2 479.7,376.2 481.1,376.7 482.4,376.7 483.7,377.0 485.1,377.0 486.4,377.0 487.8,377.1 489.1,377.1 490.5,377.1 491.8,376.7 493.2,376.7 494.5,377.1 495.9,377.6 497.2,377.6 498.6,377.6 499.9,377.6 501.2,377.6 502.6,377.6 503.9,377.6 505.3,377.6 506.6,377.6 508.0,377.6 509.3,377.6 510.7,377.6 512.0,377.6 513.4,377.6 514.7,377.6 516.1,377.6 517.4,377.6 518.8,377.6 520.1,377.6 521.4,377.6 522.8,377.6 524.1,377.6 525.5,377.6 526.8,377.6 528.2,377.6 529.5,377.6 530.9,377.6 532.2,377.6 533.6,377.6 534.9,377.6 536.3,377.6 537.6,377.6 538.9,377.6 540.3,377.6 541.6,377.6 543.0,377.6 544.3,377.6 545.7,377.6 547.0,377.6 548.4,377.6 549.7,377.6 551.1,377.6 552.4,377.6 553.8,377.6 555.1,377.6 556.5,377.6 557.8,377.6 559.1,377.6 560.5,377.6 561.8,377.6 563.2,377.6 564.5,377.6 565.9,377.6 567.2,377.6 568.6,377.6 569.9,377.6 571.3,377.6 572.6,377.6 574.0,377.6 575.3,377.6 576.6,377.6 578.0,377.6 579.3,377.6 580.7,377.6 582.0,377.6 583.4,377.6 584.7,377.6 586.1,377.6 587.4,377.6 588.8,377.6 590.1,377.6 591.5,377.6 592.8,378.3 594.2,378.2 595.5,379.3 596.8,379.3 598.2,379.8 599.5,380.0 600.9,380.2 602.2,380.3 603.6,380.6 604.9,380.6 606.3,380.5 607.6,380.7 609.0,380.6 610.3,380.9 611.7,380.9 613.0,380.9 614.3,380.9 615.7,380.9 617.0,380.9 618.4,381.0 619.7,380.8 621.1,380.8 622.4,380.9 623.8,380.9 625.1,380.8 626.5,380.4 627.8,380.5 629.2,380.5 630.5,380.5 631.9,380.5 633.2,380.6 634.5,380.8 635.9,380.7 637.2,380.7 638.6,380.8 639.9,380.8 641.3,380.9 642.6,380.2 644.0,380.2 645.3,380.6 646.7,380.2 648.0,380.6 649.4,380.6 650.7,380.6 652.0,380.6 653.4,380.6 654.7,380.6 656.1,380.8 657.4,380.8 658.8,380.6 660.1,380.6 661.5,380.6 662.8,380.6 664.2,380.6 665.5,380.6 666.9,380.6 668.2,380.6 669.6,380.6 670.9,380.6 672.2,380.6 673.6,380.6 674.9,380.2 676.3,380.2 677.6,380.2 679.0,380.2 680.3,380.2 681.7,380.2 683.0,380.2 684.4,380.2 685.7,380.2 687.1,380.2 688.4,380.2 689.8,380.2 691.1,380.2 692.4,380.2 693.8,380.2 695.1,380.2 696.5,380.2 697.8,380.2 699.2,380.2 700.5,380.2 701.9,380.2 703.2,380.2 704.6,380.2 705.9,380.2 707.3,380.2 708.6,380.2 709.9,380.2 711.3,380.2 712.6,380.2 714.0,380.2 715.3,380.2 716.7,380.2 718.0,380.2 719.4,380.2 720.7,380.2 722.1,380.8 723.4,381.0 724.8,381.0 726.1,381.0 727.5,381.0 728.8,381.8 730.1,381.6 731.5,381.4 732.8,381.4 734.2,381.4 735.5,381.4 736.9,381.4 738.2,381.4 739.6,381.4 740.9,381.4 742.3,381.6 743.6,381.8 745.0,382.2 746.3,382.2 747.6,382.2 749.0,382.2 750.3,382.2 751.7,382.0 753.0,382.2 754.4,382.2 755.7,382.2 757.1,382.2 758.4,382.7 759.8,383.1 761.1,382.9 762.5,383.1 763.8,383.3 765.2,383.1 766.5,383.5 767.8,383.5 769.2,383.1 770.5,383.1 771.9,383.1 773.2,383.1 774.6,383.1 775.9,383.7 777.3,384.3 778.6,384.7 780.0,385.8 781.3,386.2 782.7,385.8 784.0,385.6 785.3,384.7 786.7,384.5 788.0,380.2 789.4,381.1 790.7,382.0 792.1,382.0 793.4,382.7 794.8,382.7 796.1,382.3 797.5,381.7 798.8,380.8 800.2,380.2 801.5,379.8 802.9,380.2 804.2,380.5 805.5,381.7 806.9,382.3 808.2,382.3 809.6,383.0 810.9,382.7 812.3,382.0 813.6,381.4 815.0,381.4 816.3,382.0 817.7,381.1 819.0,380.2 820.4,379.2 821.7,379.2 823.0,380.5 824.4,380.2 825.7,378.5 827.1,378.9 828.4,378.9 829.8,378.9 833.8,378.9 835.2,377.2 836.5,372.7 837.9,370.6 839.2,361.5 840.6,360.0 841.9,360.3 843.2,371.5 844.6,372.2 845.9,375.8 847.3,375.8 848.6,369.7 850.0,350.9 851.3,346.8 852.7,346.8 854.0,350.1 855.4,350.4 856.7,346.0 858.1,349.3 859.4,354.3 860.7,336.2 862.1,339.9 863.4,342.7 864.8,340.8 866.1,335.2 867.5,341.8 868.8,339.0 870.2,340.8 871.5,339.0 872.9,339.0 874.2,336.2 875.6,333.3 876.9,332.4 878.3,331.5 879.6,328.7 880.9,327.7 882.3,324.0 883.6,324.9 885.0,324.0 886.3,324.0 887.7,324.0 889.0,322.1 890.4,322.1 891.7,324.0 893.1,318.9 894.4,318.4 895.8,318.4 897.1,318.5 898.4,318.5 899.8,318.5 901.1,318.3 902.5,317.6 903.8,317.6 905.2,317.8 906.5,317.7 907.9,317.7 909.2,317.7 910.6,317.8 911.9,317.7 913.3,317.6 914.6,317.6 916.0,317.6 917.3,317.6 918.6,317.6 920.0,317.6 921.3,317.6 922.7,317.6 924.0,317.6 925.4,317.6 926.7,317.6 928.1,317.6 929.4,317.6 930.8,317.6 932.1,317.6 933.5,317.6 934.8,317.6 936.1,317.6 937.5,317.6 938.8,317.6 940.2,317.6 941.5,317.6 942.9,317.6 944.2,317.6 945.6,317.6 946.9,317.6 948.3,317.6 949.6,317.6 951.0,317.6 952.3,317.6 953.7,317.6 955.0,317.6"/>
<polyline fill="none" stroke="#ff7f0e" stroke-width="1.8" points="65.0,372.6 66.3,373.7 67.7,373.5 69.0,373.5 70.4,373.5 71.7,373.5 73.1,373.5 74.4,373.6 75.8,373.6 77.1,373.6 78.5,373.8 79.8,373.8 81.2,373.8 82.5,374.8 83.9,376.4 85.2,376.6 86.5,376.6 87.9,376.2 89.2,376.2 90.6,376.2 91.9,376.0 93.3,376.6 94.6,376.6 96.0,376.8 97.3,376.8 98.7,376.8 100.0,377.0 101.4,376.1 102.7,376.2 104.0,376.2 105.4,376.1 106.7,376.1 108.1,376.1 109.4,376.1 110.8,376.1 112.1,376.1 113.5,376.2 114.8,376.2 116.2,376.2 117.5,376.2 118.9,376.2 120.2,376.2 121.6,376.2 122.9,376.2 124.2,376.3 125.6,376.3 126.9,376.2 128.3,376.2 129.6,376.3 131.0,376.3 132.3,376.2 133.7,376.2 135.0,376.2 136.4,376.2 137.7,376.2 139.1,376.2 140.4,376.2 141.7,376.2 143.1,376.2 144.4,376.2 145.8,376.2 147.1,376.2 148.5,376.2 149.8,376.2 151.2,376.3 152.5,376.3 153.9,376.3 155.2,376.3 156.6,376.3 157.9,376.3 159.3,376.3 160.6,376.3 161.9,376.3 163.3,376.2 164.6,376.3 166.0,376.3 167.3,376.2 168.7,376.2 170.0,376.2 171.4,376.2 172.7,376.2 174.1,375.7 175.4,376.2 176.8,376.2 178.1,376.2 179.4,376.2 180.8,376.2 182.1,376.2 183.5,376.2 184.8,376.2 186.2,376.2 187.5,376.2 188.9,376.2 190.2,376.2 191.6,376.2 192.9,376.2 194.3,376.2 195.6,376.2 197.0,376.2 198.3,376.2 199.6,376.2 201.0,376.2 202.3,376.2 203.7,376.2 205.0,376.2 206.4,376.2 207.7,376.2 209.1,376.2 210.4,376.2 211.8,376.2 213.1,376.2 214.5,376.2 215.8,376.2 217.1,376.2 218.5,376.2 219.8,376.2 221.2,376.2 222.5,376.2 223.9,376.2 225.2,376.2 226.6,376.2 227.9,376.2 229.3,376.2 230.6,376.2 232.0,376.2 233.3,376.2 234.7,376.2 236.0,376.6 237.3,376.7 238.7,376.6 240.0,376.6 241.4,376.6 242.7,376.5 244.1,376.0 245.4,376.4 246.8,376.5 248.1,376.4 249.5,376.5 250.8,376.5 252.2,376.4 253.5,376.4 254.8,376.4 256.2,376.4 257.5,376.5 258.9,376.5 260.2,376.5 261.6,376.5 262.9,376.3 264.3,376.3 265.6,376.3 267.0,376.3 268.3,376.5 269.7,376.5 271.0,376.5 272.4,376.4 273.7,376.4 275.0,376.4 276.4,376.4 277.7,376.0 279.1,376.2 280.4,375.9 281.8,375.9 283.1,376.1 284.5,376.1 285.8,376.1 287.2,375.9 288.5,376.1 289.9,376.1 291.2,376.1 292.5,376.1 293.9,375.9 295.2,376.0 296.6,375.9 297.9,375.9 299.3,376.1 300.6,376.1 302.0,376.1 303.3,376.1 304.7,376.7 306.0,376.7 307.4,376.7 308.7,376.7 310.1,377.0 311.4,376.9 312.7,376.8 314.1,376.8 315.4,376.8 316.8,376.8 318.1,377.0 319.5,377.1 320.8,376.9 322.2,376.8 323.5,376.8 324.9,376.8 326.2,377.0 327.6,377.0 328.9,377.0 330.2,377.0 331.6,376.9 332.9,376.9 334.3,376.9 335.6,376.9 337.0,376.9 338.3,376.8 339.7,376.8 341.0,376.8 342.4,376.9 343.7,376.9 345.1,376.9 346.4,376.8 347.8,376.8 349.1,376.8 350.4,376.8 351.8,376.8 353.1,376.8 354.5,376.8 355.8,376.8 357.2,376.8 358.5,376.9 359.9,376.9 361.2,376.9 362.6,376.9 363.9,376.9 365.3,376.9 366.6,376.9 368.0,376.9 369.3,376.9 370.6,377.0 372.0,377.1 373.3,377.2 374.7,377.2 376.0,377.1 377.4,377.0 378.7,377.0 380.1,377.0 381.4,377.1 382.8,377.0 384.1,376.9 385.5,376.9 386.8,377.0 388.1,377.0 389.5,377.0 390.8,376.9 392.2,376.9 393.5,377.1 394.9,377.1 396.2,377.0 397.6,377.0 398.9,376.9 400.3,376.9 401.6,376.9 403.0,377.1 404.3,377.0 405.7,377.1 407.0,377.1 408.3,377.2 409.7,377.1 411.0,377.3 412.4,377.3 413.7,377.2 415.1,377.2 416.4,377.1 417.8,376.9 419.1,376.9 420.5,376.8 421.8,376.8 423.2,376.8 424.5,376.8 425.8,376.8 427.2,376.8 428.5,376.8 429.9,376.8 431.2,376.8 432.6,376.8 433.9,376.8 435.3,376.8 436.6,376.8 438.0,376.8 439.3,376.8 440.7,376.8 442.0,376.8 443.4,376.8 444.7,376.8 446.0,376.8 447.4,376.8 448.7,376.8 450.1,376.8 451.4,376.8 452.8,376.8 454.1,376.8 455.5,376.8 456.8,376.8 458.2,376.8 459.5,376.8 460.9,376.8 462.2,376.8 463.5,376.8 464.9,376.8 466.2,376.8 467.6,376.8 468.9,376.8 470.3,376.8 471.6,376.8 473.0,376.8 474.3,376.8 475.7,376.8 477.0,376.8 478.4,376.8 479.7,376.8 481.1,377.1 482.4,377.1 483.7,376.8 485.1,376.8 486.4,376.8 487.8,376.7 489.1,376.7 490.5,376.7 491.8,377.1 493.2,377.1 494.5,376.7 495.9,376.8 497.2,376.8 498.6,376.8 499.9,376.8 501.2,376.8 502.6,376.8 503.9,376.8 505.3,376.8 506.6,376.8 508.0,376.8 509.3,376.8 510.7,376.8 512.0,376.8 513.4,376.8 514.7,376.8 516.1,376.8 517.4,376.8 518.8,376.8 520.1,376.8 521.4,376.8 522.8,376.8 524.1,376.8 525.5,376.8 526.8,376.8 528.2,376.8 529.5,376.8 530.9,376.8 532.2,376.8 533.6,376.8 534.9,376.8 536.3,376.8 537.6,376.8 538.9,376.8 540.3,376.8 541.6,376.8 543.0,376.8 544.3,376.8 545.7,376.8 547.0,376.8 548.4,376.8 549.7,376.8 551.1,376.8 552.4,376.8 553.8,376.8 555.1,376.8 556.5,376.8 557.8,376.8 559.1,376.8 560.5,376.8 561.8,376.8 563.2,376.8 564.5,376.8 565.9,376.8 567.2,376.8 568.6,376.8 569.9,376.8 571.3,376.8 572.6,376.8 574.0,376.8 575.3,376.8 576.6,376.8 578.0,376.8 579.3,376.8 580.7,376.8 582.0,376.8 583.4,376.8 584.7,376.8 586.1,376.8 587.4,376.8 588.8,376.8 590.1,376.8 591.5,376.8 592.8,377.0 594.2,377.1 595.5,376.8 596.8,376.8 598.2,376.7 599.5,376.5 600.9,376.4 602.2,376.3 603.6,376.0 604.9,376.0 606.3,376.1 607.6,375.9 609.0,376.0 610.3,375.7 611.7,375.7 613.0,375.7 614.3,375.7 615.7,375.7 617.0,375.7 618.4,375.6 619.7,375.8 621.1,375.8 622.4,375.7 623.8,375.7 625.1,375.8 626.5,376.2 627.8,376.1 629.2,376.1 630.5,376.1 631.9,376.1 633.2,376.0 634.5,375.8 635.9,375.9 637.2,375.9 638.6,375.8 639.9,375.8 641.3,375.7 642.6,377.0 644.0,377.0 645.3,376.6 646.7,377.0 648.0,376.6 649.4,376.6 650.7,376.6 652.0,376.6 653.4,376.6 654.7,376.6 656.1,376.4 657.4,376.4 658.8,376.6 660.1,376.6 661.5,376.6 662.8,376.6 664.2,376.6 665.5,376.6 666.9,376.6 668.2,376.6 669.6,376.6 670.9,376.6 672.2,376.6 673.6,376.6 674.9,377.0 676.3,377.0 677.6,377.0 679.0,377.0 680.3,377.0 681.7,377.0 683.0,377.0 684.4,377.0 685.7,377.0 687.1,377.0 688.4,377.0 689.8,377.0 691.1,377.0 692.4,377.0 693.8,377.0 695.1,377.0 696.5,377.0 697.8,377.0 699.2,377.0 700.5,377.0 701.9,377.0 703.2,377.0 704.6,377.0 705.9,377.0 707.3,377.0 708.6,377.0 709.9,377.0 711.3,377.0 712.6,377.0 714.0,377.0 715.3,377.0 716.7,377.0 718.0,377.0 719.4,377.0 720.7,377.0 722.1,376.4 723.4,376.2 724.8,376.2 726.1,376.2 727.5,376.2 728.8,375.4 730.1,375.6 731.5,375.8 732.8,375.8 734.2,375.8 735.5,375.8 736.9,375.8 738.2,375.8 739.6,375.8 740.9,375.8 742.3,375.6 743.6,375.4 745.0,374.9 746.3,374.9 747.6,374.9 749.0,374.9 750.3,374.9 751.7,375.1 753.0,374.9 754.4,374.9 755.7,374.9 757.1,374.9 758.4,374.5 759.8,374.1 761.1,374.3 762.5,374.1 763.8,373.9 765.2,374.1 766.5,373.7 767.8,373.7 769.2,374.1 770.5,374.1 771.9,374.1 773.2,374.1 774.6,374.1 775.9,373.5 777.3,372.9 778.6,372.4 780.0,371.4 781.3,371.0 782.7,371.4 784.0,371.6 785.3,372.4 786.7,372.6 788.0,377.0 789.4,376.7 790.7,375.8 792.1,375.8 793.4,375.1 794.8,375.1 796.1,375.5 797.5,376.1 798.8,377.0 800.2,377.6 801.5,378.0 802.9,377.6 804.2,377.3 805.5,376.1 806.9,375.5 808.2,375.5 809.6,374.8 810.9,375.1 812.3,375.8 813.6,376.4 815.0,376.4 816.3,375.8 817.7,376.7 819.0,377.6 820.4,378.6 821.7,378.6 823.0,377.3 824.4,377.6 825.7,379.5 827.1,379.1 828.4,379.1 829.8,379.1 833.8,379.1 835.2,380.8 836.5,385.5 837.9,387.9 839.2,397.4 840.6,398.8 841.9,399.1 843.2,388.6 844.6,389.3 845.9,386.0 847.3,386.0 848.6,392.5 850.0,412.8 851.3,417.5 852.7,417.5 854.0,414.1 855.4,415.1 856.7,420.4 858.1,417.1 859.4,412.1 860.7,430.4 862.1,426.6 863.4,423.8 864.8,425.7 866.1,431.3 867.5,424.8 868.8,427.6 870.2,425.7 871.5,427.6 872.9,427.6 874.2,430.4 875.6,433.2 876.9,434.2 878.3,435.1 879.6,437.9 880.9,438.8 882.3,442.6 883.6,441.7 885.0,442.6 886.3,442.6 887.7,442.6 889.0,444.5 890.4,444.5 891.7,442.6 893.1,447.7 894.4,448.1 895.8,448.1 897.1,448.0 898.4,448.0 899.8,448.0 901.1,448.2 902.5,449.0 903.8,449.0 905.2,448.8 906.5,448.9 907.9,448.9 909.2,448.9 910.6,448.8 911.9,448.9 913.3,449.0 914.6,449.0 916.0,449.0 917.3,449.0 918.6,449.0 920.0,449.0 921.3,449.0 922.7,449.0 924.0,449.0 925.4,449.0 926.7,449.0 928.1,449.0 929.4,449.0 930.8,449.0 932.1,449.0 933.5,449.0 934.8,449.0 936.1,449.0 937.5,449.0 938.8,449.0 940.2,449.0 941.5,449.0 942.9,449.0 944.2,449.0 945.6,449.0 946.9,449.0 948.3,449.0 949.6,449.0 951.0,449.0 952.3,449.0 953.7,449.0 955.0,449.0"/>
<polyline fill="none" stroke="#d62728" stroke-width="1.8" points="65.0,372.6 66.3,372.6 67.7,372.6 69.0,372.4 70.4,372.4 71.7,372.4 73.1,372.4 74.4,372.5 75.8,372.5 77.1,372.5 78.5,372.6 79.8,372.6 81.2,372.6 82.5,373.1 83.9,373.4 85.2,373.5 86.5,373.5 87.9,373.4 89.2,373.4 90.6,373.4 91.9,373.3 93.3,373.5 94.6,373.2 96.0,373.4 97.3,373.4 98.7,373.4 100.0,373.7 101.4,372.1 102.7,372.4 104.0,372.4 105.4,372.1 106.7,372.1 108.1,372.1 109.4,372.1 110.8,372.1 112.1,372.1 113.5,372.4 114.8,372.4 116.2,372.4 117.5,372.4 118.9,372.4 120.2,372.4 121.6,372.4 122.9,372.4 124.2,372.6 125.6,372.6 126.9,372.4 128.3,372.4 129.6,372.6 131.0,372.6 132.3,372.4 133.7,372.4 135.0,372.4 136.4,372.4 137.7,372.4 139.1,372.4 140.4,372.4 141.7,372.4 143.1,372.4 144.4,372.4 145.8,372.4 147.1,372.4 148.5,372.4 149.8,372.4 151.2,372.6 152.5,372.6 153.9,372.6 155.2,372.6 156.6,372.6 157.9,372.6 159.3,372.6 160.6,372.6 161.9,372.6 163.3,372.4 164.6,372.6 166.0,372.6 167.3,372.4 168.7,372.4 170.0,372.4 171.4,372.4 172.7,372.4 174.1,371.3 175.4,371.0 176.8,371.3 178.1,371.0 179.4,371.3 180.8,371.5 182.1,371.5 183.5,371.7 184.8,371.7 186.2,371.7 187.5,371.9 188.9,371.7 190.2,371.7 191.6,370.2 192.9,370.2 194.3,370.4 195.6,370.4 197.0,370.4 198.3,370.4 199.6,370.6 201.0,370.6 202.3,370.6 203.7,370.6 205.0,370.6 206.4,370.6 207.7,370.6 209.1,370.6 210.4,370.6 211.8,371.3 213.1,371.3 214.5,371.0 215.8,371.0 217.1,371.0 218.5,371.0 219.8,371.0 221.2,371.3 222.5,371.3 223.9,371.3 225.2,371.6 226.6,371.6 227.9,370.8 229.3,370.5 230.6,371.0 232.0,371.0 233.3,371.0 234.7,371.3 236.0,372.8 237.3,373.1 238.7,372.8 240.0,372.8 241.4,372.8 242.7,372.6 244.1,371.3 245.4,372.3 246.8,372.6 248.1,372.3 249.5,372.6 250.8,372.6 252.2,372.3 253.5,372.3 254.8,372.3 256.2,372.3 257.5,372.6 258.9,372.6 260.2,372.6 261.6,372.6 262.9,372.1 264.3,372.1 265.6,372.1 267.0,372.1 268.3,372.6 269.7,372.6 271.0,372.6 272.4,372.3 273.7,372.3 275.0,372.3 276.4,372.3 277.7,371.3 279.1,371.8 280.4,371.0 281.8,371.0 283.1,371.6 284.5,371.5 285.8,371.5 287.2,370.7 288.5,371.5 289.9,371.5 291.2,371.5 292.5,371.5 293.9,370.7 295.2,371.1 296.6,370.7 297.9,370.7 299.3,371.5 300.6,371.5 302.0,371.5 303.3,371.5 304.7,373.9 306.0,373.9 307.4,373.9 308.7,373.9 310.1,375.1 311.4,374.7 312.7,374.3 314.1,374.3 315.4,374.3 316.8,374.3 318.1,375.1 319.5,375.5 320.8,374.7 322.2,374.3 323.5,374.3 324.9,374.3 326.2,375.1 327.6,375.1 328.9,375.1 330.2,375.1 331.6,374.7 332.9,374.7 334.3,374.7 335.6,374.7 337.0,374.7 338.3,374.3 339.7,374.3 341.0,374.3 342.4,374.7 343.7,374.7 345.1,374.7 346.4,374.3 347.8,374.3 349.1,374.3 350.4,374.3 351.8,374.3 353.1,374.3 354.5,374.3 355.8,374.3 357.2,374.3 358.5,374.7 359.9,374.7 361.2,374.7 362.6,374.7 363.9,374.7 365.3,374.7 366.6,374.7 368.0,374.7 369.3,374.7 370.6,375.1 372.0,375.5 373.3,375.9 374.7,375.9 376.0,375.5 377.4,375.1 378.7,375.1 380.1,375.1 381.4,375.5 382.8,375.1 384.1,374.7 385.5,374.7 386.8,375.1 388.1,375.1 389.5,375.1 390.8,374.7 392.2,374.7 393.5,375.5 394.9,375.5 396.2,375.1 397.6,375.1 398.9,374.7 400.3,374.7 401.6,374.7 403.0,375.5 404.3,375.1 405.7,375.5 407.0,375.5 408.3,375.5 409.7,375.5 411.0,376.3 412.4,376.3 413.7,375.9 415.1,375.9 416.4,375.5 417.8,374.7 419.1,374.7 420.5,372.7 421.8,372.3 423.2,372.7 424.5,372.7 425.8,373.1 427.2,373.1 428.5,373.9 429.9,373.1 431.2,372.3 432.6,372.3 433.9,373.9 435.3,373.5 436.6,373.9 438.0,373.9 439.3,373.9 440.7,373.5 442.0,373.9 443.4,374.3 444.7,374.3 446.0,374.3 447.4,374.3 448.7,374.3 450.1,374.7 451.4,374.7 452.8,374.7 454.1,374.7 455.5,374.7 456.8,374.7 458.2,374.7 459.5,374.7 460.9,374.7 462.2,374.7 463.5,374.7 464.9,374.7 466.2,374.7 467.6,374.7 468.9,374.7 470.3,373.7 471.6,373.2 473.0,375.6 474.3,374.7 475.7,375.3 477.0,375.9 478.4,375.9 479.7,375.9 481.1,372.9 482.4,372.9 483.7,374.7 485.1,374.7 486.4,374.5 487.8,375.2 489.1,375.2 490.5,374.9 491.8,372.4 493.2,372.4 494.5,374.9 495.9,375.9 497.2,375.9 498.6,375.9 499.9,375.9 501.2,375.9 502.6,376.6 503.9,376.6 505.3,376.6 506.6,374.4 508.0,374.4 509.3,374.4 510.7,374.4 512.0,373.7 513.4,373.7 514.7,375.9 516.1,375.9 517.4,375.9 518.8,375.9 520.1,375.9 521.4,375.9 522.8,375.9 524.1,375.9 525.5,375.9 526.8,375.9 528.2,375.9 529.5,375.9 530.9,375.9 532.2,375.9 533.6,373.6 534.9,373.6 536.3,374.6 537.6,375.5 538.9,373.6 540.3,373.6 541.6,375.4 543.0,373.5 544.3,374.5 545.7,376.4 547.0,376.4 548.4,376.4 549.7,376.4 551.1,376.4 552.4,376.3 553.8,379.4 555.1,379.4 556.5,379.4 557.8,380.5 559.1,381.5 560.5,381.5 561.8,380.5 563.2,379.4 564.5,379.4 565.9,376.3 567.2,382.5 568.6,379.4 569.9,379.4 571.3,380.5 572.6,380.5 574.0,379.4 575.3,381.5 576.6,381.5 578.0,378.4 579.3,378.4 580.7,377.3 582.0,378.4 583.4,377.3 584.7,377.3 586.1,376.3 587.4,377.3 588.8,377.3 590.1,383.6 591.5,382.5 592.8,395.1 594.2,395.9 595.5,391.5 596.8,395.8 598.2,397.2 599.5,395.8 600.9,395.1 602.2,394.4 603.6,392.2 604.9,392.2 606.3,392.9 607.6,391.3 609.0,392.1 610.3,389.8 611.7,389.8 613.0,389.8 614.3,389.8 615.7,389.8 617.0,389.8 618.4,389.0 619.7,390.6 621.1,390.6 622.4,389.8 623.8,389.8 625.1,390.6 626.5,393.8 627.8,392.8 629.2,392.8 630.5,392.8 631.9,392.8 633.2,391.8 634.5,389.8 635.9,390.8 637.2,390.8 638.6,389.7 639.9,389.7 641.3,388.6 642.6,399.1 644.0,399.1 645.3,397.0 646.7,399.1 648.0,397.0 649.4,397.0 650.7,397.0 652.0,397.0 653.4,397.0 654.7,397.0 656.1,395.9 657.4,395.9 658.8,397.0 660.1,397.0 661.5,397.0 662.8,397.0 664.2,397.0 665.5,397.0 666.9,397.0 668.2,397.0 669.6,397.0 670.9,397.0 672.2,397.0 673.6,397.0 674.9,399.1 676.3,399.1 677.6,399.1 679.0,399.1 680.3,399.1 681.7,399.1 683.0,399.1 684.4,399.1 685.7,399.1 687.1,399.1 688.4,399.1 689.8,399.1 691.1,399.1 692.4,399.1 693.8,399.1 695.1,399.1 696.5,399.1 697.8,399.1 699.2,399.1 700.5,399.1 701.9,399.1 703.2,399.1 704.6,399.1 705.9,399.1 707.3,399.1 708.6,399.1 709.9,399.1 711.3,399.1 712.6,399.1 714.0,399.0 715.3,399.0 716.7,399.0 718.0,398.8 719.4,398.8 720.7,398.8 722.1,395.3 723.4,394.2 724.8,394.0 726.1,394.0 727.5,394.0 728.8,390.7 730.1,391.5 731.5,392.4 732.8,392.3 734.2,392.3 735.5,392.3 736.9,392.3 738.2,392.3 739.6,390.5 740.9,390.4 742.3,389.6 743.6,389.1 745.0,388.2 746.3,388.2 747.6,388.2 749.0,388.2 750.3,388.0 751.7,388.7 753.0,388.1 754.4,388.0 755.7,387.9 757.1,387.8 758.4,386.5 759.8,385.2 761.1,385.6 762.5,385.0 763.8,384.3 765.2,385.0 766.5,383.7 767.8,383.7 769.2,384.9 770.5,384.8 771.9,384.8 773.2,384.8 774.6,384.8 775.9,382.6 777.3,380.4 778.6,378.9 780.0,375.0 781.3,373.4 782.7,374.8 784.0,375.8 785.3,379.7 786.7,380.8 788.0,402.7 789.4,400.6 790.7,397.5 792.1,397.5 793.4,395.4 794.8,395.4 796.1,396.4 797.5,398.5 798.8,401.6 800.2,403.7 801.5,404.8 802.9,403.5 804.2,402.6 805.5,399.1 806.9,397.3 808.2,397.0 809.6,395.0 810.9,395.9 812.3,397.6 813.6,399.1 815.0,399.1 816.3,397.5 817.7,399.4 819.0,401.0 820.4,402.8 821.7,402.7 823.0,399.0 824.4,399.7 825.7,405.9 827.1,404.9 828.4,404.9 829.8,404.9 833.8,404.9 835.2,408.4 836.5,418.9 837.9,423.0 839.2,437.6 840.6,439.7 841.9,439.1 843.2,423.6 844.6,423.6 845.9,417.7 847.3,417.0 848.6,427.0 850.0,452.1 851.3,457.0 852.7,457.0 854.0,451.6 855.4,453.0 856.7,456.7 858.1,453.7 859.4,445.4 860.7,467.3 862.1,462.9 863.4,460.1 864.8,462.0 866.1,468.3 867.5,461.0 868.8,463.9 870.2,461.8 871.5,463.9 872.9,463.9 874.2,467.0 875.6,469.8 876.9,470.8 878.3,471.8 879.6,474.6 880.9,475.6 882.3,479.8 883.6,478.7 885.0,479.6 886.3,479.6 887.7,479.6 889.0,481.6 890.4,481.5 891.7,480.2 893.1,484.6 894.4,484.8 895.8,484.7 897.1,484.5 898.4,484.5 899.8,484.5 901.1,484.4 902.5,484.9 903.8,484.9 905.2,484.8 906.5,484.8 907.9,484.8 909.2,484.8 910.6,484.8 911.9,484.8 913.3,484.9 914.6,484.9 916.0,484.9 917.3,484.9 918.6,484.9 920.0,484.9 921.3,484.9 922.7,484.9 924.0,484.9 925.4,484.9 926.7,484.9 928.1,484.9 929.4,484.9 930.8,484.9 932.1,484.9 933.5,484.9 934.8,484.9 936.1,484.9 937.5,484.9 938.8,484.9 940.2,484.9 941.5,484.9 942.9,484.9 944.2,484.9 945.6,484.9 946.9,484.9 948.3,484.9 949.6,484.9 951.0,484.9 952.3,484.9 953.7,484.9 955.0,484.9"/>
<line x1="735" y1="308.5" x2="760" y2="308.5" stroke="#2ca02c" stroke-width="2"/>
<text class="small" x="767" y="312.5">buy hold first ask</text>
<line x1="735" y1="324.5" x2="760" y2="324.5" stroke="#1f77b4" stroke-width="2"/>
<text class="small" x="767" y="328.5">momentum taker</text>
<line x1="735" y1="340.5" x2="760" y2="340.5" stroke="#ff7f0e" stroke-width="2"/>
<text class="small" x="767" y="344.5">contrarian taker</text>
<line x1="735" y1="356.5" x2="760" y2="356.5" stroke="#d62728" stroke-width="2"/>
<text class="small" x="767" y="360.5">maker bbo</text>
</svg>
