<svg xmlns="http://www.w3.org/2000/svg" width="980" height="520" viewBox="0 0 980 520" role="img">
<title>BBO mid price paths</title>
<rect width="100%" height="100%" fill="white"/>
<style>text{font-family:Arial,Helvetica,sans-serif;font-size:12px;fill:#222}.small{font-size:10px;fill:#555}.title{font-size:16px;font-weight:700}.axis{stroke:#999;stroke-width:1}.grid{stroke:#e6e6e6;stroke-width:1}.legend{font-size:11px}</style>
<text class="title" x="55" y="28">BBO / mid price path (5-minute samples)</text>
<line class="grid" x1="55" y1="237.2" x2="955" y2="237.2"/>
<text class="small" x="18" y="241.2">0.00</text>
<line class="grid" x1="55" y1="193.0" x2="955" y2="193.0"/>
<text class="small" x="18" y="197.0">0.25</text>
<line class="grid" x1="55" y1="148.8" x2="955" y2="148.8"/>
<text class="small" x="18" y="152.8">0.50</text>
<line class="grid" x1="55" y1="104.5" x2="955" y2="104.5"/>
<text class="small" x="18" y="108.5">0.75</text>
<line class="grid" x1="55" y1="60.3" x2="955" y2="60.3"/>
<text class="small" x="18" y="64.3">1.00</text>
<text x="55" y="47.0">Jun 9 / 25C YES</text>
<polyline fill="none" stroke="#2ca02c" stroke-width="1.2" points="55.0,214.2 56.4,214.2 57.7,214.2 59.1,210.7 60.5,216.0 61.8,216.0 63.2,212.4 64.5,210.7 65.9,208.9 67.3,208.9 68.6,210.7 70.0,201.8 71.4,201.8 72.7,200.0 74.1,198.3 75.5,194.7 76.8,193.0 78.2,193.0 79.5,191.2 80.9,191.2 82.3,189.4 83.6,191.2 85.0,187.7 86.4,191.2 87.7,191.2 89.1,194.7 90.5,187.7 91.8,184.1 93.2,184.1 94.5,184.1 95.9,184.1 97.3,184.1 98.6,184.1 100.0,184.1 101.4,184.1 102.7,184.1 104.1,184.1 105.5,184.1 106.8,184.1 108.2,184.1 109.5,184.1 110.9,184.1 112.3,184.1 113.6,184.1 115.0,184.1 116.4,184.1 117.7,184.1 119.1,184.1 120.5,184.1 121.8,184.1 123.2,184.1 124.5,184.1 125.9,184.1 127.3,184.1 128.6,184.1 130.0,184.1 131.4,184.1 132.7,184.1 134.1,184.1 135.5,184.1 136.8,184.1 138.2,184.1 139.5,184.1 140.9,184.1 142.3,184.1 143.6,184.1 145.0,184.1 146.4,184.1 147.7,184.1 149.1,184.1 150.5,184.1 151.8,184.1 153.2,184.1 154.5,184.1 155.9,184.1 157.3,184.1 158.6,184.1 160.0,184.1 161.4,184.1 162.7,184.1 164.1,184.1 165.5,184.1 166.8,184.1 168.2,184.1 169.5,184.1 170.9,184.1 172.3,184.1 173.6,184.1 175.0,184.1 176.4,184.1 177.7,184.1 179.1,184.1 180.5,184.1 181.8,184.1 183.2,184.1 184.5,184.1 185.9,184.1 187.3,184.1 188.6,184.1 190.0,184.1 191.4,184.1 192.7,184.1 194.1,184.1 195.5,184.1 196.8,184.1 198.2,184.1 199.5,184.1 200.9,184.1 202.3,184.1 203.6,184.1 205.0,184.1 206.4,184.1 207.7,184.1 209.1,184.1 210.5,184.1 211.8,184.1 213.2,184.1 214.5,184.1 215.9,184.1 217.3,184.1 218.6,184.1 220.0,184.1 221.4,184.1 222.7,184.1 224.1,184.1 225.5,184.1 226.8,184.1 228.2,184.1 229.5,184.1 230.9,184.1 232.3,184.1 233.6,184.1 235.0,184.1 236.4,184.1 237.7,184.1 239.1,184.1 240.5,184.1 241.8,184.1 243.2,182.4 244.5,182.4 245.9,182.4 247.3,182.4 248.6,182.4 250.0,182.4 251.4,182.4 252.7,182.4 254.1,180.6 255.5,180.6 256.8,180.6 258.2,180.6 259.5,180.6 260.9,180.6 262.3,180.6 263.6,180.6 265.0,180.6 266.4,180.6 267.7,180.6 269.1,180.6 270.5,180.6 271.8,180.6 273.2,180.6 274.5,180.6 275.9,180.6 277.3,180.6 278.6,180.6 280.0,180.6 281.4,180.6 282.7,180.6 284.1,180.6 285.5,191.2 286.8,191.2 288.2,189.4 289.5,189.4 290.9,182.4 292.3,182.4 293.6,189.4 295.0,189.4 296.4,185.9 297.7,182.4 299.1,180.6 300.5,180.6 301.8,184.1 303.2,184.1 304.5,184.1 305.9,185.9 307.3,182.4 308.6,182.4 310.0,187.7 311.4,184.1 312.7,184.1 314.1,185.9 315.5,185.9 316.8,185.9 318.2,185.9 319.5,185.9 320.9,182.4 322.3,185.9 323.6,185.9 325.0,182.4 326.4,182.4 327.7,187.7 329.1,185.9 330.5,184.1 331.8,187.7 333.2,184.1 334.5,187.7 335.9,185.9 337.3,184.1 338.6,182.4 340.0,184.1 341.4,185.9 342.7,184.1 344.1,184.1 345.5,187.7 346.8,187.7 348.2,184.1 349.5,189.4 350.9,187.7 352.3,187.7 353.6,185.9 355.0,184.1 356.4,184.1 357.7,180.6 359.1,184.1 360.5,187.7 361.8,185.9 363.2,184.1 364.5,184.1 365.9,182.4 367.3,182.4 368.6,182.4 370.0,182.4 371.4,182.4 372.7,182.4 374.1,182.4 375.5,182.4 376.8,182.4 378.2,182.4 379.5,182.4 380.9,182.4 382.3,182.4 383.6,182.4 385.0,182.4 386.4,182.4 387.7,182.4 389.1,182.4 390.5,182.4 391.8,182.4 393.2,182.4 394.5,182.4 395.9,182.4 397.3,182.4 398.6,182.4 400.0,180.6 401.4,180.6 402.7,180.6 404.1,180.6 405.5,180.6 406.8,180.6 408.2,180.6 409.5,178.8 410.9,178.8 412.3,178.8 413.6,178.8 415.0,178.8 416.4,178.8 417.7,178.8 419.1,178.8 420.5,178.8 421.8,178.8 423.2,178.8 424.5,178.8 425.9,178.8 427.3,178.8 428.6,178.8 430.0,177.1 431.4,175.3 432.7,175.3 434.1,175.3 435.5,175.3 436.8,175.3 438.2,175.3 439.5,175.3 440.9,175.3 442.3,175.3 443.6,175.3 445.0,175.3 446.4,175.3 447.7,175.3 449.1,175.3 450.5,175.3 451.8,175.3 453.2,175.3 454.5,175.3 455.9,175.3 457.3,175.3 458.6,175.3 460.0,182.4 461.4,184.1 462.7,184.1 464.1,180.6 465.5,175.3 466.8,171.7 468.2,173.5 469.5,173.5 470.9,173.5 472.3,173.5 473.6,171.7 475.0,171.7 476.4,171.7 477.7,171.7 479.1,173.5 480.5,173.5 481.8,171.7 483.2,171.7 484.5,171.7 485.9,171.7 487.3,171.7 488.6,171.7 490.0,171.7 491.4,171.7 492.7,171.7 494.1,171.7 495.5,171.7 496.8,171.7 498.2,171.7 499.5,170.0 500.9,170.0 502.3,171.7 503.6,171.7 505.0,171.7 506.4,171.7 507.7,171.7 509.1,182.4 510.5,182.4 511.8,182.4 513.2,182.4 514.5,182.4 515.9,182.4 517.3,182.4 518.6,182.4 520.0,182.4 521.4,182.4 522.7,182.4 524.1,182.4 525.5,182.4 526.8,182.4 528.2,182.4 529.5,182.4 530.9,182.4 532.3,182.4 533.6,182.4 535.0,182.4 536.4,182.4 537.7,184.1 539.1,184.1 540.5,182.4 541.8,184.1 543.2,184.1 544.5,184.1 545.9,184.1 547.3,180.6 548.6,180.6 550.0,180.6 551.4,180.6 552.7,180.6 554.1,180.6 555.5,180.6 556.8,180.6 558.2,180.6 559.5,180.6 560.9,180.6 562.3,180.6 563.6,180.6 565.0,180.6 566.4,180.6 567.7,173.5 569.1,171.7 570.5,170.0 571.8,173.5 573.2,171.7 574.5,173.5 575.9,168.2 577.3,168.2 578.6,170.0 580.0,170.0 581.4,170.0 582.7,168.2 584.1,173.5 585.5,171.7 586.8,166.4 588.2,162.9 589.5,162.9 590.9,155.8 592.3,157.6 593.6,157.6 595.0,157.6 596.4,162.9 597.7,161.1 599.1,161.1 600.5,161.1 601.8,161.1 603.2,161.1 604.5,161.1 605.9,159.4 607.3,159.4 608.6,157.6 610.0,159.4 611.4,157.6 612.7,157.6 614.1,154.1 615.5,152.3 616.8,152.3 618.2,150.5 619.5,150.5 620.9,157.6 622.3,155.8 623.6,154.1 625.0,159.4 626.4,159.4 627.7,159.4 629.1,162.9 630.5,161.1 631.8,161.1 633.2,171.7 634.5,171.7 635.9,171.7 637.3,170.0 638.6,170.0 640.0,170.0 641.4,170.0 642.7,170.0 644.1,168.2 645.5,168.2 646.8,168.2 648.2,168.2 649.5,168.2 650.9,166.4 652.3,166.4 653.6,166.4 655.0,166.4 656.4,166.4 657.7,166.4 659.1,166.4 660.5,166.4 661.8,166.4 663.2,166.4 664.5,166.4 665.9,166.4 667.3,166.4 668.6,166.4 670.0,166.4 671.4,166.4 672.7,166.4 674.1,166.4 675.5,168.2 676.8,168.2 678.2,168.2 679.5,168.2 680.9,168.2 682.3,170.0 683.6,170.0 685.0,170.0 686.4,170.0 687.7,170.0 689.1,170.0 690.5,170.0 691.8,170.0 693.2,166.4 694.5,166.4 695.9,166.4 697.3,166.4 698.6,166.4 700.0,166.4 701.4,166.4 702.7,166.4 704.1,166.4 705.5,166.4 706.8,166.4 708.2,166.4 709.5,166.4 710.9,166.4 712.3,166.4 713.6,166.4 715.0,166.4 716.4,166.4 717.7,166.4 719.1,168.2 720.5,171.7 721.8,171.7 723.2,171.7 724.5,171.7 725.9,171.7 727.3,171.7 728.6,171.7 730.0,171.7 731.4,171.7 732.7,171.7 734.1,171.7 735.5,171.7 736.8,171.7 738.2,171.7 739.5,171.7 740.9,171.7 742.3,171.7 743.6,171.7 745.0,171.7 746.4,171.7 747.7,171.7 749.1,171.7 750.5,171.7 751.8,171.7 753.2,173.5 754.5,171.7 755.9,171.7 757.3,173.5 758.6,173.5 760.0,175.3 761.4,175.3 762.7,175.3 764.1,177.1 765.5,178.8 766.8,178.8 768.2,178.8 769.5,178.8 770.9,178.8 772.3,178.8 773.6,184.1 775.0,184.1 776.4,193.0 777.7,193.0 779.1,196.5 780.5,205.4 781.8,205.4 783.2,208.9 784.5,205.4 785.9,205.4 787.3,203.6 788.6,203.6 790.0,205.4 791.4,205.4 792.7,208.9 794.1,208.9 795.5,208.9 796.8,208.9 798.2,208.9 799.5,208.9 800.9,208.9 802.3,214.2 803.6,208.9 805.0,212.4 806.4,214.2 807.7,212.4 809.1,212.4 810.5,216.0 811.8,208.9 813.2,208.9 814.5,208.9 815.9,212.4 817.3,214.2 818.6,210.7 820.0,208.9 821.4,210.7 822.7,210.7 824.1,203.6 825.5,208.9 826.8,210.7 828.2,196.5 829.5,201.8 830.9,216.0 832.3,219.5 833.6,219.5 835.0,221.3 836.4,210.7 837.7,201.8 839.1,200.0 840.5,191.2 841.8,187.7 843.2,185.9 844.5,187.7 845.9,166.4 847.3,193.0 848.6,200.0 850.0,194.7 851.4,203.6 852.7,191.2 854.1,193.0 855.5,161.1 856.8,101.0 858.2,74.5 859.5,81.5 860.9,76.2 862.3,70.9 863.6,72.7 865.0,72.7 866.4,67.4 867.7,65.6 869.1,63.8 870.5,63.8 871.8,63.8 873.2,63.0 874.5,63.8 875.9,63.5 877.3,63.8 878.6,64.7 880.0,64.7 881.4,64.6 882.7,64.7 884.1,64.7 885.5,64.2 886.8,64.2 888.2,64.2 889.5,64.2 890.9,98.2 892.3,86.8 893.6,68.8 895.0,69.5 896.4,67.0 897.7,68.6 899.1,69.0 900.5,67.6 901.8,65.8 903.2,66.5 904.5,62.8 905.9,65.6 907.3,62.1 908.6,61.7 910.0,61.9 911.4,61.2 912.7,61.9 914.1,61.9 915.5,61.9 916.8,61.9 918.2,61.9 919.5,61.9 920.9,61.9 922.3,61.9 923.6,61.0 925.0,61.0 926.4,60.5 927.7,60.5 929.1,60.5 930.5,60.5 931.8,60.5 933.2,60.5 934.5,60.5 935.9,60.5 937.3,60.5 938.6,60.5 940.0,60.5 941.4,60.5 942.7,60.5 944.1,60.5 945.5,60.5 946.8,60.5 948.2,60.5 949.5,60.5 950.9,60.5 952.3,60.5 953.6,60.5 955.0,60.5"/>
<polyline fill="none" stroke="#d62728" stroke-width="1.2" points="55.0,191.2 56.4,193.0 57.7,194.7 59.1,193.0 60.5,207.1 61.8,207.1 63.2,207.1 64.5,207.1 65.9,207.1 67.3,207.1 68.6,207.1 70.0,191.2 71.4,187.7 72.7,189.4 74.1,187.7 75.5,185.9 76.8,184.1 78.2,184.1 79.5,184.1 80.9,182.4 82.3,182.4 83.6,184.1 85.0,182.4 86.4,182.4 87.7,184.1 89.1,182.4 90.5,182.4 91.8,182.4 93.2,182.4 94.5,182.4 95.9,180.6 97.3,180.6 98.6,180.6 100.0,180.6 101.4,180.6 102.7,180.6 104.1,180.6 105.5,180.6 106.8,180.6 108.2,180.6 109.5,180.6 110.9,180.6 112.3,180.6 113.6,180.6 115.0,180.6 116.4,180.6 117.7,180.6 119.1,180.6 120.5,180.6 121.8,180.6 123.2,180.6 124.5,180.6 125.9,180.6 127.3,180.6 128.6,180.6 130.0,180.6 131.4,180.6 132.7,180.6 134.1,180.6 135.5,180.6 136.8,180.6 138.2,180.6 139.5,180.6 140.9,180.6 142.3,180.6 143.6,180.6 145.0,180.6 146.4,180.6 147.7,180.6 149.1,180.6 150.5,180.6 151.8,180.6 153.2,180.6 154.5,180.6 155.9,180.6 157.3,180.6 158.6,180.6 160.0,180.6 161.4,180.6 162.7,180.6 164.1,180.6 165.5,180.6 166.8,180.6 168.2,180.6 169.5,180.6 170.9,180.6 172.3,180.6 173.6,180.6 175.0,180.6 176.4,180.6 177.7,180.6 179.1,180.6 180.5,180.6 181.8,180.6 183.2,180.6 184.5,180.6 185.9,180.6 187.3,180.6 188.6,180.6 190.0,180.6 191.4,180.6 192.7,180.6 194.1,180.6 195.5,180.6 196.8,180.6 198.2,180.6 199.5,180.6 200.9,180.6 202.3,182.4 203.6,180.6 205.0,180.6 206.4,180.6 207.7,180.6 209.1,180.6 210.5,180.6 211.8,180.6 213.2,180.6 214.5,180.6 215.9,180.6 217.3,180.6 218.6,180.6 220.0,180.6 221.4,180.6 222.7,180.6 224.1,180.6 225.5,180.6 226.8,180.6 228.2,180.6 229.5,180.6 230.9,180.6 232.3,180.6 233.6,180.6 235.0,180.6 236.4,182.4 237.7,178.8 239.1,175.3 240.5,177.1 241.8,177.1 243.2,177.1 244.5,177.1 245.9,175.3 247.3,175.3 248.6,175.3 250.0,175.3 251.4,175.3 252.7,178.8 254.1,178.8 255.5,178.8 256.8,178.8 258.2,175.3 259.5,175.3 260.9,178.8 262.3,178.8 263.6,178.8 265.0,175.3 266.4,175.3 267.7,175.3 269.1,175.3 270.5,175.3 271.8,175.3 273.2,177.1 274.5,178.8 275.9,178.8 277.3,178.8 278.6,178.8 280.0,178.8 281.4,178.8 282.7,178.8 284.1,178.8 285.5,178.8 286.8,178.8 288.2,178.8 289.5,178.8 290.9,178.8 292.3,178.8 293.6,178.8 295.0,178.8 296.4,178.8 297.7,178.8 299.1,178.8 300.5,178.8 301.8,178.8 303.2,178.8 304.5,178.8 305.9,178.8 307.3,178.8 308.6,178.8 310.0,178.8 311.4,178.8 312.7,178.8 314.1,178.8 315.5,178.8 316.8,178.8 318.2,178.8 319.5,178.8 320.9,177.1 322.3,178.8 323.6,177.1 325.0,177.1 326.4,177.1 327.7,177.1 329.1,177.1 330.5,177.1 331.8,177.1 333.2,177.1 334.5,178.8 335.9,178.8 337.3,178.8 338.6,178.8 340.0,178.8 341.4,178.8 342.7,178.8 344.1,178.8 345.5,178.8 346.8,178.8 348.2,178.8 349.5,178.8 350.9,171.7 352.3,171.7 353.6,171.7 355.0,173.5 356.4,173.5 357.7,173.5 359.1,173.5 360.5,175.3 361.8,173.5 363.2,171.7 364.5,171.7 365.9,171.7 367.3,175.3 368.6,175.3 370.0,175.3 371.4,175.3 372.7,175.3 374.1,177.1 375.5,177.1 376.8,177.1 378.2,177.1 379.5,177.1 380.9,177.1 382.3,177.1 383.6,177.1 385.0,177.1 386.4,177.1 387.7,177.1 389.1,177.1 390.5,175.3 391.8,180.6 393.2,180.6 394.5,180.6 395.9,180.6 397.3,178.8 398.6,178.8 400.0,178.8 401.4,178.8 402.7,178.8 404.1,178.8 405.5,178.8 406.8,178.8 408.2,175.3 409.5,175.3 410.9,175.3 412.3,175.3 413.6,175.3 415.0,175.3 416.4,175.3 417.7,175.3 419.1,175.3 420.5,175.3 421.8,175.3 423.2,175.3 424.5,175.3 425.9,171.7 427.3,168.2 428.6,168.2 430.0,170.0 431.4,170.0 432.7,170.0 434.1,170.0 435.5,170.0 436.8,170.0 438.2,170.0 439.5,171.7 440.9,170.0 442.3,171.7 443.6,171.7 445.0,171.7 446.4,171.7 447.7,171.7 449.1,171.7 450.5,171.7 451.8,170.0 453.2,170.0 454.5,170.0 455.9,170.0 457.3,170.0 458.6,170.0 460.0,171.7 461.4,178.8 462.7,175.3 464.1,173.5 465.5,171.7 466.8,170.0 468.2,170.0 469.5,171.7 470.9,170.0 472.3,170.0 473.6,168.2 475.0,168.2 476.4,168.2 477.7,168.2 479.1,168.2 480.5,168.2 481.8,166.4 483.2,166.4 484.5,168.2 485.9,168.2 487.3,168.2 488.6,168.2 490.0,168.2 491.4,168.2 492.7,168.2 494.1,168.2 495.5,168.2 496.8,168.2 498.2,168.2 499.5,166.4 500.9,166.4 502.3,168.2 503.6,168.2 505.0,166.4 506.4,166.4 507.7,168.2 509.1,173.5 510.5,177.1 511.8,177.1 513.2,177.1 514.5,177.1 515.9,177.1 517.3,177.1 518.6,177.1 520.0,177.1 521.4,175.3 522.7,177.1 524.1,177.1 525.5,177.1 526.8,177.1 528.2,177.1 529.5,177.1 530.9,177.1 532.3,177.1 533.6,177.1 535.0,177.1 536.4,177.1 537.7,178.8 539.1,178.8 540.5,177.1 541.8,178.8 543.2,178.8 544.5,178.8 545.9,178.8 547.3,177.1 548.6,177.1 550.0,177.1 551.4,177.1 552.7,177.1 554.1,177.1 555.5,177.1 556.8,177.1 558.2,177.1 559.5,177.1 560.9,177.1 562.3,177.1 563.6,177.1 565.0,177.1 566.4,177.1 567.7,166.4 569.1,162.9 570.5,162.9 571.8,166.4 573.2,164.7 574.5,164.7 575.9,161.1 577.3,161.1 578.6,162.9 580.0,162.9 581.4,162.9 582.7,161.1 584.1,161.1 585.5,161.1 586.8,161.1 588.2,161.1 589.5,161.1 590.9,150.5 592.3,152.3 593.6,155.8 595.0,155.8 596.4,157.6 597.7,159.4 599.1,159.4 600.5,157.6 601.8,157.6 603.2,157.6 604.5,157.6 605.9,157.6 607.3,157.6 608.6,154.1 610.0,148.8 611.4,152.3 612.7,150.5 614.1,148.8 615.5,148.8 616.8,147.0 618.2,148.8 619.5,145.2 620.9,155.8 622.3,152.3 623.6,152.3 625.0,155.8 626.4,157.6 627.7,155.8 629.1,155.8 630.5,155.8 631.8,155.8 633.2,161.1 634.5,162.9 635.9,162.9 637.3,164.7 638.6,166.4 640.0,166.4 641.4,166.4 642.7,166.4 644.1,166.4 645.5,166.4 646.8,166.4 648.2,166.4 649.5,164.7 650.9,164.7 652.3,162.9 653.6,164.7 655.0,164.7 656.4,164.7 657.7,164.7 659.1,164.7 660.5,164.7 661.8,164.7 663.2,164.7 664.5,164.7 665.9,164.7 667.3,164.7 668.6,164.7 670.0,164.7 671.4,164.7 672.7,164.7 674.1,164.7 675.5,166.4 676.8,166.4 678.2,166.4 679.5,166.4 680.9,166.4 682.3,168.2 683.6,168.2 685.0,168.2 686.4,168.2 687.7,168.2 689.1,168.2 690.5,168.2 691.8,168.2 693.2,164.7 694.5,164.7 695.9,164.7 697.3,164.7 698.6,164.7 700.0,164.7 701.4,164.7 702.7,164.7 704.1,164.7 705.5,164.7 706.8,164.7 708.2,164.7 709.5,164.7 710.9,164.7 712.3,164.7 713.6,164.7 715.0,164.7 716.4,164.7 717.7,164.7 719.1,168.2 720.5,170.0 721.8,170.0 723.2,170.0 724.5,170.0 725.9,170.0 727.3,170.0 728.6,170.0 730.0,170.0 731.4,170.0 732.7,170.0 734.1,170.0 735.5,170.0 736.8,170.0 738.2,170.0 739.5,170.0 740.9,170.0 742.3,170.0 743.6,170.0 745.0,170.0 746.4,170.0 747.7,170.0 749.1,170.0 750.5,170.0 751.8,170.0 753.2,170.0 754.5,170.0 755.9,170.0 757.3,170.0 758.6,171.7 760.0,173.5 761.4,173.5 762.7,173.5 764.1,175.3 765.5,175.3 766.8,175.3 768.2,177.1 769.5,177.1 770.9,177.1 772.3,177.1 773.6,178.8 775.0,182.4 776.4,191.2 777.7,191.2 779.1,194.7 780.5,203.6 781.8,203.6 783.2,207.1 784.5,203.6 785.9,200.0 787.3,201.8 788.6,201.8 790.0,200.0 791.4,200.0 792.7,203.6 794.1,207.1 795.5,207.1 796.8,205.4 798.2,207.1 799.5,203.6 800.9,203.6 802.3,207.1 803.6,205.4 805.0,207.1 806.4,210.7 807.7,210.7 809.1,210.7 810.5,210.7 811.8,203.6 813.2,203.6 814.5,203.6 815.9,205.4 817.3,210.7 818.6,208.9 820.0,203.6 821.4,205.4 822.7,203.6 824.1,198.3 825.5,205.4 826.8,207.1 828.2,191.2 829.5,198.3 830.9,212.4 832.3,217.7 833.6,214.2 835.0,216.0 836.4,200.0 837.7,194.7 839.1,196.5 840.5,187.7 841.8,184.1 843.2,180.6 844.5,173.5 845.9,147.0 847.3,184.1 848.6,185.9 850.0,189.4 851.4,201.8 852.7,182.4 854.1,191.2 855.5,154.1 856.8,86.8 858.2,69.2 859.5,74.5 860.9,70.9 862.3,69.2 863.6,70.9 865.0,70.9 866.4,65.6 867.7,63.8 869.1,62.1 870.5,62.3 871.8,62.6 873.2,62.3 874.5,62.4 875.9,62.3 877.3,62.4 878.6,62.6 880.0,62.6 881.4,62.8 882.7,62.1 884.1,62.1 885.5,63.0 886.8,63.3 888.2,62.6 889.5,62.6 890.9,69.7 892.3,73.0 893.6,65.6 895.0,65.6 896.4,63.7 897.7,64.7 899.1,64.7 900.5,62.3 901.8,62.3 903.2,63.1 904.5,62.3 905.9,62.1 907.3,61.2 908.6,61.2 910.0,61.2 911.4,60.8 912.7,60.7 914.1,61.2 915.5,60.5 916.8,60.5 918.2,60.5 919.5,60.5 920.9,60.5 922.3,60.5 923.6,60.5 925.0,60.5 926.4,60.5"/>
<polyline fill="none" stroke="#1f77b4" stroke-width="2.0" points="55.0,202.7 56.4,203.6 57.7,204.5 59.1,201.8 60.5,211.5 61.8,211.5 63.2,209.8 64.5,208.9 65.9,208.0 67.3,208.0 68.6,208.9 70.0,196.5 71.4,194.7 72.7,194.7 74.1,193.0 75.5,190.3 76.8,188.5 78.2,188.5 79.5,187.7 80.9,186.8 82.3,185.9 83.6,187.7 85.0,185.0 86.4,186.8 87.7,187.7 89.1,188.5 90.5,185.0 91.8,183.2 93.2,183.2 94.5,183.2 95.9,182.4 97.3,182.4 98.6,182.4 100.0,182.4 101.4,182.4 102.7,182.4 104.1,182.4 105.5,182.4 106.8,182.4 108.2,182.4 109.5,182.4 110.9,182.4 112.3,182.4 113.6,182.4 115.0,182.4 116.4,182.4 117.7,182.4 119.1,182.4 120.5,182.4 121.8,182.4 123.2,182.4 124.5,182.4 125.9,182.4 127.3,182.4 128.6,182.4 130.0,182.4 131.4,182.4 132.7,182.4 134.1,182.4 135.5,182.4 136.8,182.4 138.2,182.4 139.5,182.4 140.9,182.4 142.3,182.4 143.6,182.4 145.0,182.4 146.4,182.4 147.7,182.4 149.1,182.4 150.5,182.4 151.8,182.4 153.2,182.4 154.5,182.4 155.9,182.4 157.3,182.4 158.6,182.4 160.0,182.4 161.4,182.4 162.7,182.4 164.1,182.4 165.5,182.4 166.8,182.4 168.2,182.4 169.5,182.4 170.9,182.4 172.3,182.4 173.6,182.4 175.0,182.4 176.4,182.4 177.7,182.4 179.1,182.4 180.5,182.4 181.8,182.4 183.2,182.4 184.5,182.4 185.9,182.4 187.3,182.4 188.6,182.4 190.0,182.4 191.4,182.4 192.7,182.4 194.1,182.4 195.5,182.4 196.8,182.4 198.2,182.4 199.5,182.4 200.9,182.4 202.3,183.2 203.6,182.4 205.0,182.4 206.4,182.4 207.7,182.4 209.1,182.4 210.5,182.4 211.8,182.4 213.2,182.4 214.5,182.4 215.9,182.4 217.3,182.4 218.6,182.4 220.0,182.4 221.4,182.4 222.7,182.4 224.1,182.4 225.5,182.4 226.8,182.4 228.2,182.4 229.5,182.4 230.9,182.4 232.3,182.4 233.6,182.4 235.0,182.4 236.4,183.2 237.7,181.5 239.1,179.7 240.5,180.6 241.8,180.6 243.2,179.7 244.5,179.7 245.9,178.8 247.3,178.8 248.6,178.8 250.0,178.8 251.4,178.8 252.7,180.6 254.1,179.7 255.5,179.7 256.8,179.7 258.2,177.9 259.5,177.9 260.9,179.7 262.3,179.7 263.6,179.7 265.0,177.9 266.4,177.9 267.7,177.9 269.1,177.9 270.5,177.9 271.8,177.9 273.2,178.8 274.5,179.7 275.9,179.7 277.3,179.7 278.6,179.7 280.0,179.7 281.4,179.7 282.7,179.7 284.1,179.7 285.5,185.0 286.8,185.0 288.2,184.1 289.5,184.1 290.9,180.6 292.3,180.6 293.6,184.1 295.0,184.1 296.4,182.4 297.7,180.6 299.1,179.7 300.5,179.7 301.8,181.5 303.2,181.5 304.5,181.5 305.9,182.4 307.3,180.6 308.6,180.6 310.0,183.2 311.4,181.5 312.7,181.5 314.1,182.4 315.5,182.4 316.8,182.4 318.2,182.4 319.5,182.4 320.9,179.7 322.3,182.4 323.6,181.5 325.0,179.7 326.4,179.7 327.7,182.4 329.1,181.5 330.5,180.6 331.8,182.4 333.2,180.6 334.5,183.2 335.9,182.4 337.3,181.5 338.6,180.6 340.0,181.5 341.4,182.4 342.7,181.5 344.1,181.5 345.5,183.2 346.8,183.2 348.2,181.5 349.5,184.1 350.9,179.7 352.3,179.7 353.6,178.8 355.0,178.8 356.4,178.8 357.7,177.1 359.1,178.8 360.5,181.5 361.8,179.7 363.2,177.9 364.5,177.9 365.9,177.1 367.3,178.8 368.6,178.8 370.0,178.8 371.4,178.8 372.7,178.8 374.1,179.7 375.5,179.7 376.8,179.7 378.2,179.7 379.5,179.7 380.9,179.7 382.3,179.7 383.6,179.7 385.0,179.7 386.4,179.7 387.7,179.7 389.1,179.7 390.5,178.8 391.8,181.5 393.2,181.5 394.5,181.5 395.9,181.5 397.3,180.6 398.6,180.6 400.0,179.7 401.4,179.7 402.7,179.7 404.1,179.7 405.5,179.7 406.8,179.7 408.2,177.9 409.5,177.1 410.9,177.1 412.3,177.1 413.6,177.1 415.0,177.1 416.4,177.1 417.7,177.1 419.1,177.1 420.5,177.1 421.8,177.1 423.2,177.1 424.5,177.1 425.9,175.3 427.3,173.5 428.6,173.5 430.0,173.5 431.4,172.6 432.7,172.6 434.1,172.6 435.5,172.6 436.8,172.6 438.2,172.6 439.5,173.5 440.9,172.6 442.3,173.5 443.6,173.5 445.0,173.5 446.4,173.5 447.7,173.5 449.1,173.5 450.5,173.5 451.8,172.6 453.2,172.6 454.5,172.6 455.9,172.6 457.3,172.6 458.6,172.6 460.0,177.1 461.4,181.5 462.7,179.7 464.1,177.1 465.5,173.5 466.8,170.9 468.2,171.7 469.5,172.6 470.9,171.7 472.3,171.7 473.6,170.0 475.0,170.0 476.4,170.0 477.7,170.0 479.1,170.9 480.5,170.9 481.8,169.1 483.2,169.1 484.5,170.0 485.9,170.0 487.3,170.0 488.6,170.0 490.0,170.0 491.4,170.0 492.7,170.0 494.1,170.0 495.5,170.0 496.8,170.0 498.2,170.0 499.5,168.2 500.9,168.2 502.3,170.0 503.6,170.0 505.0,169.1 506.4,169.1 507.7,170.0 509.1,177.9 510.5,179.7 511.8,179.7 513.2,179.7 514.5,179.7 515.9,179.7 517.3,179.7 518.6,179.7 520.0,179.7 521.4,178.8 522.7,179.7 524.1,179.7 525.5,179.7 526.8,179.7 528.2,179.7 529.5,179.7 530.9,179.7 532.3,179.7 533.6,179.7 535.0,179.7 536.4,179.7 537.7,181.5 539.1,181.5 540.5,179.7 541.8,181.5 543.2,181.5 544.5,181.5 545.9,181.5 547.3,178.8 548.6,178.8 550.0,178.8 551.4,178.8 552.7,178.8 554.1,178.8 555.5,178.8 556.8,178.8 558.2,178.8 559.5,178.8 560.9,178.8 562.3,178.8 563.6,178.8 565.0,178.8 566.4,178.8 567.7,170.0 569.1,167.3 570.5,166.4 571.8,170.0 573.2,168.2 574.5,169.1 575.9,164.7 577.3,164.7 578.6,166.4 580.0,166.4 581.4,166.4 582.7,164.7 584.1,167.3 585.5,166.4 586.8,163.8 588.2,162.0 589.5,162.0 590.9,153.2 592.3,154.9 593.6,156.7 595.0,156.7 596.4,160.2 597.7,160.2 599.1,160.2 600.5,159.4 601.8,159.4 603.2,159.4 604.5,159.4 605.9,158.5 607.3,158.5 608.6,155.8 610.0,154.1 611.4,154.9 612.7,154.1 614.1,151.4 615.5,150.5 616.8,149.6 618.2,149.6 619.5,147.9 620.9,156.7 622.3,154.1 623.6,153.2 625.0,157.6 626.4,158.5 627.7,157.6 629.1,159.4 630.5,158.5 631.8,158.5 633.2,166.4 634.5,167.3 635.9,167.3 637.3,167.3 638.6,168.2 640.0,168.2 641.4,168.2 642.7,168.2 644.1,167.3 645.5,167.3 646.8,167.3 648.2,167.3 649.5,166.4 650.9,165.6 652.3,164.7 653.6,165.6 655.0,165.6 656.4,165.6 657.7,165.6 659.1,165.6 660.5,165.6 661.8,165.6 663.2,165.6 664.5,165.6 665.9,165.6 667.3,165.6 668.6,165.6 670.0,165.6 671.4,165.6 672.7,165.6 674.1,165.6 675.5,167.3 676.8,167.3 678.2,167.3 679.5,167.3 680.9,167.3 682.3,169.1 683.6,169.1 685.0,169.1 686.4,169.1 687.7,169.1 689.1,169.1 690.5,169.1 691.8,169.1 693.2,165.6 694.5,165.6 695.9,165.6 697.3,165.6 698.6,165.6 700.0,165.6 701.4,165.6 702.7,165.6 704.1,165.6 705.5,165.6 706.8,165.6 708.2,165.6 709.5,165.6 710.9,165.6 712.3,165.6 713.6,165.6 715.0,165.6 716.4,165.6 717.7,165.6 719.1,168.2 720.5,170.9 721.8,170.9 723.2,170.9 724.5,170.9 725.9,170.9 727.3,170.9 728.6,170.9 730.0,170.9 731.4,170.9 732.7,170.9 734.1,170.9 735.5,170.9 736.8,170.9 738.2,170.9 739.5,170.9 740.9,170.9 742.3,170.9 743.6,170.9 745.0,170.9 746.4,170.9 747.7,170.9 749.1,170.9 750.5,170.9 751.8,170.9 753.2,171.7 754.5,170.9 755.9,170.9 757.3,171.7 758.6,172.6 760.0,174.4 761.4,174.4 762.7,174.4 764.1,176.2 765.5,177.1 766.8,177.1 768.2,177.9 769.5,177.9 770.9,177.9 772.3,177.9 773.6,181.5 775.0,183.2 776.4,192.1 777.7,192.1 779.1,195.6 780.5,204.5 781.8,204.5 783.2,208.0 784.5,204.5 785.9,202.7 787.3,202.7 788.6,202.7 790.0,202.7 791.4,202.7 792.7,206.2 794.1,208.0 795.5,208.0 796.8,207.1 798.2,208.0 799.5,206.2 800.9,206.2 802.3,210.7 803.6,207.1 805.0,209.8 806.4,212.4 807.7,211.5 809.1,211.5 810.5,213.3 811.8,206.2 813.2,206.2 814.5,206.2 815.9,208.9 817.3,212.4 818.6,209.8 820.0,206.2 821.4,208.0 822.7,207.1 824.1,200.9 825.5,207.1 826.8,208.9 828.2,193.9 829.5,200.0 830.9,214.2 832.3,218.6 833.6,216.9 835.0,218.6 836.4,205.4 837.7,198.3 839.1,198.3 840.5,189.4 841.8,185.9 843.2,183.2 844.5,180.6 845.9,156.7 847.3,188.5 848.6,193.0 850.0,192.1 851.4,202.7 852.7,186.8 854.1,192.1 855.5,157.6 856.8,93.9 858.2,71.8 859.5,78.0 860.9,73.6 862.3,70.0 863.6,71.8 865.0,71.8 866.4,66.5 867.7,64.7 869.1,63.0 870.5,63.0 871.8,63.2 873.2,62.6 874.5,63.1 875.9,62.9 877.3,63.1 878.6,63.7 880.0,63.7 881.4,63.7 882.7,63.4 884.1,63.4 885.5,63.6 886.8,63.8 888.2,63.4 889.5,63.4 890.9,83.9 892.3,79.9 893.6,67.2 895.0,67.6 896.4,65.3 897.7,66.7 899.1,66.9 900.5,64.9 901.8,64.0 903.2,64.8 904.5,62.5 905.9,63.8 907.3,61.6 908.6,61.5 910.0,61.5 911.4,61.0 912.7,61.3 914.1,61.5 915.5,61.2 916.8,61.2 918.2,61.2 919.5,61.2 920.9,61.2 922.3,61.2 923.6,60.7 925.0,60.7 926.4,60.7"/>
<text class="small" x="740" y="70.0" fill="#1f77b4">mid</text>
<text class="small" x="780" y="70.0" fill="#2ca02c">bid</text>
<text class="small" x="820" y="70.0" fill="#d62728">ask</text>
<line class="grid" x1="55" y1="459.7" x2="955" y2="459.7"/>
<text class="small" x="18" y="463.7">0.00</text>
<line class="grid" x1="55" y1="415.5" x2="955" y2="415.5"/>
<text class="small" x="18" y="419.5">0.25</text>
<line class="grid" x1="55" y1="371.2" x2="955" y2="371.2"/>
<text class="small" x="18" y="375.2">0.50</text>
<line class="grid" x1="55" y1="327.0" x2="955" y2="327.0"/>
<text class="small" x="18" y="331.0">0.75</text>
<line class="grid" x1="55" y1="282.8" x2="955" y2="282.8"/>
<text class="small" x="18" y="286.8">1.00</text>
<text x="55" y="269.5">Jun 10 / 28C YES</text>
<polyline fill="none" stroke="#2ca02c" stroke-width="1.2" points="55.0,422.5 56.4,419.0 57.7,419.0 59.1,419.0 60.4,419.0 61.8,419.0 63.2,419.0 64.5,417.2 65.9,417.2 67.3,417.2 68.6,413.7 70.0,413.7 71.3,413.7 72.7,408.4 74.1,403.1 75.4,399.6 76.8,401.3 78.1,401.3 79.5,401.3 80.9,401.3 82.2,401.3 83.6,401.3 85.0,401.3 86.3,401.3 87.7,401.3 89.0,401.3 90.4,399.6 91.8,406.6 93.1,404.9 94.5,404.9 95.8,404.9 97.2,403.1 98.6,403.1 99.9,403.1 101.3,403.1 102.7,403.1 104.0,403.1 105.4,403.1 106.7,403.1 108.1,403.1 109.5,403.1 110.8,403.1 112.2,403.1 113.5,403.1 114.9,403.1 116.3,403.1 117.6,403.1 119.0,403.1 120.4,403.1 121.7,403.1 123.1,403.1 124.4,403.1 125.8,403.1 127.2,403.1 128.5,403.1 129.9,403.1 131.2,403.1 132.6,403.1 134.0,403.1 135.3,403.1 136.7,403.1 138.1,403.1 139.4,403.1 140.8,403.1 142.1,403.1 143.5,403.1 144.9,403.1 146.2,403.1 147.6,403.1 148.9,403.1 150.3,403.1 151.7,403.1 153.0,403.1 154.4,403.1 155.8,403.1 157.1,403.1 158.5,403.1 159.8,403.1 161.2,403.1 162.6,403.1 163.9,403.1 165.3,411.9 166.6,413.7 168.0,411.9 169.4,411.9 170.7,410.2 172.1,410.2 173.5,410.2 174.8,410.2 176.2,410.2 177.5,410.2 178.9,408.4 180.3,408.4 181.6,408.4 183.0,417.2 184.3,413.7 185.7,411.9 187.1,410.2 188.4,410.2 189.8,410.2 191.2,408.4 192.5,408.4 193.9,408.4 195.2,408.4 196.6,408.4 198.0,408.4 199.3,408.4 200.7,408.4 202.0,408.4 203.4,408.4 204.8,406.6 206.1,406.6 207.5,406.6 208.9,406.6 210.2,406.6 211.6,406.6 212.9,406.6 214.3,406.6 215.7,406.6 217.0,404.9 218.4,404.9 219.8,408.4 221.1,410.2 222.5,406.6 223.8,406.6 225.2,406.6 226.6,410.2 227.9,403.1 229.3,403.1 230.6,403.1 232.0,403.1 233.4,401.3 234.7,401.3 236.1,408.4 237.5,406.6 238.8,404.9 240.2,404.9 241.5,404.9 242.9,404.9 244.3,406.6 245.6,406.6 247.0,406.6 248.3,406.6 249.7,404.9 251.1,404.9 252.4,404.9 253.8,404.9 255.2,406.6 256.5,406.6 257.9,406.6 259.2,406.6 260.6,404.9 262.0,404.9 263.3,404.9 264.7,406.6 266.0,406.6 267.4,406.6 268.8,406.6 270.1,411.9 271.5,410.2 272.9,408.4 274.2,406.6 275.6,404.9 276.9,404.9 278.3,404.9 279.7,408.4 281.0,404.9 282.4,404.9 283.7,404.9 285.1,404.9 286.5,406.6 287.8,406.6 289.2,408.4 290.6,406.6 291.9,404.9 293.3,404.9 294.6,404.9 296.0,404.9 297.4,404.9 298.7,404.9 300.1,404.9 301.4,404.9 302.8,397.8 304.2,399.6 305.5,399.6 306.9,399.6 308.3,399.6 309.6,399.6 311.0,399.6 312.3,399.6 313.7,399.6 315.1,399.6 316.4,399.6 317.8,399.6 319.1,399.6 320.5,399.6 321.9,399.6 323.2,399.6 324.6,399.6 326.0,399.6 327.3,399.6 328.7,399.6 330.0,399.6 331.4,399.6 332.8,399.6 334.1,399.6 335.5,399.6 336.8,399.6 338.2,399.6 339.6,399.6 340.9,399.6 342.3,399.6 343.7,399.6 345.0,399.6 346.4,399.6 347.7,399.6 349.1,399.6 350.5,399.6 351.8,399.6 353.2,399.6 354.5,399.6 355.9,399.6 357.3,399.6 358.6,399.6 360.0,399.6 361.4,399.6 362.7,399.6 364.1,397.8 365.4,397.8 366.8,397.8 368.2,397.8 369.5,397.8 370.9,397.8 372.2,397.8 373.6,397.8 375.0,397.8 376.3,397.8 377.7,397.8 379.1,397.8 380.4,397.8 381.8,397.8 383.1,397.8 384.5,397.8 385.9,397.8 387.2,397.8 388.6,397.8 389.9,397.8 391.3,397.8 392.7,397.8 394.0,397.8 395.4,397.8 396.8,397.8 398.1,397.8 399.5,397.8 400.8,397.8 402.2,397.8 403.6,397.8 404.9,396.0 406.3,396.0 407.6,397.8 409.0,397.8 410.4,397.8 411.7,397.8 413.1,397.8 414.5,404.9 415.8,404.9 417.2,404.9 418.5,404.9 419.9,403.1 421.3,403.1 422.6,401.3 424.0,403.1 425.3,404.9 426.7,404.9 428.1,401.3 429.4,401.3 430.8,401.3 432.2,401.3 433.5,401.3 434.9,401.3 436.2,399.6 437.6,399.6 439.0,399.6 440.3,399.6 441.7,399.6 443.0,399.6 444.4,397.8 445.8,397.8 447.1,397.8 448.5,397.8 449.9,397.8 451.2,397.8 452.6,397.8 453.9,397.8 455.3,397.8 456.7,397.8 458.0,397.8 459.4,397.8 460.7,397.8 462.1,397.8 463.5,397.8 464.8,401.3 466.2,401.3 467.6,397.8 468.9,399.6 470.3,397.8 471.6,396.0 473.0,396.0 474.4,396.0 475.7,401.3 477.1,403.1 478.4,399.6 479.8,399.6 481.2,399.6 482.5,397.8 483.9,397.8 485.3,397.8 486.6,403.1 488.0,403.1 489.3,397.8 490.7,396.0 492.1,396.0 493.4,396.0 494.8,396.0 496.1,396.0 497.5,394.2 498.9,394.2 500.2,394.2 501.6,397.8 503.0,397.8 504.3,397.8 505.7,397.8 507.0,399.6 508.4,399.6 509.8,396.0 511.1,396.0 512.5,396.0 513.9,396.0 515.2,396.0 516.6,396.0 517.9,396.0 519.3,396.0 520.7,396.0 522.0,396.0 523.4,396.0 524.7,394.2 526.1,394.2 527.5,394.2 528.8,397.8 530.2,397.8 531.6,397.8 532.9,396.0 534.3,397.8 535.6,397.8 537.0,396.0 538.4,399.6 539.7,397.8 541.1,394.2 542.4,394.2 543.8,394.2 545.2,394.2 546.5,394.2 547.9,394.2 549.3,392.5 550.6,392.5 552.0,392.5 553.3,392.5 554.7,390.7 556.1,390.7 557.4,390.7 558.8,394.2 560.1,392.5 561.5,396.0 562.9,388.9 564.2,394.2 565.6,394.2 567.0,392.5 568.3,392.5 569.7,394.2 571.0,390.7 572.4,390.7 573.8,392.5 575.1,392.5 576.5,394.2 577.8,392.5 579.2,394.2 580.6,394.2 581.9,396.0 583.3,394.2 584.7,394.2 586.0,388.9 587.4,390.7 588.7,378.3 590.1,376.6 591.5,383.6 592.8,376.6 594.2,376.6 595.5,378.3 596.9,378.3 598.3,380.1 599.6,381.9 601.0,383.6 602.4,381.9 603.7,385.4 605.1,383.6 606.4,383.6 607.8,383.6 609.2,383.6 610.5,383.6 611.9,383.6 613.2,383.6 614.6,385.4 616.0,383.6 617.3,383.6 618.7,383.6 620.1,383.6 621.4,383.6 622.8,380.1 624.1,380.1 625.5,380.1 626.9,380.1 628.2,380.1 629.6,381.9 630.9,383.6 632.3,381.9 633.7,381.9 635.0,383.6 636.4,383.6 637.8,383.6 639.1,376.6 640.5,376.6 641.8,378.3 643.2,376.6 644.6,378.3 645.9,378.3 647.3,378.3 648.6,378.3 650.0,378.3 651.4,376.6 652.7,378.3 654.1,378.3 655.5,376.6 656.8,376.6 658.2,376.6 659.5,376.6 660.9,376.6 662.3,376.6 663.6,376.6 665.0,376.6 666.3,376.6 667.7,376.6 669.1,376.6 670.4,376.6 671.8,374.8 673.2,374.8 674.5,374.8 675.9,374.8 677.2,374.8 678.6,374.8 680.0,374.8 681.3,374.8 682.7,374.8 684.0,374.8 685.4,374.8 686.8,374.8 688.1,374.8 689.5,374.8 690.9,374.8 692.2,374.8 693.6,374.8 694.9,374.8 696.3,374.8 697.7,374.8 699.0,374.8 700.4,374.8 701.7,374.8 703.1,374.8 704.5,374.8 705.8,374.8 707.2,374.8 708.6,374.8 709.9,374.8 711.3,374.8 712.6,374.8 714.0,374.8 715.4,374.8 716.7,374.8 718.1,374.8 719.4,378.3 720.8,378.3 722.2,378.3 723.5,378.3 724.9,378.3 726.3,383.6 727.6,381.9 729.0,380.1 730.3,380.1 731.7,380.1 733.1,380.1 734.4,380.1 735.8,380.1 737.1,380.1 738.5,380.1 739.9,381.9 741.2,381.9 742.6,383.6 744.0,383.6 745.3,383.6 746.7,383.6 748.0,383.6 749.4,383.6 750.8,383.6 752.1,383.6 753.5,383.6 754.8,383.6 756.2,385.4 757.6,387.2 758.9,387.2 760.3,387.2 761.7,388.9 763.0,387.2 764.4,388.9 765.7,388.9 767.1,387.2 768.5,387.2 769.8,387.2 771.2,387.2 772.5,387.2 773.9,390.7 775.3,392.5 776.6,394.2 778.0,399.6 779.4,401.3 780.7,399.6 782.1,397.8 783.4,394.2 784.8,394.2 786.2,376.6 787.5,378.3 788.9,380.1 790.2,380.1 791.6,381.9 793.0,381.9 794.3,381.9 795.7,380.1 797.1,376.6 798.4,374.8 799.8,373.0 801.1,374.8 802.5,374.8 803.9,378.3 805.2,380.1 806.6,381.9 808.0,381.9 809.3,381.9 810.7,380.1 812.0,378.3 813.4,378.3 814.8,380.1 816.1,376.6 817.5,374.8 818.8,371.2 820.2,371.2 821.6,374.8 822.9,374.8 824.3,369.5 825.7,369.5 827.0,369.5 828.4,369.5 832.5,369.5 833.8,367.7 835.2,358.9 836.5,353.6 837.9,342.9 839.3,341.2 840.6,341.2 842.0,357.1 843.4,357.1 844.7,358.9 846.1,358.9 847.4,346.5 848.8,327.0 850.2,316.4 851.5,316.4 852.9,320.0 854.2,320.0 855.6,311.1 857.0,318.2 858.3,320.0 859.7,302.3 861.1,305.8 862.4,311.1 863.8,307.6 865.1,302.3 866.5,307.6 867.9,305.8 869.2,307.6 870.6,305.8 871.9,305.8 873.3,302.3 874.7,298.7 876.0,298.7 877.4,297.0 878.8,295.2 880.1,295.2 881.5,289.9 882.8,291.7 884.2,291.7 885.6,289.9 886.9,289.9 888.3,288.1 889.6,288.1 891.0,289.9 892.4,284.6 893.7,284.6 895.1,284.2 896.5,284.4 897.8,284.4 899.2,284.4 900.5,283.7 901.9,283.0 903.3,283.0 904.6,283.2 906.0,283.2 907.3,283.2 908.7,283.2 910.1,283.2 911.4,283.2 912.8,283.0 914.2,283.0 915.5,283.0 916.9,283.0 918.2,283.0 919.6,283.0 921.0,283.0 922.3,283.0 923.7,283.0 925.0,283.0 926.4,283.0 927.8,283.0 929.1,283.0 930.5,283.0 931.9,283.0 933.2,283.0 934.6,283.0 935.9,283.0 937.3,283.0 938.7,283.0 940.0,283.0 941.4,283.0 942.7,283.0 944.1,283.0 945.5,283.0 946.8,283.0 948.2,283.0 949.6,283.0 950.9,283.0 952.3,283.0 953.6,283.0 955.0,283.0"/>
<polyline fill="none" stroke="#d62728" stroke-width="1.2" points="55.0,411.9 56.4,408.4 57.7,411.9 59.1,411.9 60.4,411.9 61.8,411.9 63.2,411.9 64.5,411.9 65.9,411.9 67.3,411.9 68.6,411.9 70.0,411.9 71.3,411.9 72.7,399.6 74.1,394.2 75.4,396.0 76.8,394.2 78.1,397.8 79.5,397.8 80.9,397.8 82.2,399.6 83.6,394.2 85.0,394.2 86.3,392.5 87.7,392.5 89.0,392.5 90.4,392.5 91.8,397.8 93.1,397.8 94.5,397.8 95.8,399.6 97.2,401.3 98.6,401.3 99.9,401.3 101.3,401.3 102.7,401.3 104.0,399.6 105.4,399.6 106.7,399.6 108.1,399.6 109.5,399.6 110.8,399.6 112.2,399.6 113.5,399.6 114.9,397.8 116.3,397.8 117.6,399.6 119.0,399.6 120.4,397.8 121.7,397.8 123.1,399.6 124.4,399.6 125.8,399.6 127.2,399.6 128.5,399.6 129.9,399.6 131.2,399.6 132.6,399.6 134.0,399.6 135.3,399.6 136.7,399.6 138.1,399.6 139.4,399.6 140.8,399.6 142.1,397.8 143.5,397.8 144.9,397.8 146.2,397.8 147.6,397.8 148.9,397.8 150.3,397.8 151.7,397.8 153.0,397.8 154.4,399.6 155.8,397.8 157.1,397.8 158.5,399.6 159.8,399.6 161.2,399.6 162.6,399.6 163.9,399.6 165.3,399.6 166.6,399.6 168.0,399.6 169.4,401.3 170.7,401.3 172.1,399.6 173.5,399.6 174.8,397.8 176.2,397.8 177.5,397.8 178.9,397.8 180.3,399.6 181.6,399.6 183.0,403.1 184.3,406.6 185.7,406.6 187.1,406.6 188.4,406.6 189.8,406.6 191.2,406.6 192.5,406.6 193.9,406.6 195.2,406.6 196.6,406.6 198.0,406.6 199.3,406.6 200.7,406.6 202.0,406.6 203.4,401.3 204.8,403.1 206.1,404.9 207.5,404.9 208.9,404.9 210.2,404.9 211.6,404.9 212.9,403.1 214.3,403.1 215.7,403.1 217.0,403.1 218.4,403.1 219.8,404.9 221.1,404.9 222.5,404.9 223.8,404.9 225.2,404.9 226.6,399.6 227.9,396.0 229.3,394.2 230.6,396.0 232.0,396.0 233.4,397.8 234.7,399.6 236.1,401.3 237.5,396.0 238.8,396.0 240.2,397.8 241.5,396.0 242.9,396.0 244.3,396.0 245.6,396.0 247.0,396.0 248.3,396.0 249.7,396.0 251.1,396.0 252.4,396.0 253.8,396.0 255.2,397.8 256.5,397.8 257.9,397.8 259.2,397.8 260.6,396.0 262.0,396.0 263.3,396.0 264.7,396.0 266.0,396.0 267.4,396.0 268.8,396.0 270.1,397.8 271.5,396.0 272.9,403.1 274.2,404.9 275.6,403.1 276.9,403.1 278.3,403.1 279.7,403.1 281.0,403.1 282.4,403.1 283.7,403.1 285.1,403.1 286.5,404.9 287.8,403.1 289.2,403.1 290.6,404.9 291.9,403.1 293.3,403.1 294.6,403.1 296.0,403.1 297.4,392.5 298.7,392.5 300.1,392.5 301.4,392.5 302.8,394.2 304.2,394.2 305.5,396.0 306.9,396.0 308.3,396.0 309.6,396.0 311.0,392.5 312.3,390.7 313.7,394.2 315.1,396.0 316.4,396.0 317.8,396.0 319.1,392.5 320.5,392.5 321.9,392.5 323.2,392.5 324.6,394.2 326.0,394.2 327.3,394.2 328.7,394.2 330.0,394.2 331.4,396.0 332.8,396.0 334.1,396.0 335.5,394.2 336.8,394.2 338.2,394.2 339.6,396.0 340.9,396.0 342.3,396.0 343.7,396.0 345.0,396.0 346.4,396.0 347.7,396.0 349.1,396.0 350.5,396.0 351.8,394.2 353.2,394.2 354.5,394.2 355.9,394.2 357.3,394.2 358.6,394.2 360.0,394.2 361.4,394.2 362.7,394.2 364.1,394.2 365.4,392.5 366.8,390.7 368.2,390.7 369.5,392.5 370.9,394.2 372.2,394.2 373.6,394.2 375.0,392.5 376.3,394.2 377.7,396.0 379.1,396.0 380.4,394.2 381.8,394.2 383.1,394.2 384.5,396.0 385.9,396.0 387.2,392.5 388.6,392.5 389.9,394.2 391.3,394.2 392.7,396.0 394.0,396.0 395.4,396.0 396.8,392.5 398.1,394.2 399.5,392.5 400.8,392.5 402.2,390.7 403.6,392.5 404.9,390.7 406.3,390.7 407.6,390.7 409.0,390.7 410.4,392.5 411.7,396.0 413.1,396.0 414.5,397.8 415.8,399.6 417.2,397.8 418.5,397.8 419.9,397.8 421.3,397.8 422.6,396.0 424.0,397.8 425.3,399.6 426.7,399.6 428.1,396.0 429.4,397.8 430.8,396.0 432.2,396.0 433.5,396.0 434.9,397.8 436.2,397.8 437.6,396.0 439.0,396.0 440.3,396.0 441.7,396.0 443.0,396.0 444.4,396.0 445.8,396.0 447.1,396.0 448.5,396.0 449.9,396.0 451.2,396.0 452.6,396.0 453.9,396.0 455.3,396.0 456.7,396.0 458.0,396.0 459.4,396.0 460.7,396.0 462.1,396.0 463.5,396.0 464.8,396.0 466.2,397.8 467.6,392.5 468.9,392.5 470.3,392.5 471.6,392.5 473.0,392.5 474.4,392.5 475.7,396.0 477.1,394.2 478.4,392.5 479.8,392.5 481.2,392.5 482.5,392.5 483.9,392.5 485.3,392.5 486.6,394.2 488.0,394.2 489.3,392.5 490.7,390.7 492.1,390.7 493.4,390.7 494.8,390.7 496.1,390.7 497.5,390.7 498.9,390.7 500.2,390.7 501.6,392.5 503.0,392.5 504.3,392.5 505.7,392.5 507.0,392.5 508.4,392.5 509.8,390.7 511.1,390.7 512.5,390.7 513.9,390.7 515.2,390.7 516.6,390.7 517.9,390.7 519.3,390.7 520.7,390.7 522.0,390.7 523.4,390.7 524.7,392.5 526.1,392.5 527.5,392.5 528.8,392.5 530.2,392.5 531.6,390.7 532.9,390.7 534.3,392.5 535.6,392.5 537.0,390.7 538.4,390.7 539.7,390.7 541.1,390.7 542.4,390.7 543.8,390.7 545.2,390.7 546.5,390.7 547.9,390.7 549.3,387.2 550.6,387.2 552.0,387.2 553.3,385.4 554.7,385.4 556.1,385.4 557.4,387.2 558.8,385.4 560.1,387.2 561.5,388.9 562.9,385.4 564.2,385.4 565.6,385.4 567.0,385.4 568.3,385.4 569.7,385.4 571.0,385.4 572.4,385.4 573.8,388.9 575.1,388.9 576.5,388.9 577.8,388.9 579.2,388.9 580.6,388.9 581.9,388.9 583.3,388.9 584.7,388.9 586.0,383.6 587.4,383.6 588.7,374.8 590.1,374.8 591.5,378.3 592.8,374.8 594.2,371.2 595.5,373.0 596.9,374.8 598.3,374.8 599.6,378.3 601.0,376.6 602.4,376.6 603.7,376.6 605.1,376.6 606.4,381.9 607.8,381.9 609.2,381.9 610.5,381.9 611.9,381.9 613.2,381.9 614.6,381.9 616.0,380.1 617.3,380.1 618.7,381.9 620.1,381.9 621.4,380.1 622.8,376.6 624.1,378.3 625.5,378.3 626.9,378.3 628.2,378.3 629.6,378.3 630.9,380.1 632.3,380.1 633.7,380.1 635.0,380.1 636.4,380.1 637.8,381.9 639.1,371.2 640.5,371.2 641.8,373.0 643.2,371.2 644.6,373.0 645.9,373.0 647.3,373.0 648.6,373.0 650.0,373.0 651.4,374.8 652.7,374.8 654.1,374.8 655.5,374.8 656.8,374.8 658.2,374.8 659.5,374.8 660.9,374.8 662.3,374.8 663.6,374.8 665.0,374.8 666.3,374.8 667.7,374.8 669.1,374.8 670.4,374.8 671.8,373.0 673.2,373.0 674.5,373.0 675.9,373.0 677.2,373.0 678.6,373.0 680.0,373.0 681.3,373.0 682.7,373.0 684.0,373.0 685.4,373.0 686.8,373.0 688.1,373.0 689.5,373.0 690.9,373.0 692.2,373.0 693.6,373.0 694.9,373.0 696.3,373.0 697.7,373.0 699.0,373.0 700.4,373.0 701.7,373.0 703.1,373.0 704.5,373.0 705.8,373.0 707.2,373.0 708.6,373.0 709.9,373.0 711.3,373.0 712.6,373.0 714.0,373.0 715.4,373.0 716.7,373.0 718.1,373.0 719.4,374.8 720.8,376.6 722.2,376.6 723.5,376.6 724.9,376.6 726.3,378.3 727.6,378.3 729.0,378.3 730.3,378.3 731.7,378.3 733.1,378.3 734.4,378.3 735.8,378.3 737.1,378.3 738.5,378.3 739.9,378.3 741.2,380.1 742.6,381.9 744.0,381.9 745.3,381.9 746.7,381.9 748.0,381.9 749.4,380.1 750.8,381.9 752.1,381.9 753.5,381.9 754.8,381.9 756.2,383.6 757.6,385.4 758.9,383.6 760.3,385.4 761.7,385.4 763.0,385.4 764.4,387.2 765.7,387.2 767.1,385.4 768.5,385.4 769.8,385.4 771.2,385.4 772.5,385.4 773.9,387.2 775.3,390.7 776.6,392.5 778.0,396.0 779.4,397.8 780.7,396.0 782.1,396.0 783.4,392.5 784.8,390.7 786.2,371.2 787.5,373.0 788.9,376.6 790.2,376.6 791.6,378.3 793.0,378.3 794.3,376.6 795.7,374.8 797.1,373.0 798.4,371.2 799.8,371.2 801.1,371.2 802.5,373.0 803.9,376.6 805.2,378.3 806.6,376.6 808.0,380.1 809.3,378.3 810.7,376.6 812.0,374.8 813.4,374.8 814.8,376.6 816.1,374.8 817.5,371.2 818.8,369.5 820.2,369.5 821.6,373.0 822.9,371.2 824.3,365.9 825.7,367.7 827.0,367.7 828.4,367.7 832.5,367.7 833.8,362.4 835.2,353.6 836.5,351.8 837.9,337.6 839.3,335.9 840.6,335.9 842.0,344.7 843.4,344.7 844.7,351.8 846.1,351.8 847.4,342.9 848.8,311.1 850.2,311.1 851.5,311.1 852.9,314.6 854.2,311.1 855.6,309.3 857.0,309.3 858.3,318.2 859.7,298.7 861.1,302.3 862.4,302.3 863.8,302.3 865.1,297.0 866.5,304.0 867.9,300.5 869.2,302.3 870.6,300.5 871.9,300.5 873.3,298.7 874.7,297.0 876.0,295.2 877.4,295.2 878.8,291.7 880.1,289.9 881.5,288.1 882.8,288.1 884.2,286.3 885.6,288.1 886.9,288.1 888.3,286.3 889.6,286.3 891.0,288.1 892.4,283.9 893.7,283.0 895.1,283.3 896.5,283.3 897.8,283.3 899.2,283.3 900.5,283.0"/>
<polyline fill="none" stroke="#d62728" stroke-width="1.2" points="904.6,283.0 906.0,283.0 907.3,283.0 908.7,283.0 910.1,283.0 911.4,283.0 912.8,283.0"/>
<polyline fill="none" stroke="#1f77b4" stroke-width="2.0" points="55.0,417.2 56.4,413.7 57.7,415.5 59.1,415.5 60.4,415.5 61.8,415.5 63.2,415.5 64.5,414.6 65.9,414.6 67.3,414.6 68.6,412.8 70.0,412.8 71.3,412.8 72.7,404.0 74.1,398.7 75.4,397.8 76.8,397.8 78.1,399.6 79.5,399.6 80.9,399.6 82.2,400.4 83.6,397.8 85.0,397.8 86.3,396.9 87.7,396.9 89.0,396.9 90.4,396.0 91.8,402.2 93.1,401.3 94.5,401.3 95.8,402.2 97.2,402.2 98.6,402.2 99.9,402.2 101.3,402.2 102.7,402.2 104.0,401.3 105.4,401.3 106.7,401.3 108.1,401.3 109.5,401.3 110.8,401.3 112.2,401.3 113.5,401.3 114.9,400.4 116.3,400.4 117.6,401.3 119.0,401.3 120.4,400.4 121.7,400.4 123.1,401.3 124.4,401.3 125.8,401.3 127.2,401.3 128.5,401.3 129.9,401.3 131.2,401.3 132.6,401.3 134.0,401.3 135.3,401.3 136.7,401.3 138.1,401.3 139.4,401.3 140.8,401.3 142.1,400.4 143.5,400.4 144.9,400.4 146.2,400.4 147.6,400.4 148.9,400.4 150.3,400.4 151.7,400.4 153.0,400.4 154.4,401.3 155.8,400.4 157.1,400.4 158.5,401.3 159.8,401.3 161.2,401.3 162.6,401.3 163.9,401.3 165.3,405.7 166.6,406.6 168.0,405.7 169.4,406.6 170.7,405.7 172.1,404.9 173.5,404.9 174.8,404.0 176.2,404.0 177.5,404.0 178.9,403.1 180.3,404.0 181.6,404.0 183.0,410.2 184.3,410.2 185.7,409.3 187.1,408.4 188.4,408.4 189.8,408.4 191.2,407.5 192.5,407.5 193.9,407.5 195.2,407.5 196.6,407.5 198.0,407.5 199.3,407.5 200.7,407.5 202.0,407.5 203.4,404.9 204.8,404.9 206.1,405.7 207.5,405.7 208.9,405.7 210.2,405.7 211.6,405.7 212.9,404.9 214.3,404.9 215.7,404.9 217.0,404.0 218.4,404.0 219.8,406.6 221.1,407.5 222.5,405.7 223.8,405.7 225.2,405.7 226.6,404.9 227.9,399.6 229.3,398.7 230.6,399.6 232.0,399.6 233.4,399.6 234.7,400.4 236.1,404.9 237.5,401.3 238.8,400.4 240.2,401.3 241.5,400.4 242.9,400.4 244.3,401.3 245.6,401.3 247.0,401.3 248.3,401.3 249.7,400.4 251.1,400.4 252.4,400.4 253.8,400.4 255.2,402.2 256.5,402.2 257.9,402.2 259.2,402.2 260.6,400.4 262.0,400.4 263.3,400.4 264.7,401.3 266.0,401.3 267.4,401.3 268.8,401.3 270.1,404.9 271.5,403.1 272.9,405.7 274.2,405.7 275.6,404.0 276.9,404.0 278.3,404.0 279.7,405.7 281.0,404.0 282.4,404.0 283.7,404.0 285.1,404.0 286.5,405.7 287.8,404.9 289.2,405.7 290.6,405.7 291.9,404.0 293.3,404.0 294.6,404.0 296.0,404.0 297.4,398.7 298.7,398.7 300.1,398.7 301.4,398.7 302.8,396.0 304.2,396.9 305.5,397.8 306.9,397.8 308.3,397.8 309.6,397.8 311.0,396.0 312.3,395.1 313.7,396.9 315.1,397.8 316.4,397.8 317.8,397.8 319.1,396.0 320.5,396.0 321.9,396.0 323.2,396.0 324.6,396.9 326.0,396.9 327.3,396.9 328.7,396.9 330.0,396.9 331.4,397.8 332.8,397.8 334.1,397.8 335.5,396.9 336.8,396.9 338.2,396.9 339.6,397.8 340.9,397.8 342.3,397.8 343.7,397.8 345.0,397.8 346.4,397.8 347.7,397.8 349.1,397.8 350.5,397.8 351.8,396.9 353.2,396.9 354.5,396.9 355.9,396.9 357.3,396.9 358.6,396.9 360.0,396.9 361.4,396.9 362.7,396.9 364.1,396.0 365.4,395.1 366.8,394.2 368.2,394.2 369.5,395.1 370.9,396.0 372.2,396.0 373.6,396.0 375.0,395.1 376.3,396.0 377.7,396.9 379.1,396.9 380.4,396.0 381.8,396.0 383.1,396.0 384.5,396.9 385.9,396.9 387.2,395.1 388.6,395.1 389.9,396.0 391.3,396.0 392.7,396.9 394.0,396.9 395.4,396.9 396.8,395.1 398.1,396.0 399.5,395.1 400.8,395.1 402.2,394.2 403.6,395.1 404.9,393.4 406.3,393.4 407.6,394.2 409.0,394.2 410.4,395.1 411.7,396.9 413.1,396.9 414.5,401.3 415.8,402.2 417.2,401.3 418.5,401.3 419.9,400.4 421.3,400.4 422.6,398.7 424.0,400.4 425.3,402.2 426.7,402.2 428.1,398.7 429.4,399.6 430.8,398.7 432.2,398.7 433.5,398.7 434.9,399.6 436.2,398.7 437.6,397.8 439.0,397.8 440.3,397.8 441.7,397.8 443.0,397.8 444.4,396.9 445.8,396.9 447.1,396.9 448.5,396.9 449.9,396.9 451.2,396.9 452.6,396.9 453.9,396.9 455.3,396.9 456.7,396.9 458.0,396.9 459.4,396.9 460.7,396.9 462.1,396.9 463.5,396.9 464.8,398.7 466.2,399.6 467.6,395.1 468.9,396.0 470.3,395.1 471.6,394.2 473.0,394.2 474.4,394.2 475.7,398.7 477.1,398.7 478.4,396.0 479.8,396.0 481.2,396.0 482.5,395.1 483.9,395.1 485.3,395.1 486.6,398.7 488.0,398.7 489.3,395.1 490.7,393.4 492.1,393.4 493.4,393.4 494.8,393.4 496.1,393.4 497.5,392.5 498.9,392.5 500.2,392.5 501.6,395.1 503.0,395.1 504.3,395.1 505.7,395.1 507.0,396.0 508.4,396.0 509.8,393.4 511.1,393.4 512.5,393.4 513.9,393.4 515.2,393.4 516.6,393.4 517.9,393.4 519.3,393.4 520.7,393.4 522.0,393.4 523.4,393.4 524.7,393.4 526.1,393.4 527.5,393.4 528.8,395.1 530.2,395.1 531.6,394.2 532.9,393.4 534.3,395.1 535.6,395.1 537.0,393.4 538.4,395.1 539.7,394.2 541.1,392.5 542.4,392.5 543.8,392.5 545.2,392.5 546.5,392.5 547.9,392.5 549.3,389.8 550.6,389.8 552.0,389.8 553.3,388.9 554.7,388.1 556.1,388.1 557.4,388.9 558.8,389.8 560.1,389.8 561.5,392.5 562.9,387.2 564.2,389.8 565.6,389.8 567.0,388.9 568.3,388.9 569.7,389.8 571.0,388.1 572.4,388.1 573.8,390.7 575.1,390.7 576.5,391.6 577.8,390.7 579.2,391.6 580.6,391.6 581.9,392.5 583.3,391.6 584.7,391.6 586.0,386.3 587.4,387.2 588.7,376.6 590.1,375.7 591.5,381.0 592.8,375.7 594.2,373.9 595.5,375.7 596.9,376.6 598.3,377.4 599.6,380.1 601.0,380.1 602.4,379.2 603.7,381.0 605.1,380.1 606.4,382.7 607.8,382.7 609.2,382.7 610.5,382.7 611.9,382.7 613.2,382.7 614.6,383.6 616.0,381.9 617.3,381.9 618.7,382.7 620.1,382.7 621.4,381.9 622.8,378.3 624.1,379.2 625.5,379.2 626.9,379.2 628.2,379.2 629.6,380.1 630.9,381.9 632.3,381.0 633.7,381.0 635.0,381.9 636.4,381.9 637.8,382.7 639.1,373.9 640.5,373.9 641.8,375.7 643.2,373.9 644.6,375.7 645.9,375.7 647.3,375.7 648.6,375.7 650.0,375.7 651.4,375.7 652.7,376.6 654.1,376.6 655.5,375.7 656.8,375.7 658.2,375.7 659.5,375.7 660.9,375.7 662.3,375.7 663.6,375.7 665.0,375.7 666.3,375.7 667.7,375.7 669.1,375.7 670.4,375.7 671.8,373.9 673.2,373.9 674.5,373.9 675.9,373.9 677.2,373.9 678.6,373.9 680.0,373.9 681.3,373.9 682.7,373.9 684.0,373.9 685.4,373.9 686.8,373.9 688.1,373.9 689.5,373.9 690.9,373.9 692.2,373.9 693.6,373.9 694.9,373.9 696.3,373.9 697.7,373.9 699.0,373.9 700.4,373.9 701.7,373.9 703.1,373.9 704.5,373.9 705.8,373.9 707.2,373.9 708.6,373.9 709.9,373.9 711.3,373.9 712.6,373.9 714.0,373.9 715.4,373.9 716.7,373.9 718.1,373.9 719.4,376.6 720.8,377.4 722.2,377.4 723.5,377.4 724.9,377.4 726.3,381.0 727.6,380.1 729.0,379.2 730.3,379.2 731.7,379.2 733.1,379.2 734.4,379.2 735.8,379.2 737.1,379.2 738.5,379.2 739.9,380.1 741.2,381.0 742.6,382.7 744.0,382.7 745.3,382.7 746.7,382.7 748.0,382.7 749.4,381.9 750.8,382.7 752.1,382.7 753.5,382.7 754.8,382.7 756.2,384.5 757.6,386.3 758.9,385.4 760.3,386.3 761.7,387.2 763.0,386.3 764.4,388.1 765.7,388.1 767.1,386.3 768.5,386.3 769.8,386.3 771.2,386.3 772.5,386.3 773.9,388.9 775.3,391.6 776.6,393.4 778.0,397.8 779.4,399.6 780.7,397.8 782.1,396.9 783.4,393.4 784.8,392.5 786.2,373.9 787.5,375.7 788.9,378.3 790.2,378.3 791.6,380.1 793.0,380.1 794.3,379.2 795.7,377.4 797.1,374.8 798.4,373.0 799.8,372.1 801.1,373.0 802.5,373.9 803.9,377.4 805.2,379.2 806.6,379.2 808.0,381.0 809.3,380.1 810.7,378.3 812.0,376.6 813.4,376.6 814.8,378.3 816.1,375.7 817.5,373.0 818.8,370.4 820.2,370.4 821.6,373.9 822.9,373.0 824.3,367.7 825.7,368.6 827.0,368.6 828.4,368.6 832.5,368.6 833.8,365.1 835.2,356.2 836.5,352.7 837.9,340.3 839.3,338.5 840.6,338.5 842.0,350.9 843.4,350.9 844.7,355.3 846.1,355.3 847.4,344.7 848.8,319.1 850.2,313.8 851.5,313.8 852.9,317.3 854.2,315.5 855.6,310.2 857.0,313.8 858.3,319.1 859.7,300.5 861.1,304.0 862.4,306.7 863.8,304.9 865.1,299.6 866.5,305.8 867.9,303.1 869.2,304.9 870.6,303.1 871.9,303.1 873.3,300.5 874.7,297.8 876.0,297.0 877.4,296.1 878.8,293.4 880.1,292.5 881.5,289.0 882.8,289.9 884.2,289.0 885.6,289.0 886.9,289.0 888.3,287.2 889.6,287.2 891.0,289.0 892.4,284.2 893.7,283.8 895.1,283.8 896.5,283.9 897.8,283.9 899.2,283.9 900.5,283.3"/>
<polyline fill="none" stroke="#1f77b4" stroke-width="2.0" points="904.6,283.1 906.0,283.1 907.3,283.1 908.7,283.1 910.1,283.1 911.4,283.1 912.8,283.0"/>
<text class="small" x="740" y="292.5" fill="#1f77b4">mid</text>
<text class="small" x="780" y="292.5" fill="#2ca02c">bid</text>
<text class="small" x="820" y="292.5" fill="#d62728">ask</text>
</svg>
