<svg xmlns="http://www.w3.org/2000/svg" width="900" height="360" viewBox="0 0 900 360" role="img">
<title>Replay diagnostics</title>
<rect width="100%" height="100%" fill="white"/>
<style>text{font-family:Arial,Helvetica,sans-serif;font-size:12px;fill:#222}.small{font-size:10px;fill:#555}.title{font-size:16px;font-weight:700}.axis{stroke:#999;stroke-width:1}.grid{stroke:#e6e6e6;stroke-width:1}.legend{font-size:11px}</style>
<text class="title" x="80" y="28">Replay diagnostics carried into results</text>
<line class="grid" x1="116.1" y1="55" x2="116.1" y2="290"/>
<text class="small" x="116.1" y="315" text-anchor="middle">0%</text>
<line class="grid" x1="361.6" y1="55" x2="361.6" y2="290"/>
<text class="small" x="361.6" y="315" text-anchor="middle">5%</text>
<line class="grid" x1="607.1" y1="55" x2="607.1" y2="290"/>
<text class="small" x="607.1" y="315" text-anchor="middle">10%</text>
<line class="grid" x1="852.6" y1="55" x2="852.6" y2="290"/>
<text class="small" x="852.6" y="315" text-anchor="middle">15%</text>
<text x="8" y="108">Jun 9 / 25C YES</text>
<rect x="80" y="90.0" width="238.9" height="16" fill="#1f77b4" opacity="0.85"><title>Batch BBO 4.13%</title></rect>
<text class="small" x="85" y="102.0" fill="white">Batch BBO</text>
<text class="small" x="323.9" y="102.0">4.13%</text>
<rect x="80" y="114.0" width="758.9" height="16" fill="#ff7f0e" opacity="0.85"><title>Snapshot BBO 14.72%</title></rect>
<text class="small" x="85" y="126.0" fill="white">Snapshot BBO</text>
<text class="small" x="843.9" y="126.0">14.72%</text>
<rect x="80" y="138.0" width="222.5" height="16" fill="#2ca02c" opacity="0.85"><title>Trade off-book 3.80%</title></rect>
<text class="small" x="85" y="150.0" fill="white">Trade off-book</text>
<text class="small" x="307.5" y="150.0">3.80%</text>
<text x="8" y="223">Jun 10 / 28C YES</text>
<rect x="80" y="205.0" width="179.1" height="16" fill="#1f77b4" opacity="0.85"><title>Batch BBO 2.91%</title></rect>
<text class="small" x="85" y="217.0" fill="white">Batch BBO</text>
<text class="small" x="264.1" y="217.0">2.91%</text>
<rect x="80" y="229.0" width="475.0" height="16" fill="#ff7f0e" opacity="0.85"><title>Snapshot BBO 8.94%</title></rect>
<text class="small" x="85" y="241.0" fill="white">Snapshot BBO</text>
<text class="small" x="560.0" y="241.0">8.94%</text>
<rect x="80" y="253.0" width="83.9" height="16" fill="#2ca02c" opacity="0.85"><title>Trade off-book 0.97%</title></rect>
<text class="small" x="85" y="265.0" fill="white">Trade off-book</text>
<text class="small" x="168.9" y="265.0">0.97%</text>
</svg>
