<svg xmlns="http://www.w3.org/2000/svg" width="980" height="430" viewBox="0 0 980 430" role="img">
<title>Settlement PnL by strategy</title>
<rect width="100%" height="100%" fill="white"/>
<style>text{font-family:Arial,Helvetica,sans-serif;font-size:12px;fill:#222}.small{font-size:10px;fill:#555}.title{font-size:16px;font-weight:700}.axis{stroke:#999;stroke-width:1}.grid{stroke:#e6e6e6;stroke-width:1}.legend{font-size:11px}</style>
<text class="title" x="75" y="28">Settlement PnL by strategy</text>
<line class="grid" x1="75" y1="340.0" x2="955" y2="340.0"/>
<text class="small" x="10" y="344.0">-66</text>
<line class="grid" x1="75" y1="250.1" x2="955" y2="250.1"/>
<text class="small" x="10" y="254.1">-33</text>
<line class="grid" x1="75" y1="160.2" x2="955" y2="160.2"/>
<text class="small" x="10" y="164.2">0</text>
<line class="grid" x1="75" y1="107.6" x2="955" y2="107.6"/>
<text class="small" x="10" y="111.6">19</text>
<line class="grid" x1="75" y1="55.0" x2="955" y2="55.0"/>
<text class="small" x="10" y="59.0">39</text>
<line class="axis" x1="75" y1="160.2" x2="955" y2="160.2"/>
<text x="255.0" y="395">Jun 9 / 25C YES</text>
<rect x="110.0" y="138.9" width="91.2" height="21.3" fill="#2ca02c" opacity="0.85"><title>buy_hold_first_ask 7.80</title></rect>
<text class="small" transform="translate(155.6,382) rotate(-35)" text-anchor="end">buy hold first ask</text>
<text class="small" x="155.6" y="133.9" text-anchor="middle">7.8</text>
<rect x="209.2" y="160.2" width="91.2" height="32.3" fill="#1f77b4" opacity="0.85"><title>momentum_taker -11.84</title></rect>
<text class="small" transform="translate(254.9,382) rotate(-35)" text-anchor="end">momentum taker</text>
<text class="small" x="254.9" y="205.5" text-anchor="middle">-11.8</text>
<rect x="308.5" y="160.2" width="91.2" height="8.6" fill="#ff7f0e" opacity="0.85"><title>contrarian_taker -3.15</title></rect>
<text class="small" transform="translate(354.1,382) rotate(-35)" text-anchor="end">contrarian taker</text>
<text class="small" x="354.1" y="181.8" text-anchor="middle">-3.2</text>
<rect x="407.8" y="160.2" width="91.2" height="85.8" fill="#d62728" opacity="0.85"><title>maker_bbo -31.44</title></rect>
<text class="small" transform="translate(453.4,382) rotate(-35)" text-anchor="end">maker bbo</text>
<text class="small" x="453.4" y="258.9" text-anchor="middle">-31.4</text>
<text x="695.0" y="395">Jun 10 / 28C YES</text>
<rect x="550.0" y="139.2" width="91.2" height="21.0" fill="#2ca02c" opacity="0.85"><title>buy_hold_first_ask 7.70</title></rect>
<text class="small" transform="translate(595.6,382) rotate(-35)" text-anchor="end">buy hold first ask</text>
<text class="small" x="595.6" y="134.2" text-anchor="middle">7.7</text>
<rect x="649.2" y="87.9" width="91.2" height="72.3" fill="#1f77b4" opacity="0.85"><title>momentum_taker 26.50</title></rect>
<text class="small" transform="translate(694.9,382) rotate(-35)" text-anchor="end">momentum taker</text>
<text class="small" x="694.9" y="82.9" text-anchor="middle">26.5</text>
<rect x="748.5" y="160.2" width="91.2" height="100.1" fill="#ff7f0e" opacity="0.85"><title>contrarian_taker -36.70</title></rect>
<text class="small" transform="translate(794.1,382) rotate(-35)" text-anchor="end">contrarian taker</text>
<text class="small" x="794.1" y="273.3" text-anchor="middle">-36.7</text>
<rect x="847.8" y="160.2" width="91.2" height="146.9" fill="#d62728" opacity="0.85"><title>maker_bbo -53.86</title></rect>
<text class="small" transform="translate(893.4,382) rotate(-35)" text-anchor="end">maker bbo</text>
<text class="small" x="893.4" y="320.1" text-anchor="middle">-53.9</text>
</svg>
